<?xml version="1.0" standalone="no"?>
<!DOCTYPE svg PUBLIC "-//W3C//DTD SVG 1.1//EN" "http://www.w3.org/Graphics/SVG/1.1/DTD/svg11.dtd">
<svg version="1.1" width="1200" height="518" onload="init(evt)" viewBox="0 0 1200 518" xmlns="http://www.w3.org/2000/svg" xmlns:xlink="http://www.w3.org/1999/xlink">
<!-- Flame graph stack visualization. See https://github.com/brendangregg/FlameGraph for latest version, and http://www.brendangregg.com/flamegraphs.html for examples. -->
<!-- NOTES:  -->
<defs>
	<linearGradient id="background" y1="0" y2="1" x1="0" x2="0" >
		<stop stop-color="#eeeeee" offset="5%" />
		<stop stop-color="#eeeeb0" offset="95%" />
	</linearGradient>
</defs>
<style type="text/css">
	text { font-family:Verdana; font-size:12px; fill:rgb(0,0,0); }
	#search, #ignorecase { opacity:0.1; cursor:pointer; }
	#search:hover, #search.show, #ignorecase:hover, #ignorecase.show { opacity:1; }
	#subtitle { text-anchor:middle; font-color:rgb(160,160,160); }
	#title { text-anchor:middle; font-size:17px}
	#unzoom { cursor:pointer; }
	#frames > *:hover { stroke:black; stroke-width:0.5; cursor:pointer; }
	.hide { display:none; }
	.parent { opacity:0.5; }
</style>
<script type="text/ecmascript">
<![CDATA[
	"use strict";
	var details, searchbtn, unzoombtn, matchedtxt, svg, searching, currentSearchTerm, ignorecase, ignorecaseBtn;
	function init(evt) {
		details = document.getElementById("details").firstChild;
		searchbtn = document.getElementById("search");
		ignorecaseBtn = document.getElementById("ignorecase");
		unzoombtn = document.getElementById("unzoom");
		matchedtxt = document.getElementById("matched");
		svg = document.getElementsByTagName("svg")[0];
		searching = 0;
		currentSearchTerm = null;

		// use GET parameters to restore a flamegraphs state.
		var params = get_params();
		if (params.x && params.y)
			zoom(find_group(document.querySelector('[x="' + params.x + '"][y="' + params.y + '"]')));
                if (params.s) search(params.s);
	}

	// event listeners
	window.addEventListener("click", function(e) {
		var target = find_group(e.target);
		if (target) {
			if (target.nodeName == "a") {
				if (e.ctrlKey === false) return;
				e.preventDefault();
			}
			if (target.classList.contains("parent")) unzoom(true);
			zoom(target);
			if (!document.querySelector('.parent')) {
				// we have basically done a clearzoom so clear the url
				var params = get_params();
				if (params.x) delete params.x;
				if (params.y) delete params.y;
				history.replaceState(null, null, parse_params(params));
				unzoombtn.classList.add("hide");
				return;
			}

			// set parameters for zoom state
			var el = target.querySelector("rect");
			if (el && el.attributes && el.attributes.y && el.attributes._orig_x) {
				var params = get_params()
				params.x = el.attributes._orig_x.value;
				params.y = el.attributes.y.value;
				history.replaceState(null, null, parse_params(params));
			}
		}
		else if (e.target.id == "unzoom") clearzoom();
		else if (e.target.id == "search") search_prompt();
		else if (e.target.id == "ignorecase") toggle_ignorecase();
	}, false)

	// mouse-over for info
	// show
	window.addEventListener("mouseover", function(e) {
		var target = find_group(e.target);
		if (target) details.nodeValue = "Function: " + g_to_text(target);
	}, false)

	// clear
	window.addEventListener("mouseout", function(e) {
		var target = find_group(e.target);
		if (target) details.nodeValue = ' ';
	}, false)

	// ctrl-F for search
	// ctrl-I to toggle case-sensitive search
	window.addEventListener("keydown",function (e) {
		if (e.keyCode === 114 || (e.ctrlKey && e.keyCode === 70)) {
			e.preventDefault();
			search_prompt();
		}
		else if (e.ctrlKey && e.keyCode === 73) {
			e.preventDefault();
			toggle_ignorecase();
		}
	}, false)

	// functions
	function get_params() {
		var params = {};
		var paramsarr = window.location.search.substr(1).split('&');
		for (var i = 0; i < paramsarr.length; ++i) {
			var tmp = paramsarr[i].split("=");
			if (!tmp[0] || !tmp[1]) continue;
			params[tmp[0]]  = decodeURIComponent(tmp[1]);
		}
		return params;
	}
	function parse_params(params) {
		var uri = "?";
		for (var key in params) {
			uri += key + '=' + encodeURIComponent(params[key]) + '&';
		}
		if (uri.slice(-1) == "&")
			uri = uri.substring(0, uri.length - 1);
		if (uri == '?')
			uri = window.location.href.split('?')[0];
		return uri;
	}
	function find_child(node, selector) {
		var children = node.querySelectorAll(selector);
		if (children.length) return children[0];
	}
	function find_group(node) {
		var parent = node.parentElement;
		if (!parent) return;
		if (parent.id == "frames") return node;
		return find_group(parent);
	}
	function orig_save(e, attr, val) {
		if (e.attributes["_orig_" + attr] != undefined) return;
		if (e.attributes[attr] == undefined) return;
		if (val == undefined) val = e.attributes[attr].value;
		e.setAttribute("_orig_" + attr, val);
	}
	function orig_load(e, attr) {
		if (e.attributes["_orig_"+attr] == undefined) return;
		e.attributes[attr].value = e.attributes["_orig_" + attr].value;
		e.removeAttribute("_orig_"+attr);
	}
	function g_to_text(e) {
		var text = find_child(e, "title").firstChild.nodeValue;
		return (text)
	}
	function g_to_func(e) {
		var func = g_to_text(e);
		// if there's any manipulation we want to do to the function
		// name before it's searched, do it here before returning.
		return (func);
	}
	function update_text(e) {
		var r = find_child(e, "rect");
		var t = find_child(e, "text");
		var w = parseFloat(r.attributes.width.value) -3;
		var txt = find_child(e, "title").textContent.replace(/\([^(]*\)$/,"");
		t.attributes.x.value = parseFloat(r.attributes.x.value) + 3;

		// Smaller than this size won't fit anything
		if (w < 2 * 12 * 0.59) {
			t.textContent = "";
			return;
		}

		t.textContent = txt;
		var sl = t.getSubStringLength(0, txt.length);
		// check if only whitespace or if we can fit the entire string into width w
		if (/^ *$/.test(txt) || sl < w)
			return;

		// this isn't perfect, but gives a good starting point
		// and avoids calling getSubStringLength too often
		var start = Math.floor((w/sl) * txt.length);
		for (var x = start; x > 0; x = x-2) {
			if (t.getSubStringLength(0, x + 2) <= w) {
				t.textContent = txt.substring(0, x) + "..";
				return;
			}
		}
		t.textContent = "";
	}

	// zoom
	function zoom_reset(e) {
		if (e.attributes != undefined) {
			orig_load(e, "x");
			orig_load(e, "width");
		}
		if (e.childNodes == undefined) return;
		for (var i = 0, c = e.childNodes; i < c.length; i++) {
			zoom_reset(c[i]);
		}
	}
	function zoom_child(e, x, ratio) {
		if (e.attributes != undefined) {
			if (e.attributes.x != undefined) {
				orig_save(e, "x");
				e.attributes.x.value = (parseFloat(e.attributes.x.value) - x - 10) * ratio + 10;
				if (e.tagName == "text")
					e.attributes.x.value = find_child(e.parentNode, "rect[x]").attributes.x.value + 3;
			}
			if (e.attributes.width != undefined) {
				orig_save(e, "width");
				e.attributes.width.value = parseFloat(e.attributes.width.value) * ratio;
			}
		}

		if (e.childNodes == undefined) return;
		for (var i = 0, c = e.childNodes; i < c.length; i++) {
			zoom_child(c[i], x - 10, ratio);
		}
	}
	function zoom_parent(e) {
		if (e.attributes) {
			if (e.attributes.x != undefined) {
				orig_save(e, "x");
				e.attributes.x.value = 10;
			}
			if (e.attributes.width != undefined) {
				orig_save(e, "width");
				e.attributes.width.value = parseInt(svg.width.baseVal.value) - (10 * 2);
			}
		}
		if (e.childNodes == undefined) return;
		for (var i = 0, c = e.childNodes; i < c.length; i++) {
			zoom_parent(c[i]);
		}
	}
	function zoom(node) {
		var attr = find_child(node, "rect").attributes;
		var width = parseFloat(attr.width.value);
		var xmin = parseFloat(attr.x.value);
		var xmax = parseFloat(xmin + width);
		var ymin = parseFloat(attr.y.value);
		var ratio = (svg.width.baseVal.value - 2 * 10) / width;

		// XXX: Workaround for JavaScript float issues (fix me)
		var fudge = 0.0001;

		unzoombtn.classList.remove("hide");

		var el = document.getElementById("frames").children;
		for (var i = 0; i < el.length; i++) {
			var e = el[i];
			var a = find_child(e, "rect").attributes;
			var ex = parseFloat(a.x.value);
			var ew = parseFloat(a.width.value);
			var upstack;
			// Is it an ancestor
			if (0 == 0) {
				upstack = parseFloat(a.y.value) > ymin;
			} else {
				upstack = parseFloat(a.y.value) < ymin;
			}
			if (upstack) {
				// Direct ancestor
				if (ex <= xmin && (ex+ew+fudge) >= xmax) {
					e.classList.add("parent");
					zoom_parent(e);
					update_text(e);
				}
				// not in current path
				else
					e.classList.add("hide");
			}
			// Children maybe
			else {
				// no common path
				if (ex < xmin || ex + fudge >= xmax) {
					e.classList.add("hide");
				}
				else {
					zoom_child(e, xmin, ratio);
					update_text(e);
				}
			}
		}
		search();
	}
	function unzoom(dont_update_text) {
		unzoombtn.classList.add("hide");
		var el = document.getElementById("frames").children;
		for(var i = 0; i < el.length; i++) {
			el[i].classList.remove("parent");
			el[i].classList.remove("hide");
			zoom_reset(el[i]);
			if(!dont_update_text) update_text(el[i]);
		}
		search();
	}
	function clearzoom() {
		unzoom();

		// remove zoom state
		var params = get_params();
		if (params.x) delete params.x;
		if (params.y) delete params.y;
		history.replaceState(null, null, parse_params(params));
	}

	// search
	function toggle_ignorecase() {
		ignorecase = !ignorecase;
		if (ignorecase) {
			ignorecaseBtn.classList.add("show");
		} else {
			ignorecaseBtn.classList.remove("show");
		}
		reset_search();
		search();
	}
	function reset_search() {
		var el = document.querySelectorAll("#frames rect");
		for (var i = 0; i < el.length; i++) {
			orig_load(el[i], "fill")
		}
		var params = get_params();
		delete params.s;
		history.replaceState(null, null, parse_params(params));
	}
	function search_prompt() {
		if (!searching) {
			var term = prompt("Enter a search term (regexp " +
			    "allowed, eg: ^ext4_)"
			    + (ignorecase ? ", ignoring case" : "")
			    + "\nPress Ctrl-i to toggle case sensitivity", "");
			if (term != null) search(term);
		} else {
			reset_search();
			searching = 0;
			currentSearchTerm = null;
			searchbtn.classList.remove("show");
			searchbtn.firstChild.nodeValue = "Search"
			matchedtxt.classList.add("hide");
			matchedtxt.firstChild.nodeValue = ""
		}
	}
	function search(term) {
		if (term) currentSearchTerm = term;

		var re = new RegExp(currentSearchTerm, ignorecase ? 'i' : '');
		var el = document.getElementById("frames").children;
		var matches = new Object();
		var maxwidth = 0;
		for (var i = 0; i < el.length; i++) {
			var e = el[i];
			var func = g_to_func(e);
			var rect = find_child(e, "rect");
			if (func == null || rect == null)
				continue;

			// Save max width. Only works as we have a root frame
			var w = parseFloat(rect.attributes.width.value);
			if (w > maxwidth)
				maxwidth = w;

			if (func.match(re)) {
				// highlight
				var x = parseFloat(rect.attributes.x.value);
				orig_save(rect, "fill");
				rect.attributes.fill.value = "rgb(230,0,230)";

				// remember matches
				if (matches[x] == undefined) {
					matches[x] = w;
				} else {
					if (w > matches[x]) {
						// overwrite with parent
						matches[x] = w;
					}
				}
				searching = 1;
			}
		}
		if (!searching)
			return;
		var params = get_params();
		params.s = currentSearchTerm;
		history.replaceState(null, null, parse_params(params));

		searchbtn.classList.add("show");
		searchbtn.firstChild.nodeValue = "Reset Search";

		// calculate percent matched, excluding vertical overlap
		var count = 0;
		var lastx = -1;
		var lastw = 0;
		var keys = Array();
		for (k in matches) {
			if (matches.hasOwnProperty(k))
				keys.push(k);
		}
		// sort the matched frames by their x location
		// ascending, then width descending
		keys.sort(function(a, b){
			return a - b;
		});
		// Step through frames saving only the biggest bottom-up frames
		// thanks to the sort order. This relies on the tree property
		// where children are always smaller than their parents.
		var fudge = 0.0001;	// JavaScript floating point
		for (var k in keys) {
			var x = parseFloat(keys[k]);
			var w = matches[keys[k]];
			if (x >= lastx + lastw - fudge) {
				count += w;
				lastx = x;
				lastw = w;
			}
		}
		// display matched percent
		matchedtxt.classList.remove("hide");
		var pct = 100 * count / maxwidth;
		if (pct != 100) pct = pct.toFixed(1)
		matchedtxt.firstChild.nodeValue = "Matched: " + pct + "%";
	}
]]>
</script>
<rect x="0.0" y="0" width="1200.0" height="518.0" fill="url(#background)"  />
<text id="title" x="600.00" y="24" >Flame Graph</text>
<text id="details" x="10.00" y="501" > </text>
<text id="unzoom" x="10.00" y="24" class="hide">Reset Zoom</text>
<text id="search" x="1090.00" y="24" >Search</text>
<text id="ignorecase" x="1174.00" y="24" >ic</text>
<text id="matched" x="1090.00" y="501" > </text>
<g id="frames">
<g >
<title>do_syscall_64 (415,403,104 samples, 18.32%)</title><rect x="646.4" y="421" width="216.1" height="15.0" fill="rgb(209,20,4)" rx="2" ry="2" />
<text  x="649.39" y="431.5" >do_syscall_64</text>
</g>
<g >
<title>perf_evsel__enable_cpu (5,536,102 samples, 0.24%)</title><rect x="182.7" y="389" width="2.8" height="15.0" fill="rgb(238,152,36)" rx="2" ry="2" />
<text  x="185.65" y="399.5" ></text>
</g>
<g >
<title>sock_write_iter (415,403,104 samples, 18.32%)</title><rect x="646.4" y="341" width="216.1" height="15.0" fill="rgb(243,178,42)" rx="2" ry="2" />
<text  x="649.39" y="351.5" >sock_write_iter</text>
</g>
<g >
<title>sock_alloc_send_pskb (196,229,804 samples, 8.65%)</title><rect x="760.4" y="309" width="102.1" height="15.0" fill="rgb(210,26,6)" rx="2" ry="2" />
<text  x="763.43" y="319.5" >sock_alloc_s..</text>
</g>
<g >
<title>perf_event_for_each_child (5,536,102 samples, 0.24%)</title><rect x="182.7" y="229" width="2.8" height="15.0" fill="rgb(224,88,21)" rx="2" ry="2" />
<text  x="185.65" y="239.5" ></text>
</g>
<g >
<title>entry_SYSCALL_64_after_hwframe (209,141,023 samples, 9.22%)</title><rect x="185.5" y="357" width="108.9" height="15.0" fill="rgb(218,63,15)" rx="2" ry="2" />
<text  x="188.53" y="367.5" >entry_SYSCALL..</text>
</g>
<g >
<title>smp_call_function_single (5,536,102 samples, 0.24%)</title><rect x="182.7" y="181" width="2.8" height="15.0" fill="rgb(223,83,19)" rx="2" ry="2" />
<text  x="185.65" y="191.5" ></text>
</g>
<g >
<title>run_rebalance_domains (104,127,223 samples, 4.59%)</title><rect x="1135.8" y="165" width="54.2" height="15.0" fill="rgb(232,126,30)" rx="2" ry="2" />
<text  x="1138.82" y="175.5" >run_r..</text>
</g>
<g >
<title>_perf_event_enable (5,536,102 samples, 0.24%)</title><rect x="182.7" y="213" width="2.8" height="15.0" fill="rgb(251,212,50)" rx="2" ry="2" />
<text  x="185.65" y="223.5" ></text>
</g>
<g >
<title>[unknown] (218,817,569 samples, 9.65%)</title><rect x="68.8" y="437" width="113.9" height="15.0" fill="rgb(210,24,5)" rx="2" ry="2" />
<text  x="71.80" y="447.5" >[unknown]</text>
</g>
<g >
<title>wait_task_zombie (113,003,018 samples, 4.98%)</title><rect x="10.0" y="165" width="58.8" height="15.0" fill="rgb(230,115,27)" rx="2" ry="2" />
<text  x="13.00" y="175.5" >wait_t..</text>
</g>
<g >
<title>cgroup_rstat_flush_locked (253,965,553 samples, 11.20%)</title><rect x="862.5" y="309" width="132.2" height="15.0" fill="rgb(209,19,4)" rx="2" ry="2" />
<text  x="865.53" y="319.5" >cgroup_rstat_flu..</text>
</g>
<g >
<title>__alloc_skb (196,229,804 samples, 8.65%)</title><rect x="760.4" y="277" width="102.1" height="15.0" fill="rgb(226,100,23)" rx="2" ry="2" />
<text  x="763.43" y="287.5" >__alloc_skb</text>
</g>
<g >
<title>start_secondary (271,266,833 samples, 11.96%)</title><rect x="994.7" y="421" width="141.1" height="15.0" fill="rgb(242,170,40)" rx="2" ry="2" />
<text  x="997.67" y="431.5" >start_secondary</text>
</g>
<g >
<title>[bash] (113,003,018 samples, 4.98%)</title><rect x="10.0" y="325" width="58.8" height="15.0" fill="rgb(250,209,50)" rx="2" ry="2" />
<text  x="13.00" y="335.5" >[bash]</text>
</g>
<g >
<title>__execvpe (218,817,569 samples, 9.65%)</title><rect x="68.8" y="389" width="113.9" height="15.0" fill="rgb(228,107,25)" rx="2" ry="2" />
<text  x="71.80" y="399.5" >__execvpe</text>
</g>
<g >
<title>__kernel_read (218,817,569 samples, 9.65%)</title><rect x="68.8" y="197" width="113.9" height="15.0" fill="rgb(220,69,16)" rx="2" ry="2" />
<text  x="71.80" y="207.5" >__kernel_read</text>
</g>
<g >
<title>x86_64_start_kernel (104,127,223 samples, 4.59%)</title><rect x="1135.8" y="421" width="54.2" height="15.0" fill="rgb(206,7,1)" rx="2" ry="2" />
<text  x="1138.82" y="431.5" >x86_6..</text>
</g>
<g >
<title>cpu_startup_entry (271,266,833 samples, 11.96%)</title><rect x="994.7" y="405" width="141.1" height="15.0" fill="rgb(252,220,52)" rx="2" ry="2" />
<text  x="997.67" y="415.5" >cpu_startup_entry</text>
</g>
<g >
<title>kernel_wait4 (113,003,018 samples, 4.98%)</title><rect x="10.0" y="213" width="58.8" height="15.0" fill="rgb(250,207,49)" rx="2" ry="2" />
<text  x="13.00" y="223.5" >kernel..</text>
</g>
<g >
<title>reader_loop (113,003,018 samples, 4.98%)</title><rect x="10.0" y="389" width="58.8" height="15.0" fill="rgb(244,180,43)" rx="2" ry="2" />
<text  x="13.00" y="399.5" >reader..</text>
</g>
<g >
<title>event_function_call (5,536,102 samples, 0.24%)</title><rect x="182.7" y="197" width="2.8" height="15.0" fill="rgb(227,103,24)" rx="2" ry="2" />
<text  x="185.65" y="207.5" ></text>
</g>
<g >
<title>event_function (5,536,102 samples, 0.24%)</title><rect x="182.7" y="133" width="2.8" height="15.0" fill="rgb(252,219,52)" rx="2" ry="2" />
<text  x="185.65" y="143.5" ></text>
</g>
<g >
<title>__do_sys_wait4 (113,003,018 samples, 4.98%)</title><rect x="10.0" y="229" width="58.8" height="15.0" fill="rgb(219,66,15)" rx="2" ry="2" />
<text  x="13.00" y="239.5" >__do_s..</text>
</g>
<g >
<title>perf_ctx_enable (5,536,102 samples, 0.24%)</title><rect x="182.7" y="85" width="2.8" height="15.0" fill="rgb(227,105,25)" rx="2" ry="2" />
<text  x="185.65" y="95.5" ></text>
</g>
<g >
<title>bprm_execve.part.0 (218,817,569 samples, 9.65%)</title><rect x="68.8" y="261" width="113.9" height="15.0" fill="rgb(228,106,25)" rx="2" ry="2" />
<text  x="71.80" y="271.5" >bprm_execve.pa..</text>
</g>
<g >
<title>__cmd_record.constprop.54 (5,536,102 samples, 0.24%)</title><rect x="182.7" y="421" width="2.8" height="15.0" fill="rgb(222,80,19)" rx="2" ry="2" />
<text  x="185.65" y="431.5" ></text>
</g>
<g >
<title>perf_evsel__ioctl (5,536,102 samples, 0.24%)</title><rect x="182.7" y="357" width="2.8" height="15.0" fill="rgb(211,30,7)" rx="2" ry="2" />
<text  x="185.65" y="367.5" ></text>
</g>
<g >
<title>__libc_start_main (209,141,023 samples, 9.22%)</title><rect x="185.5" y="421" width="108.9" height="15.0" fill="rgb(236,142,34)" rx="2" ry="2" />
<text  x="188.53" y="431.5" >__libc_start_..</text>
</g>
<g >
<title>cpuidle_idle_call (104,127,223 samples, 4.59%)</title><rect x="1135.8" y="309" width="54.2" height="15.0" fill="rgb(207,9,2)" rx="2" ry="2" />
<text  x="1138.82" y="319.5" >cpuid..</text>
</g>
<g >
<title>sched_clock_idle_wakeup_event (160,649,500 samples, 7.08%)</title><rect x="1052.2" y="325" width="83.6" height="15.0" fill="rgb(251,213,50)" rx="2" ry="2" />
<text  x="1055.23" y="335.5" >sched_clo..</text>
</g>
<g >
<title>entry_SYSCALL_64_after_hwframe (5,536,102 samples, 0.24%)</title><rect x="182.7" y="325" width="2.8" height="15.0" fill="rgb(218,63,15)" rx="2" ry="2" />
<text  x="185.65" y="335.5" ></text>
</g>
<g >
<title>cpu_startup_entry (104,127,223 samples, 4.59%)</title><rect x="1135.8" y="341" width="54.2" height="15.0" fill="rgb(252,220,52)" rx="2" ry="2" />
<text  x="1138.82" y="351.5" >cpu_s..</text>
</g>
<g >
<title>ext4_journal_check_start (218,817,569 samples, 9.65%)</title><rect x="68.8" y="53" width="113.9" height="15.0" fill="rgb(231,122,29)" rx="2" ry="2" />
<text  x="71.80" y="63.5" >ext4_journal_c..</text>
</g>
<g >
<title>do_syscall_64 (113,003,018 samples, 4.98%)</title><rect x="10.0" y="277" width="58.8" height="15.0" fill="rgb(209,20,4)" rx="2" ry="2" />
<text  x="13.00" y="287.5" >do_sys..</text>
</g>
<g >
<title>x86_pmu_enable (5,536,102 samples, 0.24%)</title><rect x="182.7" y="69" width="2.8" height="15.0" fill="rgb(244,179,43)" rx="2" ry="2" />
<text  x="185.65" y="79.5" ></text>
</g>
<g >
<title>__libc_start_main (113,003,018 samples, 4.98%)</title><rect x="10.0" y="421" width="58.8" height="15.0" fill="rgb(236,142,34)" rx="2" ry="2" />
<text  x="13.00" y="431.5" >__libc..</text>
</g>
<g >
<title>main (209,141,023 samples, 9.22%)</title><rect x="185.5" y="405" width="108.9" height="15.0" fill="rgb(243,179,42)" rx="2" ry="2" />
<text  x="188.53" y="415.5" >main</text>
</g>
<g >
<title>intel_pmu_enable_all (5,536,102 samples, 0.24%)</title><rect x="182.7" y="53" width="2.8" height="15.0" fill="rgb(205,4,1)" rx="2" ry="2" />
<text  x="185.65" y="63.5" ></text>
</g>
<g >
<title>do_syscall_64 (5,536,102 samples, 0.24%)</title><rect x="182.7" y="309" width="2.8" height="15.0" fill="rgb(209,20,4)" rx="2" ry="2" />
<text  x="185.65" y="319.5" ></text>
</g>
<g >
<title>secondary_startup_64_no_verify (375,394,056 samples, 16.55%)</title><rect x="994.7" y="437" width="195.3" height="15.0" fill="rgb(239,157,37)" rx="2" ry="2" />
<text  x="997.67" y="447.5" >secondary_startup_64_no_v..</text>
</g>
<g >
<title>update_blocked_averages (104,127,223 samples, 4.59%)</title><rect x="1135.8" y="149" width="54.2" height="15.0" fill="rgb(240,163,38)" rx="2" ry="2" />
<text  x="1138.82" y="159.5" >updat..</text>
</g>
<g >
<title>x64_sys_call (5,536,102 samples, 0.24%)</title><rect x="182.7" y="293" width="2.8" height="15.0" fill="rgb(247,194,46)" rx="2" ry="2" />
<text  x="185.65" y="303.5" ></text>
</g>
<g >
<title>do_flush_stats (253,965,553 samples, 11.20%)</title><rect x="862.5" y="341" width="132.2" height="15.0" fill="rgb(234,137,32)" rx="2" ry="2" />
<text  x="865.53" y="351.5" >do_flush_stats</text>
</g>
<g >
<title>ret_from_fork_asm (253,965,553 samples, 11.20%)</title><rect x="862.5" y="437" width="132.2" height="15.0" fill="rgb(240,163,39)" rx="2" ry="2" />
<text  x="865.53" y="447.5" >ret_from_fork_asm</text>
</g>
<g >
<title>do_wait (113,003,018 samples, 4.98%)</title><rect x="10.0" y="197" width="58.8" height="15.0" fill="rgb(213,40,9)" rx="2" ry="2" />
<text  x="13.00" y="207.5" >do_wait</text>
</g>
<g >
<title>ext4_dirty_inode (218,817,569 samples, 9.65%)</title><rect x="68.8" y="85" width="113.9" height="15.0" fill="rgb(227,102,24)" rx="2" ry="2" />
<text  x="71.80" y="95.5" >ext4_dirty_inode</text>
</g>
<g >
<title>sysvec_apic_timer_interrupt (104,127,223 samples, 4.59%)</title><rect x="1135.8" y="229" width="54.2" height="15.0" fill="rgb(220,69,16)" rx="2" ry="2" />
<text  x="1138.82" y="239.5" >sysve..</text>
</g>
<g >
<title>kernel_read (218,817,569 samples, 9.65%)</title><rect x="68.8" y="213" width="113.9" height="15.0" fill="rgb(247,195,46)" rx="2" ry="2" />
<text  x="71.80" y="223.5" >kernel_read</text>
</g>
<g >
<title>rest_init (104,127,223 samples, 4.59%)</title><rect x="1135.8" y="357" width="54.2" height="15.0" fill="rgb(252,217,51)" rx="2" ry="2" />
<text  x="1138.82" y="367.5" >rest_..</text>
</g>
<g >
<title>start_kernel (104,127,223 samples, 4.59%)</title><rect x="1135.8" y="389" width="54.2" height="15.0" fill="rgb(254,227,54)" rx="2" ry="2" />
<text  x="1138.82" y="399.5" >start..</text>
</g>
<g >
<title>bash (113,003,018 samples, 4.98%)</title><rect x="10.0" y="453" width="58.8" height="15.0" fill="rgb(239,157,37)" rx="2" ry="2" />
<text  x="13.00" y="463.5" >bash</text>
</g>
<g >
<title>touch_atime (218,817,569 samples, 9.65%)</title><rect x="68.8" y="117" width="113.9" height="15.0" fill="rgb(205,2,0)" rx="2" ry="2" />
<text  x="71.80" y="127.5" >touch_atime</text>
</g>
<g >
<title>process_one_work (253,965,553 samples, 11.20%)</title><rect x="862.5" y="373" width="132.2" height="15.0" fill="rgb(237,151,36)" rx="2" ry="2" />
<text  x="865.53" y="383.5" >process_one_work</text>
</g>
<g >
<title>__kmalloc_node_track_caller (196,229,804 samples, 8.65%)</title><rect x="760.4" y="245" width="102.1" height="15.0" fill="rgb(251,214,51)" rx="2" ry="2" />
<text  x="763.43" y="255.5" >__kmalloc_no..</text>
</g>
<g >
<title>irq_exit_rcu (104,127,223 samples, 4.59%)</title><rect x="1135.8" y="213" width="54.2" height="15.0" fill="rgb(254,227,54)" rx="2" ry="2" />
<text  x="1138.82" y="223.5" >irq_e..</text>
</g>
<g >
<title>__do_softirq (104,127,223 samples, 4.59%)</title><rect x="1135.8" y="181" width="54.2" height="15.0" fill="rgb(246,191,45)" rx="2" ry="2" />
<text  x="1138.82" y="191.5" >__do_..</text>
</g>
<g >
<title>native_write_msr (5,536,102 samples, 0.24%)</title><rect x="182.7" y="37" width="2.8" height="15.0" fill="rgb(237,151,36)" rx="2" ry="2" />
<text  x="185.65" y="47.5" ></text>
</g>
<g >
<title>cpuidle_idle_call (271,266,833 samples, 11.96%)</title><rect x="994.7" y="373" width="141.1" height="15.0" fill="rgb(207,9,2)" rx="2" ry="2" />
<text  x="997.67" y="383.5" >cpuidle_idle_call</text>
</g>
<g >
<title>__tcp_transmit_skb (219,173,300 samples, 9.66%)</title><rect x="646.4" y="245" width="114.0" height="15.0" fill="rgb(231,122,29)" rx="2" ry="2" />
<text  x="649.39" y="255.5" >__tcp_transmit..</text>
</g>
<g >
<title>wait_for (113,003,018 samples, 4.98%)</title><rect x="10.0" y="341" width="58.8" height="15.0" fill="rgb(214,43,10)" rx="2" ry="2" />
<text  x="13.00" y="351.5" >wait_for</text>
</g>
<g >
<title>do_execveat_common.isra.0 (218,817,569 samples, 9.65%)</title><rect x="68.8" y="293" width="113.9" height="15.0" fill="rgb(231,123,29)" rx="2" ry="2" />
<text  x="71.80" y="303.5" >do_execveat_co..</text>
</g>
<g >
<title>x86_64_start_reservations (104,127,223 samples, 4.59%)</title><rect x="1135.8" y="405" width="54.2" height="15.0" fill="rgb(239,159,38)" rx="2" ry="2" />
<text  x="1138.82" y="415.5" >x86_6..</text>
</g>
<g >
<title>ctx_resched (5,536,102 samples, 0.24%)</title><rect x="182.7" y="101" width="2.8" height="15.0" fill="rgb(244,180,43)" rx="2" ry="2" />
<text  x="185.65" y="111.5" ></text>
</g>
<g >
<title>asm_sysvec_apic_timer_interrupt (104,127,223 samples, 4.59%)</title><rect x="1135.8" y="245" width="54.2" height="15.0" fill="rgb(232,127,30)" rx="2" ry="2" />
<text  x="1138.82" y="255.5" >asm_s..</text>
</g>
<g >
<title>worker_thread (253,965,553 samples, 11.20%)</title><rect x="862.5" y="389" width="132.2" height="15.0" fill="rgb(214,45,10)" rx="2" ry="2" />
<text  x="865.53" y="399.5" >worker_thread</text>
</g>
<g >
<title>vfs_write (415,403,104 samples, 18.32%)</title><rect x="646.4" y="357" width="216.1" height="15.0" fill="rgb(250,209,50)" rx="2" ry="2" />
<text  x="649.39" y="367.5" >vfs_write</text>
</g>
<g >
<title>_perf_ioctl (5,536,102 samples, 0.24%)</title><rect x="182.7" y="245" width="2.8" height="15.0" fill="rgb(232,128,30)" rx="2" ry="2" />
<text  x="185.65" y="255.5" ></text>
</g>
<g >
<title>execute_command_internal (113,003,018 samples, 4.98%)</title><rect x="10.0" y="357" width="58.8" height="15.0" fill="rgb(248,202,48)" rx="2" ry="2" />
<text  x="13.00" y="367.5" >execut..</text>
</g>
<g >
<title>__x64_sys_ioctl (5,536,102 samples, 0.24%)</title><rect x="182.7" y="277" width="2.8" height="15.0" fill="rgb(249,204,49)" rx="2" ry="2" />
<text  x="185.65" y="287.5" ></text>
</g>
<g >
<title>call_cpuidle (104,127,223 samples, 4.59%)</title><rect x="1135.8" y="293" width="54.2" height="15.0" fill="rgb(245,184,44)" rx="2" ry="2" />
<text  x="1138.82" y="303.5" >call_..</text>
</g>
<g >
<title>kthread (253,965,553 samples, 11.20%)</title><rect x="862.5" y="405" width="132.2" height="15.0" fill="rgb(239,159,38)" rx="2" ry="2" />
<text  x="865.53" y="415.5" >kthread</text>
</g>
<g >
<title>cgroup_rstat_flush (253,965,553 samples, 11.20%)</title><rect x="862.5" y="325" width="132.2" height="15.0" fill="rgb(216,54,12)" rx="2" ry="2" />
<text  x="865.53" y="335.5" >cgroup_rstat_flush</text>
</g>
<g >
<title>main (113,003,018 samples, 4.98%)</title><rect x="10.0" y="405" width="58.8" height="15.0" fill="rgb(243,179,42)" rx="2" ry="2" />
<text  x="13.00" y="415.5" >main</text>
</g>
<g >
<title>perf_evsel__run_ioctl (5,536,102 samples, 0.24%)</title><rect x="182.7" y="373" width="2.8" height="15.0" fill="rgb(245,184,44)" rx="2" ry="2" />
<text  x="185.65" y="383.5" ></text>
</g>
<g >
<title>kmalloc_reserve (196,229,804 samples, 8.65%)</title><rect x="760.4" y="261" width="102.1" height="15.0" fill="rgb(240,163,39)" rx="2" ry="2" />
<text  x="763.43" y="271.5" >kmalloc_rese..</text>
</g>
<g >
<title>pipe (456,601,788 samples, 20.13%)</title><rect x="185.5" y="453" width="237.6" height="15.0" fill="rgb(235,141,33)" rx="2" ry="2" />
<text  x="188.53" y="463.5" >pipe</text>
</g>
<g >
<title>__ioctl (5,536,102 samples, 0.24%)</title><rect x="182.7" y="341" width="2.8" height="15.0" fill="rgb(254,226,54)" rx="2" ry="2" />
<text  x="185.65" y="351.5" ></text>
</g>
<g >
<title>__update_blocked_fair (104,127,223 samples, 4.59%)</title><rect x="1135.8" y="133" width="54.2" height="15.0" fill="rgb(227,105,25)" rx="2" ry="2" />
<text  x="1138.82" y="143.5" >__upd..</text>
</g>
<g >
<title>do_idle (104,127,223 samples, 4.59%)</title><rect x="1135.8" y="325" width="54.2" height="15.0" fill="rgb(212,34,8)" rx="2" ry="2" />
<text  x="1138.82" y="335.5" >do_idle</text>
</g>
<g >
<title>x64_sys_call (113,003,018 samples, 4.98%)</title><rect x="10.0" y="261" width="58.8" height="15.0" fill="rgb(247,194,46)" rx="2" ry="2" />
<text  x="13.00" y="271.5" >x64_sy..</text>
</g>
<g >
<title>__wait4 (113,003,018 samples, 4.98%)</title><rect x="10.0" y="309" width="58.8" height="15.0" fill="rgb(227,102,24)" rx="2" ry="2" />
<text  x="13.00" y="319.5" >__wait4</text>
</g>
<g >
<title>x64_sys_call (218,817,569 samples, 9.65%)</title><rect x="68.8" y="325" width="113.9" height="15.0" fill="rgb(247,194,46)" rx="2" ry="2" />
<text  x="71.80" y="335.5" >x64_sys_call</text>
</g>
<g >
<title>call_cpuidle (271,266,833 samples, 11.96%)</title><rect x="994.7" y="357" width="141.1" height="15.0" fill="rgb(245,184,44)" rx="2" ry="2" />
<text  x="997.67" y="367.5" >call_cpuidle</text>
</g>
<g >
<title>__GI_execve (218,817,569 samples, 9.65%)</title><rect x="68.8" y="373" width="113.9" height="15.0" fill="rgb(207,13,3)" rx="2" ry="2" />
<text  x="71.80" y="383.5" >__GI_execve</text>
</g>
<g >
<title>x64_sys_call (415,403,104 samples, 18.32%)</title><rect x="646.4" y="405" width="216.1" height="15.0" fill="rgb(247,194,46)" rx="2" ry="2" />
<text  x="649.39" y="415.5" >x64_sys_call</text>
</g>
<g >
<title>asm_exc_page_fault (247,460,765 samples, 10.91%)</title><rect x="294.4" y="437" width="128.7" height="15.0" fill="rgb(225,93,22)" rx="2" ry="2" />
<text  x="297.36" y="447.5" >asm_exc_page_fault</text>
</g>
<g >
<title>__x64_sys_wait4 (113,003,018 samples, 4.98%)</title><rect x="10.0" y="245" width="58.8" height="15.0" fill="rgb(222,80,19)" rx="2" ry="2" />
<text  x="13.00" y="255.5" >__x64_..</text>
</g>
<g >
<title>ksys_write (415,403,104 samples, 18.32%)</title><rect x="646.4" y="373" width="216.1" height="15.0" fill="rgb(205,4,1)" rx="2" ry="2" />
<text  x="649.39" y="383.5" >ksys_write</text>
</g>
<g >
<title>ovl_read_iter (218,817,569 samples, 9.65%)</title><rect x="68.8" y="181" width="113.9" height="15.0" fill="rgb(231,120,28)" rx="2" ry="2" />
<text  x="71.80" y="191.5" >ovl_read_iter</text>
</g>
<g >
<title>cpuidle_enter_state (110,617,333 samples, 4.88%)</title><rect x="994.7" y="325" width="57.5" height="15.0" fill="rgb(221,73,17)" rx="2" ry="2" />
<text  x="997.67" y="335.5" >cpuidl..</text>
</g>
<g >
<title>kmalloc_slab (196,229,804 samples, 8.65%)</title><rect x="760.4" y="229" width="102.1" height="15.0" fill="rgb(225,95,22)" rx="2" ry="2" />
<text  x="763.43" y="239.5" >kmalloc_slab</text>
</g>
<g >
<title>flush_memcg_stats_dwork (253,965,553 samples, 11.20%)</title><rect x="862.5" y="357" width="132.2" height="15.0" fill="rgb(209,19,4)" rx="2" ry="2" />
<text  x="865.53" y="367.5" >flush_memcg_stat..</text>
</g>
<g >
<title>alloc_skb_with_frags (196,229,804 samples, 8.65%)</title><rect x="760.4" y="293" width="102.1" height="15.0" fill="rgb(228,107,25)" rx="2" ry="2" />
<text  x="763.43" y="303.5" >alloc_skb_wi..</text>
</g>
<g >
<title>__cmd_record.constprop.54 (218,817,569 samples, 9.65%)</title><rect x="68.8" y="421" width="113.9" height="15.0" fill="rgb(222,80,19)" rx="2" ry="2" />
<text  x="71.80" y="431.5" >__cmd_record.c..</text>
</g>
<g >
<title>_start (209,141,023 samples, 9.22%)</title><rect x="185.5" y="437" width="108.9" height="15.0" fill="rgb(245,185,44)" rx="2" ry="2" />
<text  x="188.53" y="447.5" >_start</text>
</g>
<g >
<title>swapper (1,473,861,248 samples, 64.99%)</title><rect x="423.1" y="453" width="766.9" height="15.0" fill="rgb(239,158,37)" rx="2" ry="2" />
<text  x="426.12" y="463.5" >swapper</text>
</g>
<g >
<title>do_syscall_64 (218,817,569 samples, 9.65%)</title><rect x="68.8" y="341" width="113.9" height="15.0" fill="rgb(209,20,4)" rx="2" ry="2" />
<text  x="71.80" y="351.5" >do_syscall_64</text>
</g>
<g >
<title>perf_ioctl (5,536,102 samples, 0.24%)</title><rect x="182.7" y="261" width="2.8" height="15.0" fill="rgb(246,191,45)" rx="2" ry="2" />
<text  x="185.65" y="271.5" ></text>
</g>
<g >
<title>__x64_sys_write (415,403,104 samples, 18.32%)</title><rect x="646.4" y="389" width="216.1" height="15.0" fill="rgb(246,189,45)" rx="2" ry="2" />
<text  x="649.39" y="399.5" >__x64_sys_write</text>
</g>
<g >
<title>inet_sendmsg (219,173,300 samples, 9.66%)</title><rect x="646.4" y="325" width="114.0" height="15.0" fill="rgb(244,183,43)" rx="2" ry="2" />
<text  x="649.39" y="335.5" >inet_sendmsg</text>
</g>
<g >
<title>__ext4_journal_start_sb (218,817,569 samples, 9.65%)</title><rect x="68.8" y="69" width="113.9" height="15.0" fill="rgb(222,81,19)" rx="2" ry="2" />
<text  x="71.80" y="79.5" >__ext4_journal..</text>
</g>
<g >
<title>entry_SYSCALL_64_after_hwframe (415,403,104 samples, 18.32%)</title><rect x="646.4" y="437" width="216.1" height="15.0" fill="rgb(218,63,15)" rx="2" ry="2" />
<text  x="649.39" y="447.5" >entry_SYSCALL_64_after_hwframe</text>
</g>
<g >
<title>__tcp_push_pending_frames (219,173,300 samples, 9.66%)</title><rect x="646.4" y="261" width="114.0" height="15.0" fill="rgb(230,117,28)" rx="2" ry="2" />
<text  x="649.39" y="271.5" >__tcp_push_pen..</text>
</g>
<g >
<title>tcp_push (219,173,300 samples, 9.66%)</title><rect x="646.4" y="277" width="114.0" height="15.0" fill="rgb(243,176,42)" rx="2" ry="2" />
<text  x="649.39" y="287.5" >tcp_push</text>
</g>
<g >
<title>__mark_inode_dirty (218,817,569 samples, 9.65%)</title><rect x="68.8" y="101" width="113.9" height="15.0" fill="rgb(254,227,54)" rx="2" ry="2" />
<text  x="71.80" y="111.5" >__mark_inode_d..</text>
</g>
<g >
<title>__libc_read (209,141,023 samples, 9.22%)</title><rect x="185.5" y="373" width="108.9" height="15.0" fill="rgb(212,34,8)" rx="2" ry="2" />
<text  x="188.53" y="383.5" >__libc_read</text>
</g>
<g >
<title>cpuidle_enter (104,127,223 samples, 4.59%)</title><rect x="1135.8" y="277" width="54.2" height="15.0" fill="rgb(205,1,0)" rx="2" ry="2" />
<text  x="1138.82" y="287.5" >cpuid..</text>
</g>
<g >
<title>tcp_sendmsg (219,173,300 samples, 9.66%)</title><rect x="646.4" y="309" width="114.0" height="15.0" fill="rgb(223,83,19)" rx="2" ry="2" />
<text  x="649.39" y="319.5" >tcp_sendmsg</text>
</g>
<g >
<title>evlist__enable (5,536,102 samples, 0.24%)</title><rect x="182.7" y="405" width="2.8" height="15.0" fill="rgb(230,116,27)" rx="2" ry="2" />
<text  x="185.65" y="415.5" ></text>
</g>
<g >
<title>unix_stream_sendmsg (196,229,804 samples, 8.65%)</title><rect x="760.4" y="325" width="102.1" height="15.0" fill="rgb(240,161,38)" rx="2" ry="2" />
<text  x="763.43" y="335.5" >unix_stream_..</text>
</g>
<g >
<title>perf-exec (218,817,569 samples, 9.65%)</title><rect x="68.8" y="453" width="113.9" height="15.0" fill="rgb(231,123,29)" rx="2" ry="2" />
<text  x="71.80" y="463.5" >perf-exec</text>
</g>
<g >
<title>entry_SYSCALL_64_after_hwframe (113,003,018 samples, 4.98%)</title><rect x="10.0" y="293" width="58.8" height="15.0" fill="rgb(218,63,15)" rx="2" ry="2" />
<text  x="13.00" y="303.5" >entry_..</text>
</g>
<g >
<title>wait_consider_task (113,003,018 samples, 4.98%)</title><rect x="10.0" y="181" width="58.8" height="15.0" fill="rgb(229,114,27)" rx="2" ry="2" />
<text  x="13.00" y="191.5" >wait_c..</text>
</g>
<g >
<title>tcp_sendmsg_locked (219,173,300 samples, 9.66%)</title><rect x="646.4" y="293" width="114.0" height="15.0" fill="rgb(215,48,11)" rx="2" ry="2" />
<text  x="649.39" y="303.5" >tcp_sendmsg_lo..</text>
</g>
<g >
<title>generic_exec_single (5,536,102 samples, 0.24%)</title><rect x="182.7" y="165" width="2.8" height="15.0" fill="rgb(234,134,32)" rx="2" ry="2" />
<text  x="185.65" y="175.5" ></text>
</g>
<g >
<title>cpuidle_enter_state (104,127,223 samples, 4.59%)</title><rect x="1135.8" y="261" width="54.2" height="15.0" fill="rgb(221,73,17)" rx="2" ry="2" />
<text  x="1138.82" y="271.5" >cpuid..</text>
</g>
<g >
<title>do_idle (271,266,833 samples, 11.96%)</title><rect x="994.7" y="389" width="141.1" height="15.0" fill="rgb(212,34,8)" rx="2" ry="2" />
<text  x="997.67" y="399.5" >do_idle</text>
</g>
<g >
<title>intel_idle (110,617,333 samples, 4.88%)</title><rect x="994.7" y="309" width="57.5" height="15.0" fill="rgb(237,147,35)" rx="2" ry="2" />
<text  x="997.67" y="319.5" >intel_..</text>
</g>
<g >
<title>execute_command (113,003,018 samples, 4.98%)</title><rect x="10.0" y="373" width="58.8" height="15.0" fill="rgb(224,90,21)" rx="2" ry="2" />
<text  x="13.00" y="383.5" >execut..</text>
</g>
<g >
<title>entry_SYSCALL_64_after_hwframe (218,817,569 samples, 9.65%)</title><rect x="68.8" y="357" width="113.9" height="15.0" fill="rgb(218,63,15)" rx="2" ry="2" />
<text  x="71.80" y="367.5" >entry_SYSCALL_..</text>
</g>
<g >
<title>ovl_update_time (218,817,569 samples, 9.65%)</title><rect x="68.8" y="133" width="113.9" height="15.0" fill="rgb(221,74,17)" rx="2" ry="2" />
<text  x="71.80" y="143.5" >ovl_update_time</text>
</g>
<g >
<title>all (2,267,819,725 samples, 100%)</title><rect x="10.0" y="469" width="1180.0" height="15.0" fill="rgb(213,39,9)" rx="2" ry="2" />
<text  x="13.00" y="479.5" ></text>
</g>
<g >
<title>exec_binprm (218,817,569 samples, 9.65%)</title><rect x="68.8" y="245" width="113.9" height="15.0" fill="rgb(244,180,43)" rx="2" ry="2" />
<text  x="71.80" y="255.5" >exec_binprm</text>
</g>
<g >
<title>[unknown] (5,536,102 samples, 0.24%)</title><rect x="182.7" y="437" width="2.8" height="15.0" fill="rgb(210,24,5)" rx="2" ry="2" />
<text  x="185.65" y="447.5" ></text>
</g>
<g >
<title>__task_pid_nr_ns (113,003,018 samples, 4.98%)</title><rect x="10.0" y="149" width="58.8" height="15.0" fill="rgb(236,146,34)" rx="2" ry="2" />
<text  x="13.00" y="159.5" >__task..</text>
</g>
<g >
<title>perf (5,536,102 samples, 0.24%)</title><rect x="182.7" y="453" width="2.8" height="15.0" fill="rgb(242,171,40)" rx="2" ry="2" />
<text  x="185.65" y="463.5" ></text>
</g>
<g >
<title>__perf_event_enable (5,536,102 samples, 0.24%)</title><rect x="182.7" y="117" width="2.8" height="15.0" fill="rgb(237,149,35)" rx="2" ry="2" />
<text  x="185.65" y="127.5" ></text>
</g>
<g >
<title>_start (113,003,018 samples, 4.98%)</title><rect x="10.0" y="437" width="58.8" height="15.0" fill="rgb(245,185,44)" rx="2" ry="2" />
<text  x="13.00" y="447.5" >_start</text>
</g>
<g >
<title>__irq_exit_rcu (104,127,223 samples, 4.59%)</title><rect x="1135.8" y="197" width="54.2" height="15.0" fill="rgb(227,101,24)" rx="2" ry="2" />
<text  x="1138.82" y="207.5" >__irq..</text>
</g>
<g >
<title>x64_sys_call (209,141,023 samples, 9.22%)</title><rect x="185.5" y="341" width="108.9" height="15.0" fill="rgb(247,194,46)" rx="2" ry="2" />
<text  x="188.53" y="351.5" >x64_sys_call</text>
</g>
<g >
<title>arch_call_rest_init (104,127,223 samples, 4.59%)</title><rect x="1135.8" y="373" width="54.2" height="15.0" fill="rgb(238,156,37)" rx="2" ry="2" />
<text  x="1138.82" y="383.5" >arch_..</text>
</g>
<g >
<title>__x64_sys_execve (218,817,569 samples, 9.65%)</title><rect x="68.8" y="309" width="113.9" height="15.0" fill="rgb(247,193,46)" rx="2" ry="2" />
<text  x="71.80" y="319.5" >__x64_sys_execve</text>
</g>
<g >
<title>evlist__prepare_workload (218,817,569 samples, 9.65%)</title><rect x="68.8" y="405" width="113.9" height="15.0" fill="rgb(237,149,35)" rx="2" ry="2" />
<text  x="71.80" y="415.5" >evlist__prepar..</text>
</g>
<g >
<title>bprm_execve (218,817,569 samples, 9.65%)</title><rect x="68.8" y="277" width="113.9" height="15.0" fill="rgb(218,61,14)" rx="2" ry="2" />
<text  x="71.80" y="287.5" >bprm_execve</text>
</g>
<g >
<title>parent (209,141,023 samples, 9.22%)</title><rect x="185.5" y="389" width="108.9" height="15.0" fill="rgb(214,44,10)" rx="2" ry="2" />
<text  x="188.53" y="399.5" >parent</text>
</g>
<g >
<title>remote_function (5,536,102 samples, 0.24%)</title><rect x="182.7" y="149" width="2.8" height="15.0" fill="rgb(217,59,14)" rx="2" ry="2" />
<text  x="185.65" y="159.5" ></text>
</g>
<g >
<title>touch_atime (218,817,569 samples, 9.65%)</title><rect x="68.8" y="149" width="113.9" height="15.0" fill="rgb(205,2,0)" rx="2" ry="2" />
<text  x="71.80" y="159.5" >touch_atime</text>
</g>
<g >
<title>ovl_file_accessed.part.0 (218,817,569 samples, 9.65%)</title><rect x="68.8" y="165" width="113.9" height="15.0" fill="rgb(239,157,37)" rx="2" ry="2" />
<text  x="71.80" y="175.5" >ovl_file_acces..</text>
</g>
<g >
<title>ret_from_fork (253,965,553 samples, 11.20%)</title><rect x="862.5" y="421" width="132.2" height="15.0" fill="rgb(227,105,25)" rx="2" ry="2" />
<text  x="865.53" y="431.5" >ret_from_fork</text>
</g>
<g >
<title>cpuidle_enter (271,266,833 samples, 11.96%)</title><rect x="994.7" y="341" width="141.1" height="15.0" fill="rgb(205,1,0)" rx="2" ry="2" />
<text  x="997.67" y="351.5" >cpuidle_enter</text>
</g>
<g >
<title>search_binary_handler (218,817,569 samples, 9.65%)</title><rect x="68.8" y="229" width="113.9" height="15.0" fill="rgb(208,14,3)" rx="2" ry="2" />
<text  x="71.80" y="239.5" >search_binary_..</text>
</g>
</g>
</svg>
