<?xml version="1.0" standalone="no"?>
<!DOCTYPE svg PUBLIC "-//W3C//DTD SVG 1.1//EN" "http://www.w3.org/Graphics/SVG/1.1/DTD/svg11.dtd">
<svg version="1.1" width="1200" height="678" onload="init(evt)" viewBox="0 0 1200 678" xmlns="http://www.w3.org/2000/svg" xmlns:xlink="http://www.w3.org/1999/xlink">
<!-- Flame graph stack visualization. See https://github.com/brendangregg/FlameGraph for latest version, and http://www.brendangregg.com/flamegraphs.html for examples. -->
<!-- NOTES:  -->
<defs>
	<linearGradient id="background" y1="0" y2="1" x1="0" x2="0" >
		<stop stop-color="#eeeeee" offset="5%" />
		<stop stop-color="#eeeeb0" offset="95%" />
	</linearGradient>
</defs>
<style type="text/css">
	text { font-family:Verdana; font-size:12px; fill:rgb(0,0,0); }
	#search, #ignorecase { opacity:0.1; cursor:pointer; }
	#search:hover, #search.show, #ignorecase:hover, #ignorecase.show { opacity:1; }
	#subtitle { text-anchor:middle; font-color:rgb(160,160,160); }
	#title { text-anchor:middle; font-size:17px}
	#unzoom { cursor:pointer; }
	#frames > *:hover { stroke:black; stroke-width:0.5; cursor:pointer; }
	.hide { display:none; }
	.parent { opacity:0.5; }
</style>
<script type="text/ecmascript">
<![CDATA[
	"use strict";
	var details, searchbtn, unzoombtn, matchedtxt, svg, searching, currentSearchTerm, ignorecase, ignorecaseBtn;
	function init(evt) {
		details = document.getElementById("details").firstChild;
		searchbtn = document.getElementById("search");
		ignorecaseBtn = document.getElementById("ignorecase");
		unzoombtn = document.getElementById("unzoom");
		matchedtxt = document.getElementById("matched");
		svg = document.getElementsByTagName("svg")[0];
		searching = 0;
		currentSearchTerm = null;
	}

	window.addEventListener("click", function(e) {
		var target = find_group(e.target);
		if (target) {
			if (target.nodeName == "a") {
				if (e.ctrlKey === false) return;
				e.preventDefault();
			}
			if (target.classList.contains("parent")) unzoom();
			zoom(target);
		}
		else if (e.target.id == "unzoom") unzoom();
		else if (e.target.id == "search") search_prompt();
		else if (e.target.id == "ignorecase") toggle_ignorecase();
	}, false)

	// mouse-over for info
	// show
	window.addEventListener("mouseover", function(e) {
		var target = find_group(e.target);
		if (target) details.nodeValue = "Function: " + g_to_text(target);
	}, false)

	// clear
	window.addEventListener("mouseout", function(e) {
		var target = find_group(e.target);
		if (target) details.nodeValue = ' ';
	}, false)

	// ctrl-F for search
	window.addEventListener("keydown",function (e) {
		if (e.keyCode === 114 || (e.ctrlKey && e.keyCode === 70)) {
			e.preventDefault();
			search_prompt();
		}
	}, false)

	// ctrl-I to toggle case-sensitive search
	window.addEventListener("keydown",function (e) {
		if (e.ctrlKey && e.keyCode === 73) {
			e.preventDefault();
			toggle_ignorecase();
		}
	}, false)

	// functions
	function find_child(node, selector) {
		var children = node.querySelectorAll(selector);
		if (children.length) return children[0];
		return;
	}
	function find_group(node) {
		var parent = node.parentElement;
		if (!parent) return;
		if (parent.id == "frames") return node;
		return find_group(parent);
	}
	function orig_save(e, attr, val) {
		if (e.attributes["_orig_" + attr] != undefined) return;
		if (e.attributes[attr] == undefined) return;
		if (val == undefined) val = e.attributes[attr].value;
		e.setAttribute("_orig_" + attr, val);
	}
	function orig_load(e, attr) {
		if (e.attributes["_orig_"+attr] == undefined) return;
		e.attributes[attr].value = e.attributes["_orig_" + attr].value;
		e.removeAttribute("_orig_"+attr);
	}
	function g_to_text(e) {
		var text = find_child(e, "title").firstChild.nodeValue;
		return (text)
	}
	function g_to_func(e) {
		var func = g_to_text(e);
		// if there's any manipulation we want to do to the function
		// name before it's searched, do it here before returning.
		return (func);
	}
	function update_text(e) {
		var r = find_child(e, "rect");
		var t = find_child(e, "text");
		var w = parseFloat(r.attributes.width.value) -3;
		var txt = find_child(e, "title").textContent.replace(/\([^(]*\)$/,"");
		t.attributes.x.value = parseFloat(r.attributes.x.value) + 3;

		// Smaller than this size won't fit anything
		if (w < 2 * 12 * 0.59) {
			t.textContent = "";
			return;
		}

		t.textContent = txt;
		// Fit in full text width
		if (/^ *$/.test(txt) || t.getSubStringLength(0, txt.length) < w)
			return;

		for (var x = txt.length - 2; x > 0; x--) {
			if (t.getSubStringLength(0, x + 2) <= w) {
				t.textContent = txt.substring(0, x) + "..";
				return;
			}
		}
		t.textContent = "";
	}

	// zoom
	function zoom_reset(e) {
		if (e.attributes != undefined) {
			orig_load(e, "x");
			orig_load(e, "width");
		}
		if (e.childNodes == undefined) return;
		for (var i = 0, c = e.childNodes; i < c.length; i++) {
			zoom_reset(c[i]);
		}
	}
	function zoom_child(e, x, ratio) {
		if (e.attributes != undefined) {
			if (e.attributes.x != undefined) {
				orig_save(e, "x");
				e.attributes.x.value = (parseFloat(e.attributes.x.value) - x - 10) * ratio + 10;
				if (e.tagName == "text")
					e.attributes.x.value = find_child(e.parentNode, "rect[x]").attributes.x.value + 3;
			}
			if (e.attributes.width != undefined) {
				orig_save(e, "width");
				e.attributes.width.value = parseFloat(e.attributes.width.value) * ratio;
			}
		}

		if (e.childNodes == undefined) return;
		for (var i = 0, c = e.childNodes; i < c.length; i++) {
			zoom_child(c[i], x - 10, ratio);
		}
	}
	function zoom_parent(e) {
		if (e.attributes) {
			if (e.attributes.x != undefined) {
				orig_save(e, "x");
				e.attributes.x.value = 10;
			}
			if (e.attributes.width != undefined) {
				orig_save(e, "width");
				e.attributes.width.value = parseInt(svg.width.baseVal.value) - (10 * 2);
			}
		}
		if (e.childNodes == undefined) return;
		for (var i = 0, c = e.childNodes; i < c.length; i++) {
			zoom_parent(c[i]);
		}
	}
	function zoom(node) {
		var attr = find_child(node, "rect").attributes;
		var width = parseFloat(attr.width.value);
		var xmin = parseFloat(attr.x.value);
		var xmax = parseFloat(xmin + width);
		var ymin = parseFloat(attr.y.value);
		var ratio = (svg.width.baseVal.value - 2 * 10) / width;

		// XXX: Workaround for JavaScript float issues (fix me)
		var fudge = 0.0001;

		unzoombtn.classList.remove("hide");

		var el = document.getElementById("frames").children;
		for (var i = 0; i < el.length; i++) {
			var e = el[i];
			var a = find_child(e, "rect").attributes;
			var ex = parseFloat(a.x.value);
			var ew = parseFloat(a.width.value);
			var upstack;
			// Is it an ancestor
			if (0 == 0) {
				upstack = parseFloat(a.y.value) > ymin;
			} else {
				upstack = parseFloat(a.y.value) < ymin;
			}
			if (upstack) {
				// Direct ancestor
				if (ex <= xmin && (ex+ew+fudge) >= xmax) {
					e.classList.add("parent");
					zoom_parent(e);
					update_text(e);
				}
				// not in current path
				else
					e.classList.add("hide");
			}
			// Children maybe
			else {
				// no common path
				if (ex < xmin || ex + fudge >= xmax) {
					e.classList.add("hide");
				}
				else {
					zoom_child(e, xmin, ratio);
					update_text(e);
				}
			}
		}
		search();
	}
	function unzoom() {
		unzoombtn.classList.add("hide");
		var el = document.getElementById("frames").children;
		for(var i = 0; i < el.length; i++) {
			el[i].classList.remove("parent");
			el[i].classList.remove("hide");
			zoom_reset(el[i]);
			update_text(el[i]);
		}
		search();
	}

	// search
	function toggle_ignorecase() {
		ignorecase = !ignorecase;
		if (ignorecase) {
			ignorecaseBtn.classList.add("show");
		} else {
			ignorecaseBtn.classList.remove("show");
		}
		reset_search();
		search();
	}
	function reset_search() {
		var el = document.querySelectorAll("#frames rect");
		for (var i = 0; i < el.length; i++) {
			orig_load(el[i], "fill")
		}
	}
	function search_prompt() {
		if (!searching) {
			var term = prompt("Enter a search term (regexp " +
			    "allowed, eg: ^ext4_)"
			    + (ignorecase ? ", ignoring case" : "")
			    + "\nPress Ctrl-i to toggle case sensitivity", "");
			if (term != null) {
				currentSearchTerm = term;
				search();
			}
		} else {
			reset_search();
			searching = 0;
			currentSearchTerm = null;
			searchbtn.classList.remove("show");
			searchbtn.firstChild.nodeValue = "Search"
			matchedtxt.classList.add("hide");
			matchedtxt.firstChild.nodeValue = ""
		}
	}
	function search(term) {
		if (currentSearchTerm === null) return;
		var term = currentSearchTerm;

		var re = new RegExp(term, ignorecase ? 'i' : '');
		var el = document.getElementById("frames").children;
		var matches = new Object();
		var maxwidth = 0;
		for (var i = 0; i < el.length; i++) {
			var e = el[i];
			var func = g_to_func(e);
			var rect = find_child(e, "rect");
			if (func == null || rect == null)
				continue;

			// Save max width. Only works as we have a root frame
			var w = parseFloat(rect.attributes.width.value);
			if (w > maxwidth)
				maxwidth = w;

			if (func.match(re)) {
				// highlight
				var x = parseFloat(rect.attributes.x.value);
				orig_save(rect, "fill");
				rect.attributes.fill.value = "rgb(230,0,230)";

				// remember matches
				if (matches[x] == undefined) {
					matches[x] = w;
				} else {
					if (w > matches[x]) {
						// overwrite with parent
						matches[x] = w;
					}
				}
				searching = 1;
			}
		}
		if (!searching)
			return;

		searchbtn.classList.add("show");
		searchbtn.firstChild.nodeValue = "Reset Search";

		// calculate percent matched, excluding vertical overlap
		var count = 0;
		var lastx = -1;
		var lastw = 0;
		var keys = Array();
		for (k in matches) {
			if (matches.hasOwnProperty(k))
				keys.push(k);
		}
		// sort the matched frames by their x location
		// ascending, then width descending
		keys.sort(function(a, b){
			return a - b;
		});
		// Step through frames saving only the biggest bottom-up frames
		// thanks to the sort order. This relies on the tree property
		// where children are always smaller than their parents.
		var fudge = 0.0001;	// JavaScript floating point
		for (var k in keys) {
			var x = parseFloat(keys[k]);
			var w = matches[keys[k]];
			if (x >= lastx + lastw - fudge) {
				count += w;
				lastx = x;
				lastw = w;
			}
		}
		// display matched percent
		matchedtxt.classList.remove("hide");
		var pct = 100 * count / maxwidth;
		if (pct != 100) pct = pct.toFixed(1)
		matchedtxt.firstChild.nodeValue = "Matched: " + pct + "%";
	}
]]>
</script>
<rect x="0.0" y="0" width="1200.0" height="678.0" fill="url(#background)"  />
<text id="title" x="600.00" y="24" >Flame Graph</text>
<text id="details" x="10.00" y="661" > </text>
<text id="unzoom" x="10.00" y="24" class="hide">Reset Zoom</text>
<text id="search" x="1090.00" y="24" >Search</text>
<text id="ignorecase" x="1174.00" y="24" >ic</text>
<text id="matched" x="1090.00" y="661" > </text>
<g id="frames">
<g >
<title>[unknown] (1 samples, 0.68%)</title><rect x="10.0" y="533" width="8.0" height="15.0" fill="rgb(252,4,37)" rx="2" ry="2" />
<text  x="13.00" y="543.5" ></text>
</g>
<g >
<title>all (148 samples, 100%)</title><rect x="10.0" y="629" width="1180.0" height="15.0" fill="rgb(242,116,20)" rx="2" ry="2" />
<text  x="13.00" y="639.5" ></text>
</g>
<g >
<title>[unknown] (3 samples, 2.03%)</title><rect x="847.2" y="101" width="23.9" height="15.0" fill="rgb(248,210,50)" rx="2" ry="2" />
<text  x="850.16" y="111.5" >[..</text>
</g>
<g >
<title>[unknown] (6 samples, 4.05%)</title><rect x="871.1" y="485" width="47.8" height="15.0" fill="rgb(215,190,17)" rx="2" ry="2" />
<text  x="874.08" y="495.5" >[unk..</text>
</g>
<g >
<title>[unknown] (64 samples, 43.24%)</title><rect x="25.9" y="485" width="510.3" height="15.0" fill="rgb(216,204,34)" rx="2" ry="2" />
<text  x="28.95" y="495.5" >[unknown]</text>
</g>
<g >
<title>[unknown]  (36 samples, 24.32%)</title><rect x="584.1" y="549" width="287.0" height="15.0" fill="rgb(241,113,30)" rx="2" ry="2" />
<text  x="587.05" y="559.5" >[unknown] </text>
</g>
<g >
<title>__memmove_avx_unaligned_erms (23 samples, 15.54%)</title><rect x="687.7" y="245" width="183.4" height="15.0" fill="rgb(205,183,7)" rx="2" ry="2" />
<text  x="690.70" y="255.5" >__memmove_avx_unaligned..</text>
</g>
<g >
<title>[unknown] (2 samples, 1.35%)</title><rect x="1174.1" y="405" width="15.9" height="15.0" fill="rgb(254,71,28)" rx="2" ry="2" />
<text  x="1177.05" y="415.5" ></text>
</g>
<g >
<title>[unknown] (1 samples, 0.68%)</title><rect x="10.0" y="501" width="8.0" height="15.0" fill="rgb(233,208,40)" rx="2" ry="2" />
<text  x="13.00" y="511.5" ></text>
</g>
<g >
<title>[unknown] (7 samples, 4.73%)</title><rect x="815.3" y="133" width="55.8" height="15.0" fill="rgb(242,103,23)" rx="2" ry="2" />
<text  x="818.27" y="143.5" >[unkn..</text>
</g>
<g >
<title>lookdict_string.lto_priv.0 (3 samples, 2.03%)</title><rect x="918.9" y="581" width="23.9" height="15.0" fill="rgb(244,50,22)" rx="2" ry="2" />
<text  x="921.92" y="591.5" >l..</text>
</g>
<g >
<title>[unknown] (29 samples, 19.59%)</title><rect x="958.8" y="597" width="231.2" height="15.0" fill="rgb(210,187,28)" rx="2" ry="2" />
<text  x="961.78" y="607.5" >[unknown]</text>
</g>
<g >
<title>NaClVmCopyEntry (6 samples, 4.05%)</title><rect x="639.9" y="245" width="47.8" height="15.0" fill="rgb(228,228,17)" rx="2" ry="2" />
<text  x="642.86" y="255.5" >NaCl..</text>
</g>
<g >
<title>[sel_ldr] (29 samples, 19.59%)</title><rect x="639.9" y="405" width="231.2" height="15.0" fill="rgb(206,217,27)" rx="2" ry="2" />
<text  x="642.86" y="415.5" >[sel_ldr]</text>
</g>
<g >
<title>[unknown] (64 samples, 43.24%)</title><rect x="25.9" y="357" width="510.3" height="15.0" fill="rgb(246,139,39)" rx="2" ry="2" />
<text  x="28.95" y="367.5" >[unknown]</text>
</g>
<g >
<title>[unknown]  (29 samples, 19.59%)</title><rect x="639.9" y="437" width="231.2" height="15.0" fill="rgb(216,219,8)" rx="2" ry="2" />
<text  x="642.86" y="447.5" >[unknown] </text>
</g>
<g >
<title>[unknown] (10 samples, 6.76%)</title><rect x="791.4" y="149" width="79.7" height="15.0" fill="rgb(249,1,2)" rx="2" ry="2" />
<text  x="794.35" y="159.5" >[unknown]</text>
</g>
<g >
<title>NaClCopyExecutionContext (29 samples, 19.59%)</title><rect x="639.9" y="293" width="231.2" height="15.0" fill="rgb(252,75,13)" rx="2" ry="2" />
<text  x="642.86" y="303.5" >NaClCopyExecutionContext</text>
</g>
<g >
<title>[unknown] (28 samples, 18.92%)</title><rect x="966.8" y="549" width="223.2" height="15.0" fill="rgb(221,1,52)" rx="2" ry="2" />
<text  x="969.76" y="559.5" >[unknown]</text>
</g>
<g >
<title>perf_mmap__push (1 samples, 0.68%)</title><rect x="536.2" y="501" width="8.0" height="15.0" fill="rgb(209,90,28)" rx="2" ry="2" />
<text  x="539.22" y="511.5" ></text>
</g>
<g >
<title>[unknown] (1 samples, 0.68%)</title><rect x="1182.0" y="389" width="8.0" height="15.0" fill="rgb(248,188,49)" rx="2" ry="2" />
<text  x="1185.03" y="399.5" ></text>
</g>
<g >
<title>[unknown] (2 samples, 1.35%)</title><rect x="903.0" y="357" width="15.9" height="15.0" fill="rgb(216,33,41)" rx="2" ry="2" />
<text  x="905.97" y="367.5" ></text>
</g>
<g >
<title>NaClSysForkDecoder (29 samples, 19.59%)</title><rect x="639.9" y="373" width="231.2" height="15.0" fill="rgb(252,143,21)" rx="2" ry="2" />
<text  x="642.86" y="383.5" >NaClSysForkDecoder</text>
</g>
<g >
<title>cmd_record (65 samples, 43.92%)</title><rect x="25.9" y="533" width="518.3" height="15.0" fill="rgb(240,7,41)" rx="2" ry="2" />
<text  x="28.95" y="543.5" >cmd_record</text>
</g>
<g >
<title>[unknown]  (29 samples, 19.59%)</title><rect x="639.9" y="485" width="231.2" height="15.0" fill="rgb(231,166,21)" rx="2" ry="2" />
<text  x="642.86" y="495.5" >[unknown] </text>
</g>
<g >
<title>[unknown] (1 samples, 0.68%)</title><rect x="10.0" y="565" width="8.0" height="15.0" fill="rgb(236,100,16)" rx="2" ry="2" />
<text  x="13.00" y="575.5" ></text>
</g>
<g >
<title>sh (1 samples, 0.68%)</title><rect x="950.8" y="613" width="8.0" height="15.0" fill="rgb(239,154,16)" rx="2" ry="2" />
<text  x="953.81" y="623.5" ></text>
</g>
<g >
<title>[unknown] (11 samples, 7.43%)</title><rect x="783.4" y="197" width="87.7" height="15.0" fill="rgb(250,159,4)" rx="2" ry="2" />
<text  x="786.38" y="207.5" >[unknown]</text>
</g>
<g >
<title>[unknown] (66 samples, 44.59%)</title><rect x="18.0" y="597" width="526.2" height="15.0" fill="rgb(215,41,46)" rx="2" ry="2" />
<text  x="20.97" y="607.5" >[unknown]</text>
</g>
<g >
<title>[unknown] (64 samples, 43.24%)</title><rect x="25.9" y="437" width="510.3" height="15.0" fill="rgb(209,30,21)" rx="2" ry="2" />
<text  x="28.95" y="447.5" >[unknown]</text>
</g>
<g >
<title>[unknown] (5 samples, 3.38%)</title><rect x="1150.1" y="469" width="39.9" height="15.0" fill="rgb(209,90,40)" rx="2" ry="2" />
<text  x="1153.14" y="479.5" >[un..</text>
</g>
<g >
<title>[unknown] (27 samples, 18.24%)</title><rect x="974.7" y="501" width="215.3" height="15.0" fill="rgb(213,170,9)" rx="2" ry="2" />
<text  x="977.73" y="511.5" >[unknown]</text>
</g>
<g >
<title>[unknown] (28 samples, 18.92%)</title><rect x="966.8" y="533" width="223.2" height="15.0" fill="rgb(244,35,5)" rx="2" ry="2" />
<text  x="969.76" y="543.5" >[unknown]</text>
</g>
<g >
<title>[unknown] (64 samples, 43.24%)</title><rect x="25.9" y="213" width="510.3" height="15.0" fill="rgb(254,160,12)" rx="2" ry="2" />
<text  x="28.95" y="223.5" >[unknown]</text>
</g>
<g >
<title>[unknown] (64 samples, 43.24%)</title><rect x="25.9" y="341" width="510.3" height="15.0" fill="rgb(207,204,37)" rx="2" ry="2" />
<text  x="28.95" y="351.5" >[unknown]</text>
</g>
<g >
<title>NaClForkThreadContextSetup (29 samples, 19.59%)</title><rect x="639.9" y="309" width="231.2" height="15.0" fill="rgb(209,46,13)" rx="2" ry="2" />
<text  x="642.86" y="319.5" >NaClForkThreadContextSetup</text>
</g>
<g >
<title>[unknown] (1 samples, 0.68%)</title><rect x="863.1" y="69" width="8.0" height="15.0" fill="rgb(213,65,34)" rx="2" ry="2" />
<text  x="866.11" y="79.5" ></text>
</g>
<g >
<title>[unknown] (2 samples, 1.35%)</title><rect x="903.0" y="373" width="15.9" height="15.0" fill="rgb(212,110,2)" rx="2" ry="2" />
<text  x="905.97" y="383.5" ></text>
</g>
<g >
<title>NaClSysFork (29 samples, 19.59%)</title><rect x="639.9" y="357" width="231.2" height="15.0" fill="rgb(231,122,36)" rx="2" ry="2" />
<text  x="642.86" y="367.5" >NaClSysFork</text>
</g>
<g >
<title>[unknown] (1 samples, 0.68%)</title><rect x="910.9" y="277" width="8.0" height="15.0" fill="rgb(240,41,22)" rx="2" ry="2" />
<text  x="913.95" y="287.5" ></text>
</g>
<g >
<title>[unknown] (1 samples, 0.68%)</title><rect x="950.8" y="597" width="8.0" height="15.0" fill="rgb(233,163,47)" rx="2" ry="2" />
<text  x="953.81" y="607.5" ></text>
</g>
<g >
<title>[unknown] (11 samples, 7.43%)</title><rect x="783.4" y="213" width="87.7" height="15.0" fill="rgb(233,10,29)" rx="2" ry="2" />
<text  x="786.38" y="223.5" >[unknown]</text>
</g>
<g >
<title>[unknown] (1 samples, 0.68%)</title><rect x="536.2" y="437" width="8.0" height="15.0" fill="rgb(209,173,41)" rx="2" ry="2" />
<text  x="539.22" y="447.5" ></text>
</g>
<g >
<title>NaClCreateThread (29 samples, 19.59%)</title><rect x="639.9" y="341" width="231.2" height="15.0" fill="rgb(229,199,10)" rx="2" ry="2" />
<text  x="642.86" y="351.5" >NaClCreateThread</text>
</g>
<g >
<title>PyObject_Malloc (1 samples, 0.68%)</title><rect x="544.2" y="597" width="8.0" height="15.0" fill="rgb(206,105,50)" rx="2" ry="2" />
<text  x="547.19" y="607.5" ></text>
</g>
<g >
<title>[unknown] (1 samples, 0.68%)</title><rect x="10.0" y="549" width="8.0" height="15.0" fill="rgb(244,83,43)" rx="2" ry="2" />
<text  x="13.00" y="559.5" ></text>
</g>
<g >
<title>sel_ldr (51 samples, 34.46%)</title><rect x="544.2" y="613" width="406.6" height="15.0" fill="rgb(232,6,34)" rx="2" ry="2" />
<text  x="547.19" y="623.5" >sel_ldr</text>
</g>
<g >
<title>__libc_start_main (65 samples, 43.92%)</title><rect x="25.9" y="581" width="518.3" height="15.0" fill="rgb(234,176,25)" rx="2" ry="2" />
<text  x="28.95" y="591.5" >__libc_start_main</text>
</g>
<g >
<title>[unknown] (2 samples, 1.35%)</title><rect x="903.0" y="341" width="15.9" height="15.0" fill="rgb(249,100,54)" rx="2" ry="2" />
<text  x="905.97" y="351.5" ></text>
</g>
<g >
<title>[unknown] (2 samples, 1.35%)</title><rect x="1174.1" y="421" width="15.9" height="15.0" fill="rgb(211,83,23)" rx="2" ry="2" />
<text  x="1177.05" y="431.5" ></text>
</g>
<g >
<title>[unknown] (10 samples, 6.76%)</title><rect x="791.4" y="181" width="79.7" height="15.0" fill="rgb(210,159,9)" rx="2" ry="2" />
<text  x="794.35" y="191.5" >[unknown]</text>
</g>
<g >
<title>[unknown] (2 samples, 1.35%)</title><rect x="855.1" y="85" width="16.0" height="15.0" fill="rgb(228,69,9)" rx="2" ry="2" />
<text  x="858.14" y="95.5" ></text>
</g>
<g >
<title>[unknown] (6 samples, 4.05%)</title><rect x="871.1" y="437" width="47.8" height="15.0" fill="rgb(215,34,31)" rx="2" ry="2" />
<text  x="874.08" y="447.5" >[unk..</text>
</g>
<g >
<title>__libc_fork (1 samples, 0.68%)</title><rect x="10.0" y="597" width="8.0" height="15.0" fill="rgb(223,47,21)" rx="2" ry="2" />
<text  x="13.00" y="607.5" ></text>
</g>
<g >
<title>[unknown] (45 samples, 30.41%)</title><rect x="560.1" y="581" width="358.8" height="15.0" fill="rgb(211,37,20)" rx="2" ry="2" />
<text  x="563.14" y="591.5" >[unknown]</text>
</g>
<g >
<title>[unknown] (4 samples, 2.70%)</title><rect x="1158.1" y="453" width="31.9" height="15.0" fill="rgb(207,116,49)" rx="2" ry="2" />
<text  x="1161.11" y="463.5" >[u..</text>
</g>
<g >
<title>perf (66 samples, 44.59%)</title><rect x="18.0" y="613" width="526.2" height="15.0" fill="rgb(233,151,36)" rx="2" ry="2" />
<text  x="20.97" y="623.5" >perf</text>
</g>
<g >
<title>[unknown] (64 samples, 43.24%)</title><rect x="25.9" y="277" width="510.3" height="15.0" fill="rgb(240,156,23)" rx="2" ry="2" />
<text  x="28.95" y="287.5" >[unknown]</text>
</g>
<g >
<title>[perf-3390.map] (36 samples, 24.32%)</title><rect x="584.1" y="565" width="287.0" height="15.0" fill="rgb(230,75,4)" rx="2" ry="2" />
<text  x="587.05" y="575.5" >[perf-3390.map]</text>
</g>
<g >
<title>[unknown] (28 samples, 18.92%)</title><rect x="966.8" y="565" width="223.2" height="15.0" fill="rgb(225,116,50)" rx="2" ry="2" />
<text  x="969.76" y="575.5" >[unknown]</text>
</g>
<g >
<title>[unknown] (64 samples, 43.24%)</title><rect x="25.9" y="373" width="510.3" height="15.0" fill="rgb(236,179,0)" rx="2" ry="2" />
<text  x="28.95" y="383.5" >[unknown]</text>
</g>
<g >
<title>NaClPatchAddr (6 samples, 4.05%)</title><rect x="639.9" y="229" width="47.8" height="15.0" fill="rgb(234,115,31)" rx="2" ry="2" />
<text  x="642.86" y="239.5" >NaCl..</text>
</g>
<g >
<title>[perf-3390.map] (2 samples, 1.35%)</title><rect x="584.1" y="501" width="15.9" height="15.0" fill="rgb(218,169,26)" rx="2" ry="2" />
<text  x="587.05" y="511.5" ></text>
</g>
<g >
<title>__GI___ioctl (64 samples, 43.24%)</title><rect x="25.9" y="501" width="510.3" height="15.0" fill="rgb(236,39,47)" rx="2" ry="2" />
<text  x="28.95" y="511.5" >__GI___ioctl</text>
</g>
<g >
<title>[unknown] (6 samples, 4.05%)</title><rect x="871.1" y="517" width="47.8" height="15.0" fill="rgb(240,78,46)" rx="2" ry="2" />
<text  x="874.08" y="527.5" >[unk..</text>
</g>
<g >
<title>[unknown] (1 samples, 0.68%)</title><rect x="910.9" y="293" width="8.0" height="15.0" fill="rgb(238,103,39)" rx="2" ry="2" />
<text  x="913.95" y="303.5" ></text>
</g>
<g >
<title>[unknown] (6 samples, 4.05%)</title><rect x="871.1" y="533" width="47.8" height="15.0" fill="rgb(238,214,22)" rx="2" ry="2" />
<text  x="874.08" y="543.5" >[unk..</text>
</g>
<g >
<title>run_builtin (65 samples, 43.92%)</title><rect x="25.9" y="549" width="518.3" height="15.0" fill="rgb(237,173,40)" rx="2" ry="2" />
<text  x="28.95" y="559.5" >run_builtin</text>
</g>
<g >
<title>[unknown] (1 samples, 0.68%)</title><rect x="536.2" y="453" width="8.0" height="15.0" fill="rgb(211,77,48)" rx="2" ry="2" />
<text  x="539.22" y="463.5" ></text>
</g>
<g >
<title>PyEval_EvalFrameEx (3 samples, 2.03%)</title><rect x="560.1" y="565" width="24.0" height="15.0" fill="rgb(215,65,42)" rx="2" ry="2" />
<text  x="563.14" y="575.5" >P..</text>
</g>
<g >
<title>[unknown] (6 samples, 4.05%)</title><rect x="871.1" y="469" width="47.8" height="15.0" fill="rgb(247,74,51)" rx="2" ry="2" />
<text  x="874.08" y="479.5" >[unk..</text>
</g>
<g >
<title>[unknown]  (29 samples, 19.59%)</title><rect x="639.9" y="469" width="231.2" height="15.0" fill="rgb(221,185,33)" rx="2" ry="2" />
<text  x="642.86" y="479.5" >[unknown] </text>
</g>
<g >
<title>swapper (29 samples, 19.59%)</title><rect x="958.8" y="613" width="231.2" height="15.0" fill="rgb(238,160,53)" rx="2" ry="2" />
<text  x="961.78" y="623.5" >swapper</text>
</g>
<g >
<title>[unknown] (1 samples, 0.68%)</title><rect x="10.0" y="485" width="8.0" height="15.0" fill="rgb(238,98,28)" rx="2" ry="2" />
<text  x="13.00" y="495.5" ></text>
</g>
<g >
<title>NaClVmmapVisit (29 samples, 19.59%)</title><rect x="639.9" y="261" width="231.2" height="15.0" fill="rgb(235,225,7)" rx="2" ry="2" />
<text  x="642.86" y="271.5" >NaClVmmapVisit</text>
</g>
<g >
<title>NaClCopyDynamicText (29 samples, 19.59%)</title><rect x="639.9" y="277" width="231.2" height="15.0" fill="rgb(221,88,3)" rx="2" ry="2" />
<text  x="642.86" y="287.5" >NaClCopyDynamicText</text>
</g>
<g >
<title>[unknown] (6 samples, 4.05%)</title><rect x="871.1" y="501" width="47.8" height="15.0" fill="rgb(233,111,14)" rx="2" ry="2" />
<text  x="874.08" y="511.5" >[unk..</text>
</g>
<g >
<title>[unknown] (64 samples, 43.24%)</title><rect x="25.9" y="421" width="510.3" height="15.0" fill="rgb(209,113,48)" rx="2" ry="2" />
<text  x="28.95" y="431.5" >[unknown]</text>
</g>
<g >
<title>[unknown] (1 samples, 0.68%)</title><rect x="1182.0" y="373" width="8.0" height="15.0" fill="rgb(223,38,24)" rx="2" ry="2" />
<text  x="1185.03" y="383.5" ></text>
</g>
<g >
<title>[unknown] (1 samples, 0.68%)</title><rect x="536.2" y="421" width="8.0" height="15.0" fill="rgb(228,208,17)" rx="2" ry="2" />
<text  x="539.22" y="431.5" ></text>
</g>
<g >
<title>[unknown] (1 samples, 0.68%)</title><rect x="863.1" y="37" width="8.0" height="15.0" fill="rgb(249,161,11)" rx="2" ry="2" />
<text  x="866.11" y="47.5" ></text>
</g>
<g >
<title>record__mmap_read_evlist.constprop.0 (1 samples, 0.68%)</title><rect x="536.2" y="517" width="8.0" height="15.0" fill="rgb(214,3,46)" rx="2" ry="2" />
<text  x="539.22" y="527.5" ></text>
</g>
<g >
<title>[unknown]  (34 samples, 22.97%)</title><rect x="600.0" y="501" width="271.1" height="15.0" fill="rgb(229,120,45)" rx="2" ry="2" />
<text  x="603.00" y="511.5" >[unknown] </text>
</g>
<g >
<title>[unknown] (64 samples, 43.24%)</title><rect x="25.9" y="453" width="510.3" height="15.0" fill="rgb(231,203,38)" rx="2" ry="2" />
<text  x="28.95" y="463.5" >[unknown]</text>
</g>
<g >
<title>[unknown] (64 samples, 43.24%)</title><rect x="25.9" y="309" width="510.3" height="15.0" fill="rgb(206,205,42)" rx="2" ry="2" />
<text  x="28.95" y="319.5" >[unknown]</text>
</g>
<g >
<title>main (65 samples, 43.92%)</title><rect x="25.9" y="565" width="518.3" height="15.0" fill="rgb(213,130,3)" rx="2" ry="2" />
<text  x="28.95" y="575.5" >main</text>
</g>
<g >
<title>perf_mmap__consume (1 samples, 0.68%)</title><rect x="536.2" y="485" width="8.0" height="15.0" fill="rgb(219,61,29)" rx="2" ry="2" />
<text  x="539.22" y="495.5" ></text>
</g>
<g >
<title>[unknown] (6 samples, 4.05%)</title><rect x="871.1" y="421" width="47.8" height="15.0" fill="rgb(233,155,5)" rx="2" ry="2" />
<text  x="874.08" y="431.5" >[unk..</text>
</g>
<g >
<title>[unknown] (4 samples, 2.70%)</title><rect x="1158.1" y="437" width="31.9" height="15.0" fill="rgb(222,152,28)" rx="2" ry="2" />
<text  x="1161.11" y="447.5" >[u..</text>
</g>
<g >
<title>[unknown] (64 samples, 43.24%)</title><rect x="25.9" y="293" width="510.3" height="15.0" fill="rgb(220,190,42)" rx="2" ry="2" />
<text  x="28.95" y="303.5" >[unknown]</text>
</g>
<g >
<title>[unknown]  (36 samples, 24.32%)</title><rect x="584.1" y="533" width="287.0" height="15.0" fill="rgb(238,13,31)" rx="2" ry="2" />
<text  x="587.05" y="543.5" >[unknown] </text>
</g>
<g >
<title>[unknown] (64 samples, 43.24%)</title><rect x="25.9" y="469" width="510.3" height="15.0" fill="rgb(220,143,47)" rx="2" ry="2" />
<text  x="28.95" y="479.5" >[unknown]</text>
</g>
<g >
<title>[unknown] (1 samples, 0.68%)</title><rect x="536.2" y="469" width="8.0" height="15.0" fill="rgb(231,166,50)" rx="2" ry="2" />
<text  x="539.22" y="479.5" ></text>
</g>
<g >
<title>[bash] (1 samples, 0.68%)</title><rect x="950.8" y="565" width="8.0" height="15.0" fill="rgb(221,140,33)" rx="2" ry="2" />
<text  x="953.81" y="575.5" ></text>
</g>
<g >
<title>[unknown] (6 samples, 4.05%)</title><rect x="871.1" y="453" width="47.8" height="15.0" fill="rgb(206,40,26)" rx="2" ry="2" />
<text  x="874.08" y="463.5" >[unk..</text>
</g>
<g >
<title>[unknown] (28 samples, 18.92%)</title><rect x="966.8" y="517" width="223.2" height="15.0" fill="rgb(232,95,24)" rx="2" ry="2" />
<text  x="969.76" y="527.5" >[unknown]</text>
</g>
<g >
<title>[unknown] (1 samples, 0.68%)</title><rect x="910.9" y="309" width="8.0" height="15.0" fill="rgb(248,162,9)" rx="2" ry="2" />
<text  x="913.95" y="319.5" ></text>
</g>
<g >
<title>[unknown] (28 samples, 18.92%)</title><rect x="966.8" y="581" width="223.2" height="15.0" fill="rgb(206,157,5)" rx="2" ry="2" />
<text  x="969.76" y="591.5" >[unknown]</text>
</g>
<g >
<title>[unknown] (64 samples, 43.24%)</title><rect x="25.9" y="261" width="510.3" height="15.0" fill="rgb(243,164,13)" rx="2" ry="2" />
<text  x="28.95" y="271.5" >[unknown]</text>
</g>
<g >
<title>[unknown]  (29 samples, 19.59%)</title><rect x="639.9" y="453" width="231.2" height="15.0" fill="rgb(234,210,35)" rx="2" ry="2" />
<text  x="642.86" y="463.5" >[unknown] </text>
</g>
<g >
<title>[unknown] (6 samples, 4.05%)</title><rect x="871.1" y="565" width="47.8" height="15.0" fill="rgb(238,114,34)" rx="2" ry="2" />
<text  x="874.08" y="575.5" >[unk..</text>
</g>
<g >
<title>[unknown]  (29 samples, 19.59%)</title><rect x="639.9" y="421" width="231.2" height="15.0" fill="rgb(234,137,35)" rx="2" ry="2" />
<text  x="642.86" y="431.5" >[unknown] </text>
</g>
<g >
<title>[unknown] (27 samples, 18.24%)</title><rect x="974.7" y="485" width="215.3" height="15.0" fill="rgb(246,193,46)" rx="2" ry="2" />
<text  x="977.73" y="495.5" >[unknown]</text>
</g>
<g >
<title>[unknown] (2 samples, 1.35%)</title><rect x="903.0" y="325" width="15.9" height="15.0" fill="rgb(218,166,53)" rx="2" ry="2" />
<text  x="905.97" y="335.5" ></text>
</g>
<g >
<title>[unknown] (5 samples, 3.38%)</title><rect x="831.2" y="117" width="39.9" height="15.0" fill="rgb(225,204,0)" rx="2" ry="2" />
<text  x="834.22" y="127.5" >[un..</text>
</g>
<g >
<title>[unknown] (4 samples, 2.70%)</title><rect x="887.0" y="405" width="31.9" height="15.0" fill="rgb(221,91,43)" rx="2" ry="2" />
<text  x="890.03" y="415.5" >[u..</text>
</g>
<g >
<title>[unknown]  (36 samples, 24.32%)</title><rect x="584.1" y="517" width="287.0" height="15.0" fill="rgb(229,74,12)" rx="2" ry="2" />
<text  x="587.05" y="527.5" >[unknown] </text>
</g>
<g >
<title>[unknown] (10 samples, 6.76%)</title><rect x="791.4" y="165" width="79.7" height="15.0" fill="rgb(250,149,29)" rx="2" ry="2" />
<text  x="794.35" y="175.5" >[unknown]</text>
</g>
<g >
<title>evlist__enable (64 samples, 43.24%)</title><rect x="25.9" y="517" width="510.3" height="15.0" fill="rgb(208,102,5)" rx="2" ry="2" />
<text  x="28.95" y="527.5" >evlist__enable</text>
</g>
<g >
<title>[unknown] (64 samples, 43.24%)</title><rect x="25.9" y="245" width="510.3" height="15.0" fill="rgb(224,114,44)" rx="2" ry="2" />
<text  x="28.95" y="255.5" >[unknown]</text>
</g>
<g >
<title>[unknown] (64 samples, 43.24%)</title><rect x="25.9" y="389" width="510.3" height="15.0" fill="rgb(231,161,4)" rx="2" ry="2" />
<text  x="28.95" y="399.5" >[unknown]</text>
</g>
<g >
<title>[unknown] (6 samples, 4.05%)</title><rect x="871.1" y="549" width="47.8" height="15.0" fill="rgb(248,135,14)" rx="2" ry="2" />
<text  x="874.08" y="559.5" >[unk..</text>
</g>
<g >
<title>NaClAppThreadSpawn (29 samples, 19.59%)</title><rect x="639.9" y="325" width="231.2" height="15.0" fill="rgb(238,175,23)" rx="2" ry="2" />
<text  x="642.86" y="335.5" >NaClAppThreadSpawn</text>
</g>
<g >
<title>[unknown] (64 samples, 43.24%)</title><rect x="25.9" y="405" width="510.3" height="15.0" fill="rgb(235,65,51)" rx="2" ry="2" />
<text  x="28.95" y="415.5" >[unknown]</text>
</g>
<g >
<title>[unknown] (48 samples, 32.43%)</title><rect x="560.1" y="597" width="382.7" height="15.0" fill="rgb(228,50,1)" rx="2" ry="2" />
<text  x="563.14" y="607.5" >[unknown]</text>
</g>
<g >
<title>[unknown] (64 samples, 43.24%)</title><rect x="25.9" y="325" width="510.3" height="15.0" fill="rgb(213,189,44)" rx="2" ry="2" />
<text  x="28.95" y="335.5" >[unknown]</text>
</g>
<g >
<title>[unknown] (64 samples, 43.24%)</title><rect x="25.9" y="229" width="510.3" height="15.0" fill="rgb(235,217,54)" rx="2" ry="2" />
<text  x="28.95" y="239.5" >[unknown]</text>
</g>
<g >
<title>[unknown] (1 samples, 0.68%)</title><rect x="863.1" y="53" width="8.0" height="15.0" fill="rgb(212,77,20)" rx="2" ry="2" />
<text  x="866.11" y="63.5" ></text>
</g>
<g >
<title>[unknown] (1 samples, 0.68%)</title><rect x="10.0" y="581" width="8.0" height="15.0" fill="rgb(233,224,3)" rx="2" ry="2" />
<text  x="13.00" y="591.5" ></text>
</g>
<g >
<title>[unknown] (1 samples, 0.68%)</title><rect x="950.8" y="581" width="8.0" height="15.0" fill="rgb(206,196,1)" rx="2" ry="2" />
<text  x="953.81" y="591.5" ></text>
</g>
<g >
<title>[unknown] (1 samples, 0.68%)</title><rect x="1182.0" y="357" width="8.0" height="15.0" fill="rgb(244,143,1)" rx="2" ry="2" />
<text  x="1185.03" y="367.5" ></text>
</g>
<g >
<title>[unknown] (3 samples, 2.03%)</title><rect x="895.0" y="389" width="23.9" height="15.0" fill="rgb(253,182,21)" rx="2" ry="2" />
<text  x="898.00" y="399.5" >[..</text>
</g>
<g >
<title>PySequence_GetSlice (1 samples, 0.68%)</title><rect x="552.2" y="597" width="7.9" height="15.0" fill="rgb(224,34,47)" rx="2" ry="2" />
<text  x="555.16" y="607.5" ></text>
</g>
<g >
<title>[unknown] (12 samples, 8.11%)</title><rect x="775.4" y="229" width="95.7" height="15.0" fill="rgb(214,116,48)" rx="2" ry="2" />
<text  x="778.41" y="239.5" >[unknown]</text>
</g>
<g >
<title>string_join.lto_priv.0 (1 samples, 0.68%)</title><rect x="942.8" y="597" width="8.0" height="15.0" fill="rgb(249,19,37)" rx="2" ry="2" />
<text  x="945.84" y="607.5" ></text>
</g>
<g >
<title>NaClSyscallCSegHook (29 samples, 19.59%)</title><rect x="639.9" y="389" width="231.2" height="15.0" fill="rgb(250,200,0)" rx="2" ry="2" />
<text  x="642.86" y="399.5" >NaClSyscallCSegHook</text>
</g>
<g >
<title>lind (1 samples, 0.68%)</title><rect x="10.0" y="613" width="8.0" height="15.0" fill="rgb(210,9,11)" rx="2" ry="2" />
<text  x="13.00" y="623.5" ></text>
</g>
<g >
<title>[unknown] (1 samples, 0.68%)</title><rect x="10.0" y="517" width="8.0" height="15.0" fill="rgb(243,111,17)" rx="2" ry="2" />
<text  x="13.00" y="527.5" ></text>
</g>
</g>
</svg>
