<?xml version="1.0" standalone="no"?>
<!DOCTYPE svg PUBLIC "-//W3C//DTD SVG 1.1//EN" "http://www.w3.org/Graphics/SVG/1.1/DTD/svg11.dtd">
<svg version="1.1" width="1200" height="662" onload="init(evt)" viewBox="0 0 1200 662" xmlns="http://www.w3.org/2000/svg" xmlns:xlink="http://www.w3.org/1999/xlink">
<!-- Flame graph stack visualization. See https://github.com/brendangregg/FlameGraph for latest version, and http://www.brendangregg.com/flamegraphs.html for examples. -->
<!-- NOTES:  -->
<defs>
	<linearGradient id="background" y1="0" y2="1" x1="0" x2="0" >
		<stop stop-color="#eeeeee" offset="5%" />
		<stop stop-color="#eeeeb0" offset="95%" />
	</linearGradient>
</defs>
<style type="text/css">
	text { font-family:Verdana; font-size:12px; fill:rgb(0,0,0); }
	#search, #ignorecase { opacity:0.1; cursor:pointer; }
	#search:hover, #search.show, #ignorecase:hover, #ignorecase.show { opacity:1; }
	#subtitle { text-anchor:middle; font-color:rgb(160,160,160); }
	#title { text-anchor:middle; font-size:17px}
	#unzoom { cursor:pointer; }
	#frames > *:hover { stroke:black; stroke-width:0.5; cursor:pointer; }
	.hide { display:none; }
	.parent { opacity:0.5; }
</style>
<script type="text/ecmascript">
<![CDATA[
	"use strict";
	var details, searchbtn, unzoombtn, matchedtxt, svg, searching, currentSearchTerm, ignorecase, ignorecaseBtn;
	function init(evt) {
		details = document.getElementById("details").firstChild;
		searchbtn = document.getElementById("search");
		ignorecaseBtn = document.getElementById("ignorecase");
		unzoombtn = document.getElementById("unzoom");
		matchedtxt = document.getElementById("matched");
		svg = document.getElementsByTagName("svg")[0];
		searching = 0;
		currentSearchTerm = null;
	}

	window.addEventListener("click", function(e) {
		var target = find_group(e.target);
		if (target) {
			if (target.nodeName == "a") {
				if (e.ctrlKey === false) return;
				e.preventDefault();
			}
			if (target.classList.contains("parent")) unzoom();
			zoom(target);
		}
		else if (e.target.id == "unzoom") unzoom();
		else if (e.target.id == "search") search_prompt();
		else if (e.target.id == "ignorecase") toggle_ignorecase();
	}, false)

	// mouse-over for info
	// show
	window.addEventListener("mouseover", function(e) {
		var target = find_group(e.target);
		if (target) details.nodeValue = "Function: " + g_to_text(target);
	}, false)

	// clear
	window.addEventListener("mouseout", function(e) {
		var target = find_group(e.target);
		if (target) details.nodeValue = ' ';
	}, false)

	// ctrl-F for search
	window.addEventListener("keydown",function (e) {
		if (e.keyCode === 114 || (e.ctrlKey && e.keyCode === 70)) {
			e.preventDefault();
			search_prompt();
		}
	}, false)

	// ctrl-I to toggle case-sensitive search
	window.addEventListener("keydown",function (e) {
		if (e.ctrlKey && e.keyCode === 73) {
			e.preventDefault();
			toggle_ignorecase();
		}
	}, false)

	// functions
	function find_child(node, selector) {
		var children = node.querySelectorAll(selector);
		if (children.length) return children[0];
		return;
	}
	function find_group(node) {
		var parent = node.parentElement;
		if (!parent) return;
		if (parent.id == "frames") return node;
		return find_group(parent);
	}
	function orig_save(e, attr, val) {
		if (e.attributes["_orig_" + attr] != undefined) return;
		if (e.attributes[attr] == undefined) return;
		if (val == undefined) val = e.attributes[attr].value;
		e.setAttribute("_orig_" + attr, val);
	}
	function orig_load(e, attr) {
		if (e.attributes["_orig_"+attr] == undefined) return;
		e.attributes[attr].value = e.attributes["_orig_" + attr].value;
		e.removeAttribute("_orig_"+attr);
	}
	function g_to_text(e) {
		var text = find_child(e, "title").firstChild.nodeValue;
		return (text)
	}
	function g_to_func(e) {
		var func = g_to_text(e);
		// if there's any manipulation we want to do to the function
		// name before it's searched, do it here before returning.
		return (func);
	}
	function update_text(e) {
		var r = find_child(e, "rect");
		var t = find_child(e, "text");
		var w = parseFloat(r.attributes.width.value) -3;
		var txt = find_child(e, "title").textContent.replace(/\([^(]*\)$/,"");
		t.attributes.x.value = parseFloat(r.attributes.x.value) + 3;

		// Smaller than this size won't fit anything
		if (w < 2 * 12 * 0.59) {
			t.textContent = "";
			return;
		}

		t.textContent = txt;
		// Fit in full text width
		if (/^ *$/.test(txt) || t.getSubStringLength(0, txt.length) < w)
			return;

		for (var x = txt.length - 2; x > 0; x--) {
			if (t.getSubStringLength(0, x + 2) <= w) {
				t.textContent = txt.substring(0, x) + "..";
				return;
			}
		}
		t.textContent = "";
	}

	// zoom
	function zoom_reset(e) {
		if (e.attributes != undefined) {
			orig_load(e, "x");
			orig_load(e, "width");
		}
		if (e.childNodes == undefined) return;
		for (var i = 0, c = e.childNodes; i < c.length; i++) {
			zoom_reset(c[i]);
		}
	}
	function zoom_child(e, x, ratio) {
		if (e.attributes != undefined) {
			if (e.attributes.x != undefined) {
				orig_save(e, "x");
				e.attributes.x.value = (parseFloat(e.attributes.x.value) - x - 10) * ratio + 10;
				if (e.tagName == "text")
					e.attributes.x.value = find_child(e.parentNode, "rect[x]").attributes.x.value + 3;
			}
			if (e.attributes.width != undefined) {
				orig_save(e, "width");
				e.attributes.width.value = parseFloat(e.attributes.width.value) * ratio;
			}
		}

		if (e.childNodes == undefined) return;
		for (var i = 0, c = e.childNodes; i < c.length; i++) {
			zoom_child(c[i], x - 10, ratio);
		}
	}
	function zoom_parent(e) {
		if (e.attributes) {
			if (e.attributes.x != undefined) {
				orig_save(e, "x");
				e.attributes.x.value = 10;
			}
			if (e.attributes.width != undefined) {
				orig_save(e, "width");
				e.attributes.width.value = parseInt(svg.width.baseVal.value) - (10 * 2);
			}
		}
		if (e.childNodes == undefined) return;
		for (var i = 0, c = e.childNodes; i < c.length; i++) {
			zoom_parent(c[i]);
		}
	}
	function zoom(node) {
		var attr = find_child(node, "rect").attributes;
		var width = parseFloat(attr.width.value);
		var xmin = parseFloat(attr.x.value);
		var xmax = parseFloat(xmin + width);
		var ymin = parseFloat(attr.y.value);
		var ratio = (svg.width.baseVal.value - 2 * 10) / width;

		// XXX: Workaround for JavaScript float issues (fix me)
		var fudge = 0.0001;

		unzoombtn.classList.remove("hide");

		var el = document.getElementById("frames").children;
		for (var i = 0; i < el.length; i++) {
			var e = el[i];
			var a = find_child(e, "rect").attributes;
			var ex = parseFloat(a.x.value);
			var ew = parseFloat(a.width.value);
			var upstack;
			// Is it an ancestor
			if (0 == 0) {
				upstack = parseFloat(a.y.value) > ymin;
			} else {
				upstack = parseFloat(a.y.value) < ymin;
			}
			if (upstack) {
				// Direct ancestor
				if (ex <= xmin && (ex+ew+fudge) >= xmax) {
					e.classList.add("parent");
					zoom_parent(e);
					update_text(e);
				}
				// not in current path
				else
					e.classList.add("hide");
			}
			// Children maybe
			else {
				// no common path
				if (ex < xmin || ex + fudge >= xmax) {
					e.classList.add("hide");
				}
				else {
					zoom_child(e, xmin, ratio);
					update_text(e);
				}
			}
		}
		search();
	}
	function unzoom() {
		unzoombtn.classList.add("hide");
		var el = document.getElementById("frames").children;
		for(var i = 0; i < el.length; i++) {
			el[i].classList.remove("parent");
			el[i].classList.remove("hide");
			zoom_reset(el[i]);
			update_text(el[i]);
		}
		search();
	}

	// search
	function toggle_ignorecase() {
		ignorecase = !ignorecase;
		if (ignorecase) {
			ignorecaseBtn.classList.add("show");
		} else {
			ignorecaseBtn.classList.remove("show");
		}
		reset_search();
		search();
	}
	function reset_search() {
		var el = document.querySelectorAll("#frames rect");
		for (var i = 0; i < el.length; i++) {
			orig_load(el[i], "fill")
		}
	}
	function search_prompt() {
		if (!searching) {
			var term = prompt("Enter a search term (regexp " +
			    "allowed, eg: ^ext4_)"
			    + (ignorecase ? ", ignoring case" : "")
			    + "\nPress Ctrl-i to toggle case sensitivity", "");
			if (term != null) {
				currentSearchTerm = term;
				search();
			}
		} else {
			reset_search();
			searching = 0;
			currentSearchTerm = null;
			searchbtn.classList.remove("show");
			searchbtn.firstChild.nodeValue = "Search"
			matchedtxt.classList.add("hide");
			matchedtxt.firstChild.nodeValue = ""
		}
	}
	function search(term) {
		if (currentSearchTerm === null) return;
		var term = currentSearchTerm;

		var re = new RegExp(term, ignorecase ? 'i' : '');
		var el = document.getElementById("frames").children;
		var matches = new Object();
		var maxwidth = 0;
		for (var i = 0; i < el.length; i++) {
			var e = el[i];
			var func = g_to_func(e);
			var rect = find_child(e, "rect");
			if (func == null || rect == null)
				continue;

			// Save max width. Only works as we have a root frame
			var w = parseFloat(rect.attributes.width.value);
			if (w > maxwidth)
				maxwidth = w;

			if (func.match(re)) {
				// highlight
				var x = parseFloat(rect.attributes.x.value);
				orig_save(rect, "fill");
				rect.attributes.fill.value = "rgb(230,0,230)";

				// remember matches
				if (matches[x] == undefined) {
					matches[x] = w;
				} else {
					if (w > matches[x]) {
						// overwrite with parent
						matches[x] = w;
					}
				}
				searching = 1;
			}
		}
		if (!searching)
			return;

		searchbtn.classList.add("show");
		searchbtn.firstChild.nodeValue = "Reset Search";

		// calculate percent matched, excluding vertical overlap
		var count = 0;
		var lastx = -1;
		var lastw = 0;
		var keys = Array();
		for (k in matches) {
			if (matches.hasOwnProperty(k))
				keys.push(k);
		}
		// sort the matched frames by their x location
		// ascending, then width descending
		keys.sort(function(a, b){
			return a - b;
		});
		// Step through frames saving only the biggest bottom-up frames
		// thanks to the sort order. This relies on the tree property
		// where children are always smaller than their parents.
		var fudge = 0.0001;	// JavaScript floating point
		for (var k in keys) {
			var x = parseFloat(keys[k]);
			var w = matches[keys[k]];
			if (x >= lastx + lastw - fudge) {
				count += w;
				lastx = x;
				lastw = w;
			}
		}
		// display matched percent
		matchedtxt.classList.remove("hide");
		var pct = 100 * count / maxwidth;
		if (pct != 100) pct = pct.toFixed(1)
		matchedtxt.firstChild.nodeValue = "Matched: " + pct + "%";
	}
]]>
</script>
<rect x="0.0" y="0" width="1200.0" height="662.0" fill="url(#background)"  />
<text id="title" x="600.00" y="24" >Flame Graph</text>
<text id="details" x="10.00" y="645" > </text>
<text id="unzoom" x="10.00" y="24" class="hide">Reset Zoom</text>
<text id="search" x="1090.00" y="24" >Search</text>
<text id="ignorecase" x="1174.00" y="24" >ic</text>
<text id="matched" x="1090.00" y="645" > </text>
<g id="frames">
<g >
<title>evlist__enable (64 samples, 48.12%)</title><rect x="27.7" y="501" width="567.9" height="15.0" fill="rgb(212,168,19)" rx="2" ry="2" />
<text  x="30.74" y="511.5" >evlist__enable</text>
</g>
<g >
<title>[unknown]  (28 samples, 21.05%)</title><rect x="684.3" y="421" width="248.4" height="15.0" fill="rgb(205,25,42)" rx="2" ry="2" />
<text  x="687.29" y="431.5" >[unknown] </text>
</g>
<g >
<title>[unknown] (1 samples, 0.75%)</title><rect x="10.0" y="581" width="8.9" height="15.0" fill="rgb(242,19,49)" rx="2" ry="2" />
<text  x="13.00" y="591.5" ></text>
</g>
<g >
<title>[unknown]  (28 samples, 21.05%)</title><rect x="684.3" y="405" width="248.4" height="15.0" fill="rgb(206,221,48)" rx="2" ry="2" />
<text  x="687.29" y="415.5" >[unknown] </text>
</g>
<g >
<title>NaClVmCopyEntry (6 samples, 4.51%)</title><rect x="693.2" y="229" width="53.2" height="15.0" fill="rgb(244,90,43)" rx="2" ry="2" />
<text  x="696.16" y="239.5" >NaClV..</text>
</g>
<g >
<title>[unknown] (64 samples, 48.12%)</title><rect x="27.7" y="309" width="567.9" height="15.0" fill="rgb(248,219,21)" rx="2" ry="2" />
<text  x="30.74" y="319.5" >[unknown]</text>
</g>
<g >
<title>[unknown] (4 samples, 3.01%)</title><rect x="879.5" y="117" width="35.5" height="15.0" fill="rgb(253,206,44)" rx="2" ry="2" />
<text  x="882.47" y="127.5" >[un..</text>
</g>
<g >
<title>PyEval_EvalFrameEx (1 samples, 0.75%)</title><rect x="666.5" y="549" width="8.9" height="15.0" fill="rgb(220,96,2)" rx="2" ry="2" />
<text  x="669.54" y="559.5" ></text>
</g>
<g >
<title>[unknown] (1 samples, 0.75%)</title><rect x="595.6" y="469" width="8.8" height="15.0" fill="rgb(248,10,39)" rx="2" ry="2" />
<text  x="598.56" y="479.5" ></text>
</g>
<g >
<title>run_builtin (1 samples, 0.75%)</title><rect x="595.6" y="549" width="8.8" height="15.0" fill="rgb(234,54,15)" rx="2" ry="2" />
<text  x="598.56" y="559.5" ></text>
</g>
<g >
<title>[unknown] (3 samples, 2.26%)</title><rect x="888.3" y="101" width="26.7" height="15.0" fill="rgb(210,229,28)" rx="2" ry="2" />
<text  x="891.35" y="111.5" >[..</text>
</g>
<g >
<title>[unknown] (1 samples, 0.75%)</title><rect x="1181.1" y="357" width="8.9" height="15.0" fill="rgb(242,201,13)" rx="2" ry="2" />
<text  x="1184.13" y="367.5" ></text>
</g>
<g >
<title>NaClPatchAddr (6 samples, 4.51%)</title><rect x="693.2" y="213" width="53.2" height="15.0" fill="rgb(220,28,16)" rx="2" ry="2" />
<text  x="696.16" y="223.5" >NaClP..</text>
</g>
<g >
<title>NaClDyncodeVisit (1 samples, 0.75%)</title><rect x="684.3" y="245" width="8.9" height="15.0" fill="rgb(245,204,28)" rx="2" ry="2" />
<text  x="687.29" y="255.5" ></text>
</g>
<g >
<title>[unknown] (1 samples, 0.75%)</title><rect x="684.3" y="117" width="8.9" height="15.0" fill="rgb(226,114,33)" rx="2" ry="2" />
<text  x="687.29" y="127.5" ></text>
</g>
<g >
<title>[unknown] (64 samples, 48.12%)</title><rect x="27.7" y="373" width="567.9" height="15.0" fill="rgb(245,124,21)" rx="2" ry="2" />
<text  x="30.74" y="383.5" >[unknown]</text>
</g>
<g >
<title>[unknown] (1 samples, 0.75%)</title><rect x="932.7" y="453" width="8.9" height="15.0" fill="rgb(206,61,35)" rx="2" ry="2" />
<text  x="935.71" y="463.5" ></text>
</g>
<g >
<title>[unknown] (64 samples, 48.12%)</title><rect x="27.7" y="229" width="567.9" height="15.0" fill="rgb(242,96,37)" rx="2" ry="2" />
<text  x="30.74" y="239.5" >[unknown]</text>
</g>
<g >
<title>NaClCopyDynamicText (26 samples, 19.55%)</title><rect x="684.3" y="261" width="230.7" height="15.0" fill="rgb(216,111,36)" rx="2" ry="2" />
<text  x="687.29" y="271.5" >NaClCopyDynamicText</text>
</g>
<g >
<title>all (133 samples, 100%)</title><rect x="10.0" y="613" width="1180.0" height="15.0" fill="rgb(236,195,39)" rx="2" ry="2" />
<text  x="13.00" y="623.5" ></text>
</g>
<g >
<title>perf (66 samples, 49.62%)</title><rect x="18.9" y="597" width="585.5" height="15.0" fill="rgb(230,132,40)" rx="2" ry="2" />
<text  x="21.87" y="607.5" >perf</text>
</g>
<g >
<title>swapper (25 samples, 18.80%)</title><rect x="968.2" y="597" width="221.8" height="15.0" fill="rgb(230,127,9)" rx="2" ry="2" />
<text  x="971.20" y="607.5" >swapper</text>
</g>
<g >
<title>[unknown] (1 samples, 0.75%)</title><rect x="906.1" y="53" width="8.9" height="15.0" fill="rgb(228,40,49)" rx="2" ry="2" />
<text  x="909.09" y="63.5" ></text>
</g>
<g >
<title>[unknown] (23 samples, 17.29%)</title><rect x="985.9" y="517" width="204.1" height="15.0" fill="rgb(244,53,42)" rx="2" ry="2" />
<text  x="988.94" y="527.5" >[unknown]</text>
</g>
<g >
<title>PyObject_Call (1 samples, 0.75%)</title><rect x="631.1" y="581" width="8.8" height="15.0" fill="rgb(251,144,17)" rx="2" ry="2" />
<text  x="634.05" y="591.5" ></text>
</g>
<g >
<title>[unknown] (65 samples, 48.87%)</title><rect x="18.9" y="581" width="576.7" height="15.0" fill="rgb(247,6,51)" rx="2" ry="2" />
<text  x="21.87" y="591.5" >[unknown]</text>
</g>
<g >
<title>[sel_ldr] (28 samples, 21.05%)</title><rect x="684.3" y="389" width="248.4" height="15.0" fill="rgb(254,173,37)" rx="2" ry="2" />
<text  x="687.29" y="399.5" >[sel_ldr]</text>
</g>
<g >
<title>[unknown] (24 samples, 18.05%)</title><rect x="977.1" y="565" width="212.9" height="15.0" fill="rgb(222,210,37)" rx="2" ry="2" />
<text  x="980.07" y="575.5" >[unknown]</text>
</g>
<g >
<title>[unknown] (1 samples, 0.75%)</title><rect x="1181.1" y="341" width="8.9" height="15.0" fill="rgb(247,124,28)" rx="2" ry="2" />
<text  x="1184.13" y="351.5" ></text>
</g>
<g >
<title>[unknown] (1 samples, 0.75%)</title><rect x="18.9" y="437" width="8.8" height="15.0" fill="rgb(225,145,20)" rx="2" ry="2" />
<text  x="21.87" y="447.5" ></text>
</g>
<g >
<title>[unknown] (64 samples, 48.12%)</title><rect x="27.7" y="421" width="567.9" height="15.0" fill="rgb(207,131,21)" rx="2" ry="2" />
<text  x="30.74" y="431.5" >[unknown]</text>
</g>
<g >
<title>[unknown] (1 samples, 0.75%)</title><rect x="18.9" y="421" width="8.8" height="15.0" fill="rgb(254,148,24)" rx="2" ry="2" />
<text  x="21.87" y="431.5" ></text>
</g>
<g >
<title>[unknown] (1 samples, 0.75%)</title><rect x="932.7" y="469" width="8.9" height="15.0" fill="rgb(228,132,23)" rx="2" ry="2" />
<text  x="935.71" y="479.5" ></text>
</g>
<g >
<title>[unknown] (1 samples, 0.75%)</title><rect x="595.6" y="453" width="8.8" height="15.0" fill="rgb(248,125,42)" rx="2" ry="2" />
<text  x="598.56" y="463.5" ></text>
</g>
<g >
<title>[unknown] (64 samples, 48.12%)</title><rect x="27.7" y="197" width="567.9" height="15.0" fill="rgb(221,9,13)" rx="2" ry="2" />
<text  x="30.74" y="207.5" >[unknown]</text>
</g>
<g >
<title>[unknown] (64 samples, 48.12%)</title><rect x="27.7" y="437" width="567.9" height="15.0" fill="rgb(223,85,20)" rx="2" ry="2" />
<text  x="30.74" y="447.5" >[unknown]</text>
</g>
<g >
<title>__libc_start_main (1 samples, 0.75%)</title><rect x="595.6" y="581" width="8.8" height="15.0" fill="rgb(254,119,25)" rx="2" ry="2" />
<text  x="598.56" y="591.5" ></text>
</g>
<g >
<title>__GI___ioctl (64 samples, 48.12%)</title><rect x="27.7" y="485" width="567.9" height="15.0" fill="rgb(243,93,36)" rx="2" ry="2" />
<text  x="30.74" y="495.5" >__GI___ioctl</text>
</g>
<g >
<title>NaClSyscallCSegHook (28 samples, 21.05%)</title><rect x="684.3" y="373" width="248.4" height="15.0" fill="rgb(207,132,51)" rx="2" ry="2" />
<text  x="687.29" y="383.5" >NaClSyscallCSegHook</text>
</g>
<g >
<title>[unknown]  (29 samples, 21.80%)</title><rect x="675.4" y="453" width="257.3" height="15.0" fill="rgb(205,11,49)" rx="2" ry="2" />
<text  x="678.41" y="463.5" >[unknown] </text>
</g>
<g >
<title>NaClPatchAddr (2 samples, 1.50%)</title><rect x="915.0" y="261" width="17.7" height="15.0" fill="rgb(224,18,35)" rx="2" ry="2" />
<text  x="917.96" y="271.5" ></text>
</g>
<g >
<title>[unknown] (3 samples, 2.26%)</title><rect x="1163.4" y="389" width="26.6" height="15.0" fill="rgb(232,80,24)" rx="2" ry="2" />
<text  x="1166.38" y="399.5" >[..</text>
</g>
<g >
<title>PyEval_EvalFrameEx (3 samples, 2.26%)</title><rect x="604.4" y="581" width="26.7" height="15.0" fill="rgb(220,47,35)" rx="2" ry="2" />
<text  x="607.44" y="591.5" >P..</text>
</g>
<g >
<title>[unknown] (1 samples, 0.75%)</title><rect x="906.1" y="69" width="8.9" height="15.0" fill="rgb(234,79,21)" rx="2" ry="2" />
<text  x="909.09" y="79.5" ></text>
</g>
<g >
<title>__memmove_avx_unaligned_erms (19 samples, 14.29%)</title><rect x="746.4" y="229" width="168.6" height="15.0" fill="rgb(245,54,11)" rx="2" ry="2" />
<text  x="749.39" y="239.5" >__memmove_avx_unalign..</text>
</g>
<g >
<title>[unknown] (64 samples, 48.12%)</title><rect x="27.7" y="261" width="567.9" height="15.0" fill="rgb(211,177,13)" rx="2" ry="2" />
<text  x="30.74" y="271.5" >[unknown]</text>
</g>
<g >
<title>[unknown] (1 samples, 0.75%)</title><rect x="932.7" y="501" width="8.9" height="15.0" fill="rgb(212,53,37)" rx="2" ry="2" />
<text  x="935.71" y="511.5" ></text>
</g>
<g >
<title>[unknown] (64 samples, 48.12%)</title><rect x="27.7" y="469" width="567.9" height="15.0" fill="rgb(245,73,40)" rx="2" ry="2" />
<text  x="30.74" y="479.5" >[unknown]</text>
</g>
<g >
<title>[unknown] (1 samples, 0.75%)</title><rect x="932.7" y="549" width="8.9" height="15.0" fill="rgb(253,189,43)" rx="2" ry="2" />
<text  x="935.71" y="559.5" ></text>
</g>
<g >
<title>sel_ldr (41 samples, 30.83%)</title><rect x="604.4" y="597" width="363.8" height="15.0" fill="rgb(250,61,36)" rx="2" ry="2" />
<text  x="607.44" y="607.5" >sel_ldr</text>
</g>
<g >
<title>[unknown] (1 samples, 0.75%)</title><rect x="932.7" y="405" width="8.9" height="15.0" fill="rgb(245,81,37)" rx="2" ry="2" />
<text  x="935.71" y="415.5" ></text>
</g>
<g >
<title>[unknown] (64 samples, 48.12%)</title><rect x="27.7" y="277" width="567.9" height="15.0" fill="rgb(208,149,51)" rx="2" ry="2" />
<text  x="30.74" y="287.5" >[unknown]</text>
</g>
<g >
<title>[unknown] (64 samples, 48.12%)</title><rect x="27.7" y="357" width="567.9" height="15.0" fill="rgb(217,154,48)" rx="2" ry="2" />
<text  x="30.74" y="367.5" >[unknown]</text>
</g>
<g >
<title>[unknown]  (29 samples, 21.80%)</title><rect x="675.4" y="485" width="257.3" height="15.0" fill="rgb(239,33,38)" rx="2" ry="2" />
<text  x="678.41" y="495.5" >[unknown] </text>
</g>
<g >
<title>[unknown] (1 samples, 0.75%)</title><rect x="595.6" y="485" width="8.8" height="15.0" fill="rgb(227,108,51)" rx="2" ry="2" />
<text  x="598.56" y="495.5" ></text>
</g>
<g >
<title>[unknown] (1 samples, 0.75%)</title><rect x="1181.1" y="373" width="8.9" height="15.0" fill="rgb(226,119,23)" rx="2" ry="2" />
<text  x="1184.13" y="383.5" ></text>
</g>
<g >
<title>NaClVmmapVisit (25 samples, 18.80%)</title><rect x="693.2" y="245" width="221.8" height="15.0" fill="rgb(224,228,17)" rx="2" ry="2" />
<text  x="696.16" y="255.5" >NaClVmmapVisit</text>
</g>
<g >
<title>[perf-3417.map] (29 samples, 21.80%)</title><rect x="675.4" y="549" width="257.3" height="15.0" fill="rgb(229,147,51)" rx="2" ry="2" />
<text  x="678.41" y="559.5" >[perf-3417.map]</text>
</g>
<g >
<title>__poll (1 samples, 0.75%)</title><rect x="18.9" y="501" width="8.8" height="15.0" fill="rgb(250,146,1)" rx="2" ry="2" />
<text  x="21.87" y="511.5" ></text>
</g>
<g >
<title>[unknown] (1 samples, 0.75%)</title><rect x="684.3" y="165" width="8.9" height="15.0" fill="rgb(252,102,19)" rx="2" ry="2" />
<text  x="687.29" y="175.5" ></text>
</g>
<g >
<title>[unknown] (1 samples, 0.75%)</title><rect x="906.1" y="37" width="8.9" height="15.0" fill="rgb(225,40,8)" rx="2" ry="2" />
<text  x="909.09" y="47.5" ></text>
</g>
<g >
<title>[unknown] (5 samples, 3.76%)</title><rect x="1145.6" y="421" width="44.4" height="15.0" fill="rgb(228,183,36)" rx="2" ry="2" />
<text  x="1148.64" y="431.5" >[unk..</text>
</g>
<g >
<title>[unknown] (64 samples, 48.12%)</title><rect x="27.7" y="341" width="567.9" height="15.0" fill="rgb(238,104,48)" rx="2" ry="2" />
<text  x="30.74" y="351.5" >[unknown]</text>
</g>
<g >
<title>__memmove_avx_unaligned_erms (1 samples, 0.75%)</title><rect x="684.3" y="229" width="8.9" height="15.0" fill="rgb(244,143,41)" rx="2" ry="2" />
<text  x="687.29" y="239.5" ></text>
</g>
<g >
<title>[unknown] (5 samples, 3.76%)</title><rect x="870.6" y="165" width="44.4" height="15.0" fill="rgb(250,10,35)" rx="2" ry="2" />
<text  x="873.60" y="175.5" >[unk..</text>
</g>
<g >
<title>[unknown] (6 samples, 4.51%)</title><rect x="1136.8" y="437" width="53.2" height="15.0" fill="rgb(234,160,32)" rx="2" ry="2" />
<text  x="1139.77" y="447.5" >[unkn..</text>
</g>
<g >
<title>cmd_record (65 samples, 48.87%)</title><rect x="18.9" y="517" width="576.7" height="15.0" fill="rgb(254,223,28)" rx="2" ry="2" />
<text  x="21.87" y="527.5" >cmd_record</text>
</g>
<g >
<title>[unknown] (1 samples, 0.75%)</title><rect x="932.7" y="325" width="8.9" height="15.0" fill="rgb(223,74,51)" rx="2" ry="2" />
<text  x="935.71" y="335.5" ></text>
</g>
<g >
<title>unset_bash_input (1 samples, 0.75%)</title><rect x="10.0" y="565" width="8.9" height="15.0" fill="rgb(254,134,3)" rx="2" ry="2" />
<text  x="13.00" y="575.5" ></text>
</g>
<g >
<title>NaClForkThreadContextSetup (28 samples, 21.05%)</title><rect x="684.3" y="293" width="248.4" height="15.0" fill="rgb(247,5,42)" rx="2" ry="2" />
<text  x="687.29" y="303.5" >NaClForkThreadContextSetup</text>
</g>
<g >
<title>[unknown] (1 samples, 0.75%)</title><rect x="595.6" y="405" width="8.8" height="15.0" fill="rgb(221,33,4)" rx="2" ry="2" />
<text  x="598.56" y="415.5" ></text>
</g>
<g >
<title>NaClSysFork (28 samples, 21.05%)</title><rect x="684.3" y="341" width="248.4" height="15.0" fill="rgb(206,188,5)" rx="2" ry="2" />
<text  x="687.29" y="351.5" >NaClSysFork</text>
</g>
<g >
<title>NaClSysForkDecoder (28 samples, 21.05%)</title><rect x="684.3" y="357" width="248.4" height="15.0" fill="rgb(211,226,26)" rx="2" ry="2" />
<text  x="687.29" y="367.5" >NaClSysForkDecoder</text>
</g>
<g >
<title>[unknown] (64 samples, 48.12%)</title><rect x="27.7" y="389" width="567.9" height="15.0" fill="rgb(252,189,6)" rx="2" ry="2" />
<text  x="30.74" y="399.5" >[unknown]</text>
</g>
<g >
<title>[unknown] (24 samples, 18.05%)</title><rect x="977.1" y="533" width="212.9" height="15.0" fill="rgb(238,226,34)" rx="2" ry="2" />
<text  x="980.07" y="543.5" >[unknown]</text>
</g>
<g >
<title>[unknown] (64 samples, 48.12%)</title><rect x="27.7" y="213" width="567.9" height="15.0" fill="rgb(225,112,13)" rx="2" ry="2" />
<text  x="30.74" y="223.5" >[unknown]</text>
</g>
<g >
<title>[unknown] (1 samples, 0.75%)</title><rect x="932.7" y="293" width="8.9" height="15.0" fill="rgb(236,27,25)" rx="2" ry="2" />
<text  x="935.71" y="303.5" ></text>
</g>
<g >
<title>[unknown] (1 samples, 0.75%)</title><rect x="932.7" y="485" width="8.9" height="15.0" fill="rgb(254,123,16)" rx="2" ry="2" />
<text  x="935.71" y="495.5" ></text>
</g>
<g >
<title>[unknown] (1 samples, 0.75%)</title><rect x="932.7" y="309" width="8.9" height="15.0" fill="rgb(209,181,20)" rx="2" ry="2" />
<text  x="935.71" y="319.5" ></text>
</g>
<g >
<title>[unknown] (1 samples, 0.75%)</title><rect x="684.3" y="213" width="8.9" height="15.0" fill="rgb(225,172,13)" rx="2" ry="2" />
<text  x="687.29" y="223.5" ></text>
</g>
<g >
<title>__libc_start_main (65 samples, 48.87%)</title><rect x="18.9" y="565" width="576.7" height="15.0" fill="rgb(253,167,1)" rx="2" ry="2" />
<text  x="21.87" y="575.5" >__libc_start_main</text>
</g>
<g >
<title>[unknown] (5 samples, 3.76%)</title><rect x="870.6" y="149" width="44.4" height="15.0" fill="rgb(251,120,20)" rx="2" ry="2" />
<text  x="873.60" y="159.5" >[unk..</text>
</g>
<g >
<title>__GI___execve (1 samples, 0.75%)</title><rect x="595.6" y="501" width="8.8" height="15.0" fill="rgb(207,36,21)" rx="2" ry="2" />
<text  x="598.56" y="511.5" ></text>
</g>
<g >
<title>[unknown] (23 samples, 17.29%)</title><rect x="985.9" y="501" width="204.1" height="15.0" fill="rgb(234,130,27)" rx="2" ry="2" />
<text  x="988.94" y="511.5" >[unknown]</text>
</g>
<g >
<title>PyDict_GetItem (1 samples, 0.75%)</title><rect x="639.9" y="565" width="8.9" height="15.0" fill="rgb(227,165,41)" rx="2" ry="2" />
<text  x="642.92" y="575.5" ></text>
</g>
<g >
<title>[unknown] (1 samples, 0.75%)</title><rect x="18.9" y="453" width="8.8" height="15.0" fill="rgb(253,66,32)" rx="2" ry="2" />
<text  x="21.87" y="463.5" ></text>
</g>
<g >
<title>[unknown]  (29 samples, 21.80%)</title><rect x="675.4" y="437" width="257.3" height="15.0" fill="rgb(242,192,15)" rx="2" ry="2" />
<text  x="678.41" y="447.5" >[unknown] </text>
</g>
<g >
<title>[unknown] (1 samples, 0.75%)</title><rect x="595.6" y="421" width="8.8" height="15.0" fill="rgb(252,21,26)" rx="2" ry="2" />
<text  x="598.56" y="431.5" ></text>
</g>
<g >
<title>[unknown] (24 samples, 18.05%)</title><rect x="977.1" y="549" width="212.9" height="15.0" fill="rgb(246,200,15)" rx="2" ry="2" />
<text  x="980.07" y="559.5" >[unknown]</text>
</g>
<g >
<title>[unknown] (1 samples, 0.75%)</title><rect x="684.3" y="149" width="8.9" height="15.0" fill="rgb(224,191,7)" rx="2" ry="2" />
<text  x="687.29" y="159.5" ></text>
</g>
<g >
<title>[unknown] (64 samples, 48.12%)</title><rect x="27.7" y="453" width="567.9" height="15.0" fill="rgb(237,144,17)" rx="2" ry="2" />
<text  x="30.74" y="463.5" >[unknown]</text>
</g>
<g >
<title>[unknown] (1 samples, 0.75%)</title><rect x="932.7" y="373" width="8.9" height="15.0" fill="rgb(232,54,52)" rx="2" ry="2" />
<text  x="935.71" y="383.5" ></text>
</g>
<g >
<title>main (1 samples, 0.75%)</title><rect x="595.6" y="565" width="8.8" height="15.0" fill="rgb(231,185,50)" rx="2" ry="2" />
<text  x="598.56" y="575.5" ></text>
</g>
<g >
<title>[unknown] (10 samples, 7.52%)</title><rect x="826.2" y="213" width="88.8" height="15.0" fill="rgb(231,28,20)" rx="2" ry="2" />
<text  x="829.24" y="223.5" >[unknown]</text>
</g>
<g >
<title>[unknown] (1 samples, 0.75%)</title><rect x="595.6" y="437" width="8.8" height="15.0" fill="rgb(220,194,11)" rx="2" ry="2" />
<text  x="598.56" y="447.5" ></text>
</g>
<g >
<title>__memmove_avx_unaligned_erms (1 samples, 0.75%)</title><rect x="941.6" y="565" width="8.9" height="15.0" fill="rgb(205,108,35)" rx="2" ry="2" />
<text  x="944.58" y="575.5" ></text>
</g>
<g >
<title>cmd_record (1 samples, 0.75%)</title><rect x="595.6" y="533" width="8.8" height="15.0" fill="rgb(238,126,47)" rx="2" ry="2" />
<text  x="598.56" y="543.5" ></text>
</g>
<g >
<title>[unknown] (25 samples, 18.80%)</title><rect x="968.2" y="581" width="221.8" height="15.0" fill="rgb(223,103,42)" rx="2" ry="2" />
<text  x="971.20" y="591.5" >[unknown]</text>
</g>
<g >
<title>[unknown] (4 samples, 3.01%)</title><rect x="1154.5" y="405" width="35.5" height="15.0" fill="rgb(233,135,23)" rx="2" ry="2" />
<text  x="1157.51" y="415.5" >[un..</text>
</g>
<g >
<title>[unknown]  (29 samples, 21.80%)</title><rect x="675.4" y="469" width="257.3" height="15.0" fill="rgb(241,111,46)" rx="2" ry="2" />
<text  x="678.41" y="479.5" >[unknown] </text>
</g>
<g >
<title>[unknown] (1 samples, 0.75%)</title><rect x="932.7" y="421" width="8.9" height="15.0" fill="rgb(233,160,10)" rx="2" ry="2" />
<text  x="935.71" y="431.5" ></text>
</g>
<g >
<title>[unknown] (5 samples, 3.76%)</title><rect x="870.6" y="133" width="44.4" height="15.0" fill="rgb(212,172,28)" rx="2" ry="2" />
<text  x="873.60" y="143.5" >[unk..</text>
</g>
<g >
<title>[unknown] (1 samples, 0.75%)</title><rect x="18.9" y="485" width="8.8" height="15.0" fill="rgb(213,146,32)" rx="2" ry="2" />
<text  x="21.87" y="495.5" ></text>
</g>
<g >
<title>[unknown]  (29 samples, 21.80%)</title><rect x="675.4" y="533" width="257.3" height="15.0" fill="rgb(219,111,24)" rx="2" ry="2" />
<text  x="678.41" y="543.5" >[unknown] </text>
</g>
<g >
<title>sem_wait@@GLIBC_2.2.5 (1 samples, 0.75%)</title><rect x="959.3" y="565" width="8.9" height="15.0" fill="rgb(225,44,7)" rx="2" ry="2" />
<text  x="962.32" y="575.5" ></text>
</g>
<g >
<title>PyEval_EvalFrameEx (1 samples, 0.75%)</title><rect x="648.8" y="565" width="8.9" height="15.0" fill="rgb(236,200,30)" rx="2" ry="2" />
<text  x="651.80" y="575.5" ></text>
</g>
<g >
<title>lind (1 samples, 0.75%)</title><rect x="10.0" y="597" width="8.9" height="15.0" fill="rgb(244,189,19)" rx="2" ry="2" />
<text  x="13.00" y="607.5" ></text>
</g>
<g >
<title>[unknown] (1 samples, 0.75%)</title><rect x="1181.1" y="325" width="8.9" height="15.0" fill="rgb(222,152,48)" rx="2" ry="2" />
<text  x="1184.13" y="335.5" ></text>
</g>
<g >
<title>[unknown] (1 samples, 0.75%)</title><rect x="595.6" y="373" width="8.8" height="15.0" fill="rgb(230,159,13)" rx="2" ry="2" />
<text  x="598.56" y="383.5" ></text>
</g>
<g >
<title>PyString_Concat (1 samples, 0.75%)</title><rect x="657.7" y="565" width="8.8" height="15.0" fill="rgb(229,186,38)" rx="2" ry="2" />
<text  x="660.67" y="575.5" ></text>
</g>
<g >
<title>[unknown] (1 samples, 0.75%)</title><rect x="932.7" y="437" width="8.9" height="15.0" fill="rgb(220,223,25)" rx="2" ry="2" />
<text  x="935.71" y="447.5" ></text>
</g>
<g >
<title>[unknown] (23 samples, 17.29%)</title><rect x="985.9" y="485" width="204.1" height="15.0" fill="rgb(247,193,20)" rx="2" ry="2" />
<text  x="988.94" y="495.5" >[unknown]</text>
</g>
<g >
<title>[unknown] (64 samples, 48.12%)</title><rect x="27.7" y="245" width="567.9" height="15.0" fill="rgb(247,1,50)" rx="2" ry="2" />
<text  x="30.74" y="255.5" >[unknown]</text>
</g>
<g >
<title>[unknown] (1 samples, 0.75%)</title><rect x="932.7" y="533" width="8.9" height="15.0" fill="rgb(252,125,50)" rx="2" ry="2" />
<text  x="935.71" y="543.5" ></text>
</g>
<g >
<title>[unknown] (1 samples, 0.75%)</title><rect x="684.3" y="133" width="8.9" height="15.0" fill="rgb(235,48,19)" rx="2" ry="2" />
<text  x="687.29" y="143.5" ></text>
</g>
<g >
<title>[unknown] (1 samples, 0.75%)</title><rect x="932.7" y="261" width="8.9" height="15.0" fill="rgb(227,160,34)" rx="2" ry="2" />
<text  x="935.71" y="271.5" ></text>
</g>
<g >
<title>[unknown]  (29 samples, 21.80%)</title><rect x="675.4" y="501" width="257.3" height="15.0" fill="rgb(212,128,47)" rx="2" ry="2" />
<text  x="678.41" y="511.5" >[unknown] </text>
</g>
<g >
<title>NaClAppThreadSpawn (28 samples, 21.05%)</title><rect x="684.3" y="309" width="248.4" height="15.0" fill="rgb(221,56,8)" rx="2" ry="2" />
<text  x="687.29" y="319.5" >NaClAppThreadSpawn</text>
</g>
<g >
<title>main (65 samples, 48.87%)</title><rect x="18.9" y="549" width="576.7" height="15.0" fill="rgb(216,164,0)" rx="2" ry="2" />
<text  x="21.87" y="559.5" >main</text>
</g>
<g >
<title>[unknown] (1 samples, 0.75%)</title><rect x="684.3" y="197" width="8.9" height="15.0" fill="rgb(229,31,4)" rx="2" ry="2" />
<text  x="687.29" y="207.5" ></text>
</g>
<g >
<title>[unknown] (1 samples, 0.75%)</title><rect x="595.6" y="341" width="8.8" height="15.0" fill="rgb(205,83,21)" rx="2" ry="2" />
<text  x="598.56" y="351.5" ></text>
</g>
<g >
<title>NaClCopyExecutionContext (28 samples, 21.05%)</title><rect x="684.3" y="277" width="248.4" height="15.0" fill="rgb(224,78,35)" rx="2" ry="2" />
<text  x="687.29" y="287.5" >NaClCopyExecutionContext</text>
</g>
<g >
<title>[unknown] (7 samples, 5.26%)</title><rect x="1127.9" y="453" width="62.1" height="15.0" fill="rgb(238,139,40)" rx="2" ry="2" />
<text  x="1130.89" y="463.5" >[unkno..</text>
</g>
<g >
<title>[unknown] (64 samples, 48.12%)</title><rect x="27.7" y="405" width="567.9" height="15.0" fill="rgb(205,227,12)" rx="2" ry="2" />
<text  x="30.74" y="415.5" >[unknown]</text>
</g>
<g >
<title>[unknown] (1 samples, 0.75%)</title><rect x="932.7" y="277" width="8.9" height="15.0" fill="rgb(228,81,0)" rx="2" ry="2" />
<text  x="935.71" y="287.5" ></text>
</g>
<g >
<title>[unknown] (1 samples, 0.75%)</title><rect x="595.6" y="389" width="8.8" height="15.0" fill="rgb(207,93,45)" rx="2" ry="2" />
<text  x="598.56" y="399.5" ></text>
</g>
<g >
<title>[unknown] (1 samples, 0.75%)</title><rect x="932.7" y="357" width="8.9" height="15.0" fill="rgb(248,55,3)" rx="2" ry="2" />
<text  x="935.71" y="367.5" ></text>
</g>
<g >
<title>[unknown] (8 samples, 6.02%)</title><rect x="844.0" y="197" width="71.0" height="15.0" fill="rgb(236,152,52)" rx="2" ry="2" />
<text  x="846.98" y="207.5" >[unknown]</text>
</g>
<g >
<title>[unknown] (37 samples, 27.82%)</title><rect x="639.9" y="581" width="328.3" height="15.0" fill="rgb(211,180,12)" rx="2" ry="2" />
<text  x="642.92" y="591.5" >[unknown]</text>
</g>
<g >
<title>run_builtin (65 samples, 48.87%)</title><rect x="18.9" y="533" width="576.7" height="15.0" fill="rgb(222,108,29)" rx="2" ry="2" />
<text  x="21.87" y="543.5" >run_builtin</text>
</g>
<g >
<title>[unknown] (1 samples, 0.75%)</title><rect x="18.9" y="469" width="8.8" height="15.0" fill="rgb(217,171,33)" rx="2" ry="2" />
<text  x="21.87" y="479.5" ></text>
</g>
<g >
<title>[unknown] (1 samples, 0.75%)</title><rect x="932.7" y="517" width="8.9" height="15.0" fill="rgb(231,81,14)" rx="2" ry="2" />
<text  x="935.71" y="527.5" ></text>
</g>
<g >
<title>[unknown] (1 samples, 0.75%)</title><rect x="906.1" y="85" width="8.9" height="15.0" fill="rgb(239,154,3)" rx="2" ry="2" />
<text  x="909.09" y="95.5" ></text>
</g>
<g >
<title>[unknown] (6 samples, 4.51%)</title><rect x="861.7" y="181" width="53.3" height="15.0" fill="rgb(209,33,54)" rx="2" ry="2" />
<text  x="864.73" y="191.5" >[unkn..</text>
</g>
<g >
<title>[unknown] (1 samples, 0.75%)</title><rect x="932.7" y="341" width="8.9" height="15.0" fill="rgb(242,158,12)" rx="2" ry="2" />
<text  x="935.71" y="351.5" ></text>
</g>
<g >
<title>frame_dealloc.lto_priv.0 (1 samples, 0.75%)</title><rect x="950.5" y="565" width="8.8" height="15.0" fill="rgb(231,200,16)" rx="2" ry="2" />
<text  x="953.45" y="575.5" ></text>
</g>
<g >
<title>[unknown] (31 samples, 23.31%)</title><rect x="666.5" y="565" width="275.1" height="15.0" fill="rgb(221,21,4)" rx="2" ry="2" />
<text  x="669.54" y="575.5" >[unknown]</text>
</g>
<g >
<title>perf_evlist__prepare_workload (1 samples, 0.75%)</title><rect x="595.6" y="517" width="8.8" height="15.0" fill="rgb(224,104,27)" rx="2" ry="2" />
<text  x="598.56" y="527.5" ></text>
</g>
<g >
<title>[unknown] (23 samples, 17.29%)</title><rect x="985.9" y="469" width="204.1" height="15.0" fill="rgb(222,72,22)" rx="2" ry="2" />
<text  x="988.94" y="479.5" >[unknown]</text>
</g>
<g >
<title>[unknown] (1 samples, 0.75%)</title><rect x="932.7" y="389" width="8.9" height="15.0" fill="rgb(213,53,47)" rx="2" ry="2" />
<text  x="935.71" y="399.5" ></text>
</g>
<g >
<title>[unknown] (1 samples, 0.75%)</title><rect x="595.6" y="357" width="8.8" height="15.0" fill="rgb(253,225,52)" rx="2" ry="2" />
<text  x="598.56" y="367.5" ></text>
</g>
<g >
<title>NaClCreateThread (28 samples, 21.05%)</title><rect x="684.3" y="325" width="248.4" height="15.0" fill="rgb(241,137,16)" rx="2" ry="2" />
<text  x="687.29" y="335.5" >NaClCreateThread</text>
</g>
<g >
<title>[unknown] (64 samples, 48.12%)</title><rect x="27.7" y="293" width="567.9" height="15.0" fill="rgb(210,44,46)" rx="2" ry="2" />
<text  x="30.74" y="303.5" >[unknown]</text>
</g>
<g >
<title>[unknown] (1 samples, 0.75%)</title><rect x="684.3" y="181" width="8.9" height="15.0" fill="rgb(244,153,17)" rx="2" ry="2" />
<text  x="687.29" y="191.5" ></text>
</g>
<g >
<title>[unknown]  (29 samples, 21.80%)</title><rect x="675.4" y="517" width="257.3" height="15.0" fill="rgb(230,29,38)" rx="2" ry="2" />
<text  x="678.41" y="527.5" >[unknown] </text>
</g>
<g >
<title>[unknown] (64 samples, 48.12%)</title><rect x="27.7" y="325" width="567.9" height="15.0" fill="rgb(253,193,16)" rx="2" ry="2" />
<text  x="30.74" y="335.5" >[unknown]</text>
</g>
</g>
</svg>
