<?xml version="1.0" standalone="no"?>
<!DOCTYPE svg PUBLIC "-//W3C//DTD SVG 1.1//EN" "http://www.w3.org/Graphics/SVG/1.1/DTD/svg11.dtd">
<svg version="1.1" width="1200" height="630" onload="init(evt)" viewBox="0 0 1200 630" xmlns="http://www.w3.org/2000/svg" xmlns:xlink="http://www.w3.org/1999/xlink">
<!-- Flame graph stack visualization. See https://github.com/brendangregg/FlameGraph for latest version, and http://www.brendangregg.com/flamegraphs.html for examples. -->
<!-- NOTES:  -->
<defs>
	<linearGradient id="background" y1="0" y2="1" x1="0" x2="0" >
		<stop stop-color="#eeeeee" offset="5%" />
		<stop stop-color="#eeeeb0" offset="95%" />
	</linearGradient>
</defs>
<style type="text/css">
	text { font-family:Verdana; font-size:12px; fill:rgb(0,0,0); }
	#search, #ignorecase { opacity:0.1; cursor:pointer; }
	#search:hover, #search.show, #ignorecase:hover, #ignorecase.show { opacity:1; }
	#subtitle { text-anchor:middle; font-color:rgb(160,160,160); }
	#title { text-anchor:middle; font-size:17px}
	#unzoom { cursor:pointer; }
	#frames > *:hover { stroke:black; stroke-width:0.5; cursor:pointer; }
	.hide { display:none; }
	.parent { opacity:0.5; }
</style>
<script type="text/ecmascript">
<![CDATA[
	"use strict";
	var details, searchbtn, unzoombtn, matchedtxt, svg, searching, currentSearchTerm, ignorecase, ignorecaseBtn;
	function init(evt) {
		details = document.getElementById("details").firstChild;
		searchbtn = document.getElementById("search");
		ignorecaseBtn = document.getElementById("ignorecase");
		unzoombtn = document.getElementById("unzoom");
		matchedtxt = document.getElementById("matched");
		svg = document.getElementsByTagName("svg")[0];
		searching = 0;
		currentSearchTerm = null;
	}

	window.addEventListener("click", function(e) {
		var target = find_group(e.target);
		if (target) {
			if (target.nodeName == "a") {
				if (e.ctrlKey === false) return;
				e.preventDefault();
			}
			if (target.classList.contains("parent")) unzoom();
			zoom(target);
		}
		else if (e.target.id == "unzoom") unzoom();
		else if (e.target.id == "search") search_prompt();
		else if (e.target.id == "ignorecase") toggle_ignorecase();
	}, false)

	// mouse-over for info
	// show
	window.addEventListener("mouseover", function(e) {
		var target = find_group(e.target);
		if (target) details.nodeValue = "Function: " + g_to_text(target);
	}, false)

	// clear
	window.addEventListener("mouseout", function(e) {
		var target = find_group(e.target);
		if (target) details.nodeValue = ' ';
	}, false)

	// ctrl-F for search
	window.addEventListener("keydown",function (e) {
		if (e.keyCode === 114 || (e.ctrlKey && e.keyCode === 70)) {
			e.preventDefault();
			search_prompt();
		}
	}, false)

	// ctrl-I to toggle case-sensitive search
	window.addEventListener("keydown",function (e) {
		if (e.ctrlKey && e.keyCode === 73) {
			e.preventDefault();
			toggle_ignorecase();
		}
	}, false)

	// functions
	function find_child(node, selector) {
		var children = node.querySelectorAll(selector);
		if (children.length) return children[0];
		return;
	}
	function find_group(node) {
		var parent = node.parentElement;
		if (!parent) return;
		if (parent.id == "frames") return node;
		return find_group(parent);
	}
	function orig_save(e, attr, val) {
		if (e.attributes["_orig_" + attr] != undefined) return;
		if (e.attributes[attr] == undefined) return;
		if (val == undefined) val = e.attributes[attr].value;
		e.setAttribute("_orig_" + attr, val);
	}
	function orig_load(e, attr) {
		if (e.attributes["_orig_"+attr] == undefined) return;
		e.attributes[attr].value = e.attributes["_orig_" + attr].value;
		e.removeAttribute("_orig_"+attr);
	}
	function g_to_text(e) {
		var text = find_child(e, "title").firstChild.nodeValue;
		return (text)
	}
	function g_to_func(e) {
		var func = g_to_text(e);
		// if there's any manipulation we want to do to the function
		// name before it's searched, do it here before returning.
		return (func);
	}
	function update_text(e) {
		var r = find_child(e, "rect");
		var t = find_child(e, "text");
		var w = parseFloat(r.attributes.width.value) -3;
		var txt = find_child(e, "title").textContent.replace(/\([^(]*\)$/,"");
		t.attributes.x.value = parseFloat(r.attributes.x.value) + 3;

		// Smaller than this size won't fit anything
		if (w < 2 * 12 * 0.59) {
			t.textContent = "";
			return;
		}

		t.textContent = txt;
		// Fit in full text width
		if (/^ *$/.test(txt) || t.getSubStringLength(0, txt.length) < w)
			return;

		for (var x = txt.length - 2; x > 0; x--) {
			if (t.getSubStringLength(0, x + 2) <= w) {
				t.textContent = txt.substring(0, x) + "..";
				return;
			}
		}
		t.textContent = "";
	}

	// zoom
	function zoom_reset(e) {
		if (e.attributes != undefined) {
			orig_load(e, "x");
			orig_load(e, "width");
		}
		if (e.childNodes == undefined) return;
		for (var i = 0, c = e.childNodes; i < c.length; i++) {
			zoom_reset(c[i]);
		}
	}
	function zoom_child(e, x, ratio) {
		if (e.attributes != undefined) {
			if (e.attributes.x != undefined) {
				orig_save(e, "x");
				e.attributes.x.value = (parseFloat(e.attributes.x.value) - x - 10) * ratio + 10;
				if (e.tagName == "text")
					e.attributes.x.value = find_child(e.parentNode, "rect[x]").attributes.x.value + 3;
			}
			if (e.attributes.width != undefined) {
				orig_save(e, "width");
				e.attributes.width.value = parseFloat(e.attributes.width.value) * ratio;
			}
		}

		if (e.childNodes == undefined) return;
		for (var i = 0, c = e.childNodes; i < c.length; i++) {
			zoom_child(c[i], x - 10, ratio);
		}
	}
	function zoom_parent(e) {
		if (e.attributes) {
			if (e.attributes.x != undefined) {
				orig_save(e, "x");
				e.attributes.x.value = 10;
			}
			if (e.attributes.width != undefined) {
				orig_save(e, "width");
				e.attributes.width.value = parseInt(svg.width.baseVal.value) - (10 * 2);
			}
		}
		if (e.childNodes == undefined) return;
		for (var i = 0, c = e.childNodes; i < c.length; i++) {
			zoom_parent(c[i]);
		}
	}
	function zoom(node) {
		var attr = find_child(node, "rect").attributes;
		var width = parseFloat(attr.width.value);
		var xmin = parseFloat(attr.x.value);
		var xmax = parseFloat(xmin + width);
		var ymin = parseFloat(attr.y.value);
		var ratio = (svg.width.baseVal.value - 2 * 10) / width;

		// XXX: Workaround for JavaScript float issues (fix me)
		var fudge = 0.0001;

		unzoombtn.classList.remove("hide");

		var el = document.getElementById("frames").children;
		for (var i = 0; i < el.length; i++) {
			var e = el[i];
			var a = find_child(e, "rect").attributes;
			var ex = parseFloat(a.x.value);
			var ew = parseFloat(a.width.value);
			var upstack;
			// Is it an ancestor
			if (0 == 0) {
				upstack = parseFloat(a.y.value) > ymin;
			} else {
				upstack = parseFloat(a.y.value) < ymin;
			}
			if (upstack) {
				// Direct ancestor
				if (ex <= xmin && (ex+ew+fudge) >= xmax) {
					e.classList.add("parent");
					zoom_parent(e);
					update_text(e);
				}
				// not in current path
				else
					e.classList.add("hide");
			}
			// Children maybe
			else {
				// no common path
				if (ex < xmin || ex + fudge >= xmax) {
					e.classList.add("hide");
				}
				else {
					zoom_child(e, xmin, ratio);
					update_text(e);
				}
			}
		}
		search();
	}
	function unzoom() {
		unzoombtn.classList.add("hide");
		var el = document.getElementById("frames").children;
		for(var i = 0; i < el.length; i++) {
			el[i].classList.remove("parent");
			el[i].classList.remove("hide");
			zoom_reset(el[i]);
			update_text(el[i]);
		}
		search();
	}

	// search
	function toggle_ignorecase() {
		ignorecase = !ignorecase;
		if (ignorecase) {
			ignorecaseBtn.classList.add("show");
		} else {
			ignorecaseBtn.classList.remove("show");
		}
		reset_search();
		search();
	}
	function reset_search() {
		var el = document.querySelectorAll("#frames rect");
		for (var i = 0; i < el.length; i++) {
			orig_load(el[i], "fill")
		}
	}
	function search_prompt() {
		if (!searching) {
			var term = prompt("Enter a search term (regexp " +
			    "allowed, eg: ^ext4_)"
			    + (ignorecase ? ", ignoring case" : "")
			    + "\nPress Ctrl-i to toggle case sensitivity", "");
			if (term != null) {
				currentSearchTerm = term;
				search();
			}
		} else {
			reset_search();
			searching = 0;
			currentSearchTerm = null;
			searchbtn.classList.remove("show");
			searchbtn.firstChild.nodeValue = "Search"
			matchedtxt.classList.add("hide");
			matchedtxt.firstChild.nodeValue = ""
		}
	}
	function search(term) {
		if (currentSearchTerm === null) return;
		var term = currentSearchTerm;

		var re = new RegExp(term, ignorecase ? 'i' : '');
		var el = document.getElementById("frames").children;
		var matches = new Object();
		var maxwidth = 0;
		for (var i = 0; i < el.length; i++) {
			var e = el[i];
			var func = g_to_func(e);
			var rect = find_child(e, "rect");
			if (func == null || rect == null)
				continue;

			// Save max width. Only works as we have a root frame
			var w = parseFloat(rect.attributes.width.value);
			if (w > maxwidth)
				maxwidth = w;

			if (func.match(re)) {
				// highlight
				var x = parseFloat(rect.attributes.x.value);
				orig_save(rect, "fill");
				rect.attributes.fill.value = "rgb(230,0,230)";

				// remember matches
				if (matches[x] == undefined) {
					matches[x] = w;
				} else {
					if (w > matches[x]) {
						// overwrite with parent
						matches[x] = w;
					}
				}
				searching = 1;
			}
		}
		if (!searching)
			return;

		searchbtn.classList.add("show");
		searchbtn.firstChild.nodeValue = "Reset Search";

		// calculate percent matched, excluding vertical overlap
		var count = 0;
		var lastx = -1;
		var lastw = 0;
		var keys = Array();
		for (k in matches) {
			if (matches.hasOwnProperty(k))
				keys.push(k);
		}
		// sort the matched frames by their x location
		// ascending, then width descending
		keys.sort(function(a, b){
			return a - b;
		});
		// Step through frames saving only the biggest bottom-up frames
		// thanks to the sort order. This relies on the tree property
		// where children are always smaller than their parents.
		var fudge = 0.0001;	// JavaScript floating point
		for (var k in keys) {
			var x = parseFloat(keys[k]);
			var w = matches[keys[k]];
			if (x >= lastx + lastw - fudge) {
				count += w;
				lastx = x;
				lastw = w;
			}
		}
		// display matched percent
		matchedtxt.classList.remove("hide");
		var pct = 100 * count / maxwidth;
		if (pct != 100) pct = pct.toFixed(1)
		matchedtxt.firstChild.nodeValue = "Matched: " + pct + "%";
	}
]]>
</script>
<rect x="0.0" y="0" width="1200.0" height="630.0" fill="url(#background)"  />
<text id="title" x="600.00" y="24" >Flame Graph</text>
<text id="details" x="10.00" y="613" > </text>
<text id="unzoom" x="10.00" y="24" class="hide">Reset Zoom</text>
<text id="search" x="1090.00" y="24" >Search</text>
<text id="ignorecase" x="1174.00" y="24" >ic</text>
<text id="matched" x="1090.00" y="613" > </text>
<g id="frames">
<g >
<title>NaClPatchOneTrampoline (1 samples, 0.79%)</title><rect x="674.9" y="197" width="9.4" height="15.0" fill="rgb(250,203,9)" rx="2" ry="2" />
<text  x="677.92" y="207.5" ></text>
</g>
<g >
<title>[unknown] (1 samples, 0.79%)</title><rect x="618.7" y="357" width="9.4" height="15.0" fill="rgb(228,141,23)" rx="2" ry="2" />
<text  x="621.73" y="367.5" ></text>
</g>
<g >
<title>all (126 samples, 100%)</title><rect x="10.0" y="581" width="1180.0" height="15.0" fill="rgb(254,74,29)" rx="2" ry="2" />
<text  x="13.00" y="591.5" ></text>
</g>
<g >
<title>[unknown] (64 samples, 50.79%)</title><rect x="19.4" y="293" width="599.3" height="15.0" fill="rgb(217,31,46)" rx="2" ry="2" />
<text  x="22.37" y="303.5" >[unknown]</text>
</g>
<g >
<title>[perf-3444.map] (1 samples, 0.79%)</title><rect x="665.6" y="357" width="9.3" height="15.0" fill="rgb(206,45,6)" rx="2" ry="2" />
<text  x="668.56" y="367.5" ></text>
</g>
<g >
<title>NaClSysFork (26 samples, 20.63%)</title><rect x="684.3" y="309" width="243.5" height="15.0" fill="rgb(243,71,27)" rx="2" ry="2" />
<text  x="687.29" y="319.5" >NaClSysFork</text>
</g>
<g >
<title>NaClVmCopyEntry (6 samples, 4.76%)</title><rect x="693.7" y="197" width="56.1" height="15.0" fill="rgb(209,220,49)" rx="2" ry="2" />
<text  x="696.65" y="207.5" >NaClV..</text>
</g>
<g >
<title>NaClSyscallCSegHook (1 samples, 0.79%)</title><rect x="674.9" y="325" width="9.4" height="15.0" fill="rgb(222,47,48)" rx="2" ry="2" />
<text  x="677.92" y="335.5" ></text>
</g>
<g >
<title>[unknown] (1 samples, 0.79%)</title><rect x="618.7" y="453" width="9.4" height="15.0" fill="rgb(235,162,13)" rx="2" ry="2" />
<text  x="621.73" y="463.5" ></text>
</g>
<g >
<title>[unknown] (2 samples, 1.59%)</title><rect x="1171.3" y="357" width="18.7" height="15.0" fill="rgb(209,162,15)" rx="2" ry="2" />
<text  x="1174.27" y="367.5" ></text>
</g>
<g >
<title>[unknown] (64 samples, 50.79%)</title><rect x="19.4" y="245" width="599.3" height="15.0" fill="rgb(214,120,10)" rx="2" ry="2" />
<text  x="22.37" y="255.5" >[unknown]</text>
</g>
<g >
<title>NaClSyscallCSegHook (26 samples, 20.63%)</title><rect x="684.3" y="341" width="243.5" height="15.0" fill="rgb(250,216,32)" rx="2" ry="2" />
<text  x="687.29" y="351.5" >NaClSyscallCSegHook</text>
</g>
<g >
<title>[unknown] (32 samples, 25.40%)</title><rect x="646.8" y="549" width="299.7" height="15.0" fill="rgb(242,149,41)" rx="2" ry="2" />
<text  x="649.83" y="559.5" >[unknown]</text>
</g>
<g >
<title>[unknown] (1 samples, 0.79%)</title><rect x="618.7" y="421" width="9.4" height="15.0" fill="rgb(215,96,53)" rx="2" ry="2" />
<text  x="621.73" y="431.5" ></text>
</g>
<g >
<title>[sel_ldr] (1 samples, 0.79%)</title><rect x="674.9" y="341" width="9.4" height="15.0" fill="rgb(212,219,19)" rx="2" ry="2" />
<text  x="677.92" y="351.5" ></text>
</g>
<g >
<title>[unknown] (26 samples, 20.63%)</title><rect x="946.5" y="485" width="243.5" height="15.0" fill="rgb(230,84,32)" rx="2" ry="2" />
<text  x="949.51" y="495.5" >[unknown]</text>
</g>
<g >
<title>[unknown] (1 samples, 0.79%)</title><rect x="10.0" y="485" width="9.4" height="15.0" fill="rgb(222,175,19)" rx="2" ry="2" />
<text  x="13.00" y="495.5" ></text>
</g>
<g >
<title>[unknown] (64 samples, 50.79%)</title><rect x="19.4" y="229" width="599.3" height="15.0" fill="rgb(230,216,19)" rx="2" ry="2" />
<text  x="22.37" y="239.5" >[unknown]</text>
</g>
<g >
<title>[unknown] (64 samples, 50.79%)</title><rect x="19.4" y="165" width="599.3" height="15.0" fill="rgb(229,110,21)" rx="2" ry="2" />
<text  x="22.37" y="175.5" >[unknown]</text>
</g>
<g >
<title>[unknown] (64 samples, 50.79%)</title><rect x="19.4" y="309" width="599.3" height="15.0" fill="rgb(221,110,53)" rx="2" ry="2" />
<text  x="22.37" y="319.5" >[unknown]</text>
</g>
<g >
<title>[unknown] (1 samples, 0.79%)</title><rect x="740.5" y="101" width="9.3" height="15.0" fill="rgb(205,100,3)" rx="2" ry="2" />
<text  x="743.48" y="111.5" ></text>
</g>
<g >
<title>[unknown] (64 samples, 50.79%)</title><rect x="19.4" y="277" width="599.3" height="15.0" fill="rgb(220,183,4)" rx="2" ry="2" />
<text  x="22.37" y="287.5" >[unknown]</text>
</g>
<g >
<title>[unknown] (64 samples, 50.79%)</title><rect x="19.4" y="341" width="599.3" height="15.0" fill="rgb(243,102,15)" rx="2" ry="2" />
<text  x="22.37" y="351.5" >[unknown]</text>
</g>
<g >
<title>_int_free (1 samples, 0.79%)</title><rect x="937.1" y="533" width="9.4" height="15.0" fill="rgb(217,108,33)" rx="2" ry="2" />
<text  x="940.14" y="543.5" ></text>
</g>
<g >
<title>[perf-3444.map] (1 samples, 0.79%)</title><rect x="674.9" y="357" width="9.4" height="15.0" fill="rgb(219,2,19)" rx="2" ry="2" />
<text  x="677.92" y="367.5" ></text>
</g>
<g >
<title>[unknown] (5 samples, 3.97%)</title><rect x="1143.2" y="421" width="46.8" height="15.0" fill="rgb(238,202,40)" rx="2" ry="2" />
<text  x="1146.17" y="431.5" >[unk..</text>
</g>
<g >
<title>__GI___execve (1 samples, 0.79%)</title><rect x="618.7" y="469" width="9.4" height="15.0" fill="rgb(212,67,28)" rx="2" ry="2" />
<text  x="621.73" y="479.5" ></text>
</g>
<g >
<title>[unknown] (64 samples, 50.79%)</title><rect x="19.4" y="213" width="599.3" height="15.0" fill="rgb(244,167,45)" rx="2" ry="2" />
<text  x="22.37" y="223.5" >[unknown]</text>
</g>
<g >
<title>NaClLoadTrampoline (1 samples, 0.79%)</title><rect x="674.9" y="213" width="9.4" height="15.0" fill="rgb(226,160,15)" rx="2" ry="2" />
<text  x="677.92" y="223.5" ></text>
</g>
<g >
<title>[unknown] (12 samples, 9.52%)</title><rect x="815.4" y="165" width="112.4" height="15.0" fill="rgb(251,75,16)" rx="2" ry="2" />
<text  x="818.40" y="175.5" >[unknown]</text>
</g>
<g >
<title>[unknown] (29 samples, 23.02%)</title><rect x="656.2" y="533" width="271.6" height="15.0" fill="rgb(226,163,6)" rx="2" ry="2" />
<text  x="659.19" y="543.5" >[unknown]</text>
</g>
<g >
<title>[sel_ldr] (1 samples, 0.79%)</title><rect x="665.6" y="341" width="9.3" height="15.0" fill="rgb(239,141,40)" rx="2" ry="2" />
<text  x="668.56" y="351.5" ></text>
</g>
<g >
<title>NaClCopyExecutionContext (26 samples, 20.63%)</title><rect x="684.3" y="245" width="243.5" height="15.0" fill="rgb(250,207,14)" rx="2" ry="2" />
<text  x="687.29" y="255.5" >NaClCopyExecutionContext</text>
</g>
<g >
<title>[unknown]  (28 samples, 22.22%)</title><rect x="665.6" y="437" width="262.2" height="15.0" fill="rgb(222,62,39)" rx="2" ry="2" />
<text  x="668.56" y="447.5" >[unknown] </text>
</g>
<g >
<title>[unknown] (4 samples, 3.17%)</title><rect x="1152.5" y="405" width="37.5" height="15.0" fill="rgb(205,78,45)" rx="2" ry="2" />
<text  x="1155.54" y="415.5" >[un..</text>
</g>
<g >
<title>NaClChildNapCtor (1 samples, 0.79%)</title><rect x="674.9" y="277" width="9.4" height="15.0" fill="rgb(211,97,21)" rx="2" ry="2" />
<text  x="677.92" y="287.5" ></text>
</g>
<g >
<title>[sel_ldr] (26 samples, 20.63%)</title><rect x="684.3" y="357" width="243.5" height="15.0" fill="rgb(233,110,35)" rx="2" ry="2" />
<text  x="687.29" y="367.5" >[sel_ldr]</text>
</g>
<g >
<title>[unknown]  (28 samples, 22.22%)</title><rect x="665.6" y="469" width="262.2" height="15.0" fill="rgb(216,16,20)" rx="2" ry="2" />
<text  x="668.56" y="479.5" >[unknown] </text>
</g>
<g >
<title>[unknown] (64 samples, 50.79%)</title><rect x="19.4" y="197" width="599.3" height="15.0" fill="rgb(226,204,38)" rx="2" ry="2" />
<text  x="22.37" y="207.5" >[unknown]</text>
</g>
<g >
<title>[unknown] (1 samples, 0.79%)</title><rect x="618.7" y="405" width="9.4" height="15.0" fill="rgb(228,200,13)" rx="2" ry="2" />
<text  x="621.73" y="415.5" ></text>
</g>
<g >
<title>[unknown]  (28 samples, 22.22%)</title><rect x="665.6" y="501" width="262.2" height="15.0" fill="rgb(254,67,14)" rx="2" ry="2" />
<text  x="668.56" y="511.5" >[unknown] </text>
</g>
<g >
<title>PyFrame_New (1 samples, 0.79%)</title><rect x="646.8" y="533" width="9.4" height="15.0" fill="rgb(217,142,42)" rx="2" ry="2" />
<text  x="649.83" y="543.5" ></text>
</g>
<g >
<title>main (1 samples, 0.79%)</title><rect x="618.7" y="533" width="9.4" height="15.0" fill="rgb(212,67,50)" rx="2" ry="2" />
<text  x="621.73" y="543.5" ></text>
</g>
<g >
<title>[unknown] (1 samples, 0.79%)</title><rect x="740.5" y="117" width="9.3" height="15.0" fill="rgb(209,32,49)" rx="2" ry="2" />
<text  x="743.48" y="127.5" ></text>
</g>
<g >
<title>[unknown] (1 samples, 0.79%)</title><rect x="740.5" y="85" width="9.3" height="15.0" fill="rgb(219,94,43)" rx="2" ry="2" />
<text  x="743.48" y="95.5" ></text>
</g>
<g >
<title>[unknown] (1 samples, 0.79%)</title><rect x="740.5" y="149" width="9.3" height="15.0" fill="rgb(224,134,2)" rx="2" ry="2" />
<text  x="743.48" y="159.5" ></text>
</g>
<g >
<title>NaClPatchAddr (5 samples, 3.97%)</title><rect x="693.7" y="181" width="46.8" height="15.0" fill="rgb(253,171,10)" rx="2" ry="2" />
<text  x="696.65" y="191.5" >NaCl..</text>
</g>
<g >
<title>perf (65 samples, 51.59%)</title><rect x="19.4" y="565" width="608.7" height="15.0" fill="rgb(232,193,5)" rx="2" ry="2" />
<text  x="22.37" y="575.5" >perf</text>
</g>
<g >
<title>PyObject_IsTrue (1 samples, 0.79%)</title><rect x="656.2" y="517" width="9.4" height="15.0" fill="rgb(222,74,19)" rx="2" ry="2" />
<text  x="659.19" y="527.5" ></text>
</g>
<g >
<title>[unknown]  (28 samples, 22.22%)</title><rect x="665.6" y="453" width="262.2" height="15.0" fill="rgb(238,116,34)" rx="2" ry="2" />
<text  x="668.56" y="463.5" >[unknown] </text>
</g>
<g >
<title>[unknown]  (28 samples, 22.22%)</title><rect x="665.6" y="405" width="262.2" height="15.0" fill="rgb(216,28,54)" rx="2" ry="2" />
<text  x="668.56" y="415.5" >[unknown] </text>
</g>
<g >
<title>perf_evlist__prepare_workload (1 samples, 0.79%)</title><rect x="618.7" y="485" width="9.4" height="15.0" fill="rgb(240,158,28)" rx="2" ry="2" />
<text  x="621.73" y="495.5" ></text>
</g>
<g >
<title>[unknown] (1 samples, 0.79%)</title><rect x="618.7" y="325" width="9.4" height="15.0" fill="rgb(208,204,20)" rx="2" ry="2" />
<text  x="621.73" y="335.5" ></text>
</g>
<g >
<title>evlist__enable (64 samples, 50.79%)</title><rect x="19.4" y="469" width="599.3" height="15.0" fill="rgb(239,22,20)" rx="2" ry="2" />
<text  x="22.37" y="479.5" >evlist__enable</text>
</g>
<g >
<title>sel_ldr (34 samples, 26.98%)</title><rect x="628.1" y="565" width="318.4" height="15.0" fill="rgb(248,80,38)" rx="2" ry="2" />
<text  x="631.10" y="575.5" >sel_ldr</text>
</g>
<g >
<title>[unknown] (1 samples, 0.79%)</title><rect x="618.7" y="389" width="9.4" height="15.0" fill="rgb(217,58,7)" rx="2" ry="2" />
<text  x="621.73" y="399.5" ></text>
</g>
<g >
<title>[unknown] (4 samples, 3.17%)</title><rect x="1152.5" y="373" width="37.5" height="15.0" fill="rgb(208,194,24)" rx="2" ry="2" />
<text  x="1155.54" y="383.5" >[un..</text>
</g>
<g >
<title>[unknown] (1 samples, 0.79%)</title><rect x="740.5" y="69" width="9.3" height="15.0" fill="rgb(239,103,39)" rx="2" ry="2" />
<text  x="743.48" y="79.5" ></text>
</g>
<g >
<title>[unknown] (1 samples, 0.79%)</title><rect x="618.7" y="437" width="9.4" height="15.0" fill="rgb(232,81,25)" rx="2" ry="2" />
<text  x="621.73" y="447.5" ></text>
</g>
<g >
<title>NaClSysExecve (1 samples, 0.79%)</title><rect x="674.9" y="293" width="9.4" height="15.0" fill="rgb(215,72,52)" rx="2" ry="2" />
<text  x="677.92" y="303.5" ></text>
</g>
<g >
<title>__libc_start_main (64 samples, 50.79%)</title><rect x="19.4" y="533" width="599.3" height="15.0" fill="rgb(230,82,15)" rx="2" ry="2" />
<text  x="22.37" y="543.5" >__libc_start_main</text>
</g>
<g >
<title>run_builtin (1 samples, 0.79%)</title><rect x="618.7" y="517" width="9.4" height="15.0" fill="rgb(213,25,13)" rx="2" ry="2" />
<text  x="621.73" y="527.5" ></text>
</g>
<g >
<title>NaClCopyDynamicText (26 samples, 20.63%)</title><rect x="684.3" y="229" width="243.5" height="15.0" fill="rgb(253,64,49)" rx="2" ry="2" />
<text  x="687.29" y="239.5" >NaClCopyDynamicText</text>
</g>
<g >
<title>[unknown] (64 samples, 50.79%)</title><rect x="19.4" y="261" width="599.3" height="15.0" fill="rgb(216,162,51)" rx="2" ry="2" />
<text  x="22.37" y="271.5" >[unknown]</text>
</g>
<g >
<title>[unknown] (26 samples, 20.63%)</title><rect x="946.5" y="533" width="243.5" height="15.0" fill="rgb(235,201,9)" rx="2" ry="2" />
<text  x="949.51" y="543.5" >[unknown]</text>
</g>
<g >
<title>[unknown] (1 samples, 0.79%)</title><rect x="618.7" y="373" width="9.4" height="15.0" fill="rgb(228,13,26)" rx="2" ry="2" />
<text  x="621.73" y="383.5" ></text>
</g>
<g >
<title>[unknown] (1 samples, 0.79%)</title><rect x="740.5" y="133" width="9.3" height="15.0" fill="rgb(244,26,28)" rx="2" ry="2" />
<text  x="743.48" y="143.5" ></text>
</g>
<g >
<title>NaClSyscallCSegHook (1 samples, 0.79%)</title><rect x="665.6" y="325" width="9.3" height="15.0" fill="rgb(233,70,2)" rx="2" ry="2" />
<text  x="668.56" y="335.5" ></text>
</g>
<g >
<title>NaClAppLoadFileAslr (1 samples, 0.79%)</title><rect x="674.9" y="229" width="9.4" height="15.0" fill="rgb(214,131,22)" rx="2" ry="2" />
<text  x="677.92" y="239.5" ></text>
</g>
<g >
<title>[unknown] (1 samples, 0.79%)</title><rect x="740.5" y="53" width="9.3" height="15.0" fill="rgb(239,200,40)" rx="2" ry="2" />
<text  x="743.48" y="63.5" ></text>
</g>
<g >
<title>[unknown] (1 samples, 0.79%)</title><rect x="1180.6" y="325" width="9.4" height="15.0" fill="rgb(228,34,8)" rx="2" ry="2" />
<text  x="1183.63" y="335.5" ></text>
</g>
<g >
<title>[unknown] (4 samples, 3.17%)</title><rect x="1152.5" y="389" width="37.5" height="15.0" fill="rgb(217,8,25)" rx="2" ry="2" />
<text  x="1155.54" y="399.5" >[un..</text>
</g>
<g >
<title>NaClAppLoadFile (1 samples, 0.79%)</title><rect x="674.9" y="245" width="9.4" height="15.0" fill="rgb(250,111,39)" rx="2" ry="2" />
<text  x="677.92" y="255.5" ></text>
</g>
<g >
<title>[unknown] (25 samples, 19.84%)</title><rect x="955.9" y="437" width="234.1" height="15.0" fill="rgb(251,16,39)" rx="2" ry="2" />
<text  x="958.87" y="447.5" >[unknown]</text>
</g>
<g >
<title>[unknown] (64 samples, 50.79%)</title><rect x="19.4" y="549" width="599.3" height="15.0" fill="rgb(239,132,47)" rx="2" ry="2" />
<text  x="22.37" y="559.5" >[unknown]</text>
</g>
<g >
<title>[unknown] (8 samples, 6.35%)</title><rect x="852.9" y="69" width="74.9" height="15.0" fill="rgb(217,161,7)" rx="2" ry="2" />
<text  x="855.86" y="79.5" >[unknown]</text>
</g>
<g >
<title>cmd_record (1 samples, 0.79%)</title><rect x="618.7" y="501" width="9.4" height="15.0" fill="rgb(218,149,8)" rx="2" ry="2" />
<text  x="621.73" y="511.5" ></text>
</g>
<g >
<title>ApplyDfaValidator_x86_64 (1 samples, 0.79%)</title><rect x="665.6" y="245" width="9.3" height="15.0" fill="rgb(245,11,34)" rx="2" ry="2" />
<text  x="668.56" y="255.5" ></text>
</g>
<g >
<title>__GI___ioctl (64 samples, 50.79%)</title><rect x="19.4" y="453" width="599.3" height="15.0" fill="rgb(225,220,16)" rx="2" ry="2" />
<text  x="22.37" y="463.5" >__GI___ioctl</text>
</g>
<g >
<title>[unknown] (1 samples, 0.79%)</title><rect x="1180.6" y="309" width="9.4" height="15.0" fill="rgb(216,126,19)" rx="2" ry="2" />
<text  x="1183.63" y="319.5" ></text>
</g>
<g >
<title>[unknown] (26 samples, 20.63%)</title><rect x="946.5" y="501" width="243.5" height="15.0" fill="rgb(222,197,36)" rx="2" ry="2" />
<text  x="949.51" y="511.5" >[unknown]</text>
</g>
<g >
<title>[unknown]  (26 samples, 20.63%)</title><rect x="684.3" y="373" width="243.5" height="15.0" fill="rgb(206,22,1)" rx="2" ry="2" />
<text  x="687.29" y="383.5" >[unknown] </text>
</g>
<g >
<title>[unknown] (1 samples, 0.79%)</title><rect x="10.0" y="501" width="9.4" height="15.0" fill="rgb(243,98,53)" rx="2" ry="2" />
<text  x="13.00" y="511.5" ></text>
</g>
<g >
<title>NaClSysForkDecoder (26 samples, 20.63%)</title><rect x="684.3" y="325" width="243.5" height="15.0" fill="rgb(232,147,11)" rx="2" ry="2" />
<text  x="687.29" y="335.5" >NaClSysForkDecoder</text>
</g>
<g >
<title>[unknown] (1 samples, 0.79%)</title><rect x="618.7" y="341" width="9.4" height="15.0" fill="rgb(239,132,9)" rx="2" ry="2" />
<text  x="621.73" y="351.5" ></text>
</g>
<g >
<title>[unknown] (3 samples, 2.38%)</title><rect x="899.7" y="53" width="28.1" height="15.0" fill="rgb(235,189,17)" rx="2" ry="2" />
<text  x="902.68" y="63.5" >[..</text>
</g>
<g >
<title>NaClApplyPatchToMemory (1 samples, 0.79%)</title><rect x="674.9" y="165" width="9.4" height="15.0" fill="rgb(244,216,45)" rx="2" ry="2" />
<text  x="677.92" y="175.5" ></text>
</g>
<g >
<title>NaClTextDyncodeCreate (1 samples, 0.79%)</title><rect x="665.6" y="277" width="9.3" height="15.0" fill="rgb(217,154,17)" rx="2" ry="2" />
<text  x="668.56" y="287.5" ></text>
</g>
<g >
<title>__memmove_avx_unaligned_erms (1 samples, 0.79%)</title><rect x="684.3" y="197" width="9.4" height="15.0" fill="rgb(242,160,38)" rx="2" ry="2" />
<text  x="687.29" y="207.5" ></text>
</g>
<g >
<title>[unknown] (2 samples, 1.59%)</title><rect x="1171.3" y="341" width="18.7" height="15.0" fill="rgb(235,192,29)" rx="2" ry="2" />
<text  x="1174.27" y="351.5" ></text>
</g>
<g >
<title>NaClSysDyncodeCreateDecoder (1 samples, 0.79%)</title><rect x="665.6" y="309" width="9.3" height="15.0" fill="rgb(210,28,14)" rx="2" ry="2" />
<text  x="668.56" y="319.5" ></text>
</g>
<g >
<title>[unknown] (26 samples, 20.63%)</title><rect x="946.5" y="469" width="243.5" height="15.0" fill="rgb(206,118,12)" rx="2" ry="2" />
<text  x="949.51" y="479.5" >[unknown]</text>
</g>
<g >
<title>__mprotect (1 samples, 0.79%)</title><rect x="740.5" y="181" width="9.3" height="15.0" fill="rgb(248,24,25)" rx="2" ry="2" />
<text  x="743.48" y="191.5" ></text>
</g>
<g >
<title>[unknown] (1 samples, 0.79%)</title><rect x="10.0" y="469" width="9.4" height="15.0" fill="rgb(247,186,49)" rx="2" ry="2" />
<text  x="13.00" y="479.5" ></text>
</g>
<g >
<title>NaClDyncodeVisit (1 samples, 0.79%)</title><rect x="684.3" y="213" width="9.4" height="15.0" fill="rgb(250,81,42)" rx="2" ry="2" />
<text  x="687.29" y="223.5" ></text>
</g>
<g >
<title>[unknown] (11 samples, 8.73%)</title><rect x="824.8" y="133" width="103.0" height="15.0" fill="rgb(221,194,40)" rx="2" ry="2" />
<text  x="827.76" y="143.5" >[unknown]</text>
</g>
<g >
<title>[unknown] (64 samples, 50.79%)</title><rect x="19.4" y="421" width="599.3" height="15.0" fill="rgb(224,170,1)" rx="2" ry="2" />
<text  x="22.37" y="431.5" >[unknown]</text>
</g>
<g >
<title>NaClPatchOneTrampolineCall (1 samples, 0.79%)</title><rect x="674.9" y="181" width="9.4" height="15.0" fill="rgb(210,221,37)" rx="2" ry="2" />
<text  x="677.92" y="191.5" ></text>
</g>
<g >
<title>run_builtin (64 samples, 50.79%)</title><rect x="19.4" y="501" width="599.3" height="15.0" fill="rgb(207,156,22)" rx="2" ry="2" />
<text  x="22.37" y="511.5" >run_builtin</text>
</g>
<g >
<title>[unknown] (1 samples, 0.79%)</title><rect x="10.0" y="549" width="9.4" height="15.0" fill="rgb(249,179,4)" rx="2" ry="2" />
<text  x="13.00" y="559.5" ></text>
</g>
<g >
<title>[unknown] (26 samples, 20.63%)</title><rect x="946.5" y="549" width="243.5" height="15.0" fill="rgb(243,78,5)" rx="2" ry="2" />
<text  x="949.51" y="559.5" >[unknown]</text>
</g>
<g >
<title>[unknown] (64 samples, 50.79%)</title><rect x="19.4" y="437" width="599.3" height="15.0" fill="rgb(234,79,31)" rx="2" ry="2" />
<text  x="22.37" y="447.5" >[unknown]</text>
</g>
<g >
<title>NaClAppThreadSpawn (26 samples, 20.63%)</title><rect x="684.3" y="277" width="243.5" height="15.0" fill="rgb(233,131,44)" rx="2" ry="2" />
<text  x="687.29" y="287.5" >NaClAppThreadSpawn</text>
</g>
<g >
<title>[unknown] (13 samples, 10.32%)</title><rect x="806.0" y="181" width="121.8" height="15.0" fill="rgb(247,146,13)" rx="2" ry="2" />
<text  x="809.03" y="191.5" >[unknown]</text>
</g>
<g >
<title>PyEval_EvalFrameEx (2 samples, 1.59%)</title><rect x="628.1" y="549" width="18.7" height="15.0" fill="rgb(223,40,1)" rx="2" ry="2" />
<text  x="631.10" y="559.5" ></text>
</g>
<g >
<title>[unknown] (1 samples, 0.79%)</title><rect x="740.5" y="165" width="9.3" height="15.0" fill="rgb(216,14,37)" rx="2" ry="2" />
<text  x="743.48" y="175.5" ></text>
</g>
<g >
<title>[unknown] (11 samples, 8.73%)</title><rect x="824.8" y="149" width="103.0" height="15.0" fill="rgb(214,144,38)" rx="2" ry="2" />
<text  x="827.76" y="159.5" >[unknown]</text>
</g>
<g >
<title>[unknown] (10 samples, 7.94%)</title><rect x="834.1" y="85" width="93.7" height="15.0" fill="rgb(252,114,45)" rx="2" ry="2" />
<text  x="837.13" y="95.5" >[unknown]</text>
</g>
<g >
<title>[unknown] (11 samples, 8.73%)</title><rect x="824.8" y="117" width="103.0" height="15.0" fill="rgb(207,226,19)" rx="2" ry="2" />
<text  x="827.76" y="127.5" >[unknown]</text>
</g>
<g >
<title>NaClSysExecveDecoder (1 samples, 0.79%)</title><rect x="674.9" y="309" width="9.4" height="15.0" fill="rgb(215,187,48)" rx="2" ry="2" />
<text  x="677.92" y="319.5" ></text>
</g>
<g >
<title>main (64 samples, 50.79%)</title><rect x="19.4" y="517" width="599.3" height="15.0" fill="rgb(229,145,22)" rx="2" ry="2" />
<text  x="22.37" y="527.5" >main</text>
</g>
<g >
<title>lind (1 samples, 0.79%)</title><rect x="10.0" y="565" width="9.4" height="15.0" fill="rgb(240,200,8)" rx="2" ry="2" />
<text  x="13.00" y="575.5" ></text>
</g>
<g >
<title>NaClValidateCode (1 samples, 0.79%)</title><rect x="665.6" y="261" width="9.3" height="15.0" fill="rgb(218,182,27)" rx="2" ry="2" />
<text  x="668.56" y="271.5" ></text>
</g>
<g >
<title>[unknown]  (28 samples, 22.22%)</title><rect x="665.6" y="485" width="262.2" height="15.0" fill="rgb(212,126,52)" rx="2" ry="2" />
<text  x="668.56" y="495.5" >[unknown] </text>
</g>
<g >
<title>[unknown] (64 samples, 50.79%)</title><rect x="19.4" y="357" width="599.3" height="15.0" fill="rgb(229,205,20)" rx="2" ry="2" />
<text  x="22.37" y="367.5" >[unknown]</text>
</g>
<g >
<title>swapper (26 samples, 20.63%)</title><rect x="946.5" y="565" width="243.5" height="15.0" fill="rgb(211,29,5)" rx="2" ry="2" />
<text  x="949.51" y="575.5" >swapper</text>
</g>
<g >
<title>[unknown] (64 samples, 50.79%)</title><rect x="19.4" y="181" width="599.3" height="15.0" fill="rgb(253,219,25)" rx="2" ry="2" />
<text  x="22.37" y="191.5" >[unknown]</text>
</g>
<g >
<title>[unknown] (11 samples, 8.73%)</title><rect x="824.8" y="101" width="103.0" height="15.0" fill="rgb(246,68,11)" rx="2" ry="2" />
<text  x="827.76" y="111.5" >[unknown]</text>
</g>
<g >
<title>NaClForkThreadContextSetup (26 samples, 20.63%)</title><rect x="684.3" y="261" width="243.5" height="15.0" fill="rgb(223,76,17)" rx="2" ry="2" />
<text  x="687.29" y="271.5" >NaClForkThreadContextSetup</text>
</g>
<g >
<title>__GI___execve (1 samples, 0.79%)</title><rect x="10.0" y="533" width="9.4" height="15.0" fill="rgb(205,106,6)" rx="2" ry="2" />
<text  x="13.00" y="543.5" ></text>
</g>
<g >
<title>__memmove_avx_unaligned_erms (1 samples, 0.79%)</title><rect x="927.8" y="533" width="9.3" height="15.0" fill="rgb(234,228,6)" rx="2" ry="2" />
<text  x="930.78" y="543.5" ></text>
</g>
<g >
<title>[unknown] (64 samples, 50.79%)</title><rect x="19.4" y="373" width="599.3" height="15.0" fill="rgb(246,213,29)" rx="2" ry="2" />
<text  x="22.37" y="383.5" >[unknown]</text>
</g>
<g >
<title>__libc_start_main (1 samples, 0.79%)</title><rect x="618.7" y="549" width="9.4" height="15.0" fill="rgb(251,28,16)" rx="2" ry="2" />
<text  x="621.73" y="559.5" ></text>
</g>
<g >
<title>NaClAppLoadFileFromFilename (1 samples, 0.79%)</title><rect x="674.9" y="261" width="9.4" height="15.0" fill="rgb(244,211,38)" rx="2" ry="2" />
<text  x="677.92" y="271.5" ></text>
</g>
<g >
<title>[unknown] (64 samples, 50.79%)</title><rect x="19.4" y="325" width="599.3" height="15.0" fill="rgb(214,94,40)" rx="2" ry="2" />
<text  x="22.37" y="335.5" >[unknown]</text>
</g>
<g >
<title>NaClCreateThread (26 samples, 20.63%)</title><rect x="684.3" y="293" width="243.5" height="15.0" fill="rgb(224,223,31)" rx="2" ry="2" />
<text  x="687.29" y="303.5" >NaClCreateThread</text>
</g>
<g >
<title>[unknown] (64 samples, 50.79%)</title><rect x="19.4" y="389" width="599.3" height="15.0" fill="rgb(208,123,42)" rx="2" ry="2" />
<text  x="22.37" y="399.5" >[unknown]</text>
</g>
<g >
<title>[perf-3444.map] (1 samples, 0.79%)</title><rect x="665.6" y="373" width="9.3" height="15.0" fill="rgb(220,53,14)" rx="2" ry="2" />
<text  x="668.56" y="383.5" ></text>
</g>
<g >
<title>[unknown]  (28 samples, 22.22%)</title><rect x="665.6" y="421" width="262.2" height="15.0" fill="rgb(233,107,54)" rx="2" ry="2" />
<text  x="668.56" y="431.5" >[unknown] </text>
</g>
<g >
<title>cmd_record (64 samples, 50.79%)</title><rect x="19.4" y="485" width="599.3" height="15.0" fill="rgb(215,113,39)" rx="2" ry="2" />
<text  x="22.37" y="495.5" >cmd_record</text>
</g>
<g >
<title>[unknown] (1 samples, 0.79%)</title><rect x="918.4" y="37" width="9.4" height="15.0" fill="rgb(229,221,1)" rx="2" ry="2" />
<text  x="921.41" y="47.5" ></text>
</g>
<g >
<title>[unknown] (1 samples, 0.79%)</title><rect x="10.0" y="517" width="9.4" height="15.0" fill="rgb(236,95,18)" rx="2" ry="2" />
<text  x="13.00" y="527.5" ></text>
</g>
<g >
<title>[unknown] (26 samples, 20.63%)</title><rect x="946.5" y="517" width="243.5" height="15.0" fill="rgb(214,19,44)" rx="2" ry="2" />
<text  x="949.51" y="527.5" >[unknown]</text>
</g>
<g >
<title>[perf-3444.map] (28 samples, 22.22%)</title><rect x="665.6" y="517" width="262.2" height="15.0" fill="rgb(230,112,45)" rx="2" ry="2" />
<text  x="668.56" y="527.5" >[perf-3444.map]</text>
</g>
<g >
<title>[perf-3444.map] (1 samples, 0.79%)</title><rect x="674.9" y="373" width="9.4" height="15.0" fill="rgb(242,74,23)" rx="2" ry="2" />
<text  x="677.92" y="383.5" ></text>
</g>
<g >
<title>[unknown] (64 samples, 50.79%)</title><rect x="19.4" y="405" width="599.3" height="15.0" fill="rgb(206,95,37)" rx="2" ry="2" />
<text  x="22.37" y="415.5" >[unknown]</text>
</g>
<g >
<title>ValidateChunkAMD64 (1 samples, 0.79%)</title><rect x="665.6" y="229" width="9.3" height="15.0" fill="rgb(241,224,45)" rx="2" ry="2" />
<text  x="668.56" y="239.5" ></text>
</g>
<g >
<title>[perf-3444.map] (1 samples, 0.79%)</title><rect x="665.6" y="389" width="9.3" height="15.0" fill="rgb(251,20,30)" rx="2" ry="2" />
<text  x="668.56" y="399.5" ></text>
</g>
<g >
<title>NaClSysDyncodeCreate (1 samples, 0.79%)</title><rect x="665.6" y="293" width="9.3" height="15.0" fill="rgb(246,126,33)" rx="2" ry="2" />
<text  x="668.56" y="303.5" ></text>
</g>
<g >
<title>[unknown] (1 samples, 0.79%)</title><rect x="684.3" y="181" width="9.4" height="15.0" fill="rgb(253,36,36)" rx="2" ry="2" />
<text  x="687.29" y="191.5" ></text>
</g>
<g >
<title>NaClVmmapVisit (25 samples, 19.84%)</title><rect x="693.7" y="213" width="234.1" height="15.0" fill="rgb(225,195,45)" rx="2" ry="2" />
<text  x="696.65" y="223.5" >NaClVmmapVisit</text>
</g>
<g >
<title>[unknown] (1 samples, 0.79%)</title><rect x="10.0" y="453" width="9.4" height="15.0" fill="rgb(254,0,26)" rx="2" ry="2" />
<text  x="13.00" y="463.5" ></text>
</g>
<g >
<title>[unknown] (26 samples, 20.63%)</title><rect x="946.5" y="453" width="243.5" height="15.0" fill="rgb(217,34,2)" rx="2" ry="2" />
<text  x="949.51" y="463.5" >[unknown]</text>
</g>
<g >
<title>__memmove_avx_unaligned_erms (19 samples, 15.08%)</title><rect x="749.8" y="197" width="178.0" height="15.0" fill="rgb(220,225,46)" rx="2" ry="2" />
<text  x="752.84" y="207.5" >__memmove_avx_unaligned..</text>
</g>
<g >
<title>[unknown]  (27 samples, 21.43%)</title><rect x="674.9" y="389" width="252.9" height="15.0" fill="rgb(241,171,27)" rx="2" ry="2" />
<text  x="677.92" y="399.5" >[unknown] </text>
</g>
</g>
</svg>
