<?xml version="1.0" standalone="no"?>
<!DOCTYPE svg PUBLIC "-//W3C//DTD SVG 1.1//EN" "http://www.w3.org/Graphics/SVG/1.1/DTD/svg11.dtd">
<svg version="1.1" width="1200" height="662" onload="init(evt)" viewBox="0 0 1200 662" xmlns="http://www.w3.org/2000/svg" xmlns:xlink="http://www.w3.org/1999/xlink">
<!-- Flame graph stack visualization. See https://github.com/brendangregg/FlameGraph for latest version, and http://www.brendangregg.com/flamegraphs.html for examples. -->
<!-- NOTES:  -->
<defs>
	<linearGradient id="background" y1="0" y2="1" x1="0" x2="0" >
		<stop stop-color="#eeeeee" offset="5%" />
		<stop stop-color="#eeeeb0" offset="95%" />
	</linearGradient>
</defs>
<style type="text/css">
	text { font-family:Verdana; font-size:12px; fill:rgb(0,0,0); }
	#search, #ignorecase { opacity:0.1; cursor:pointer; }
	#search:hover, #search.show, #ignorecase:hover, #ignorecase.show { opacity:1; }
	#subtitle { text-anchor:middle; font-color:rgb(160,160,160); }
	#title { text-anchor:middle; font-size:17px}
	#unzoom { cursor:pointer; }
	#frames > *:hover { stroke:black; stroke-width:0.5; cursor:pointer; }
	.hide { display:none; }
	.parent { opacity:0.5; }
</style>
<script type="text/ecmascript">
<![CDATA[
	"use strict";
	var details, searchbtn, unzoombtn, matchedtxt, svg, searching, currentSearchTerm, ignorecase, ignorecaseBtn;
	function init(evt) {
		details = document.getElementById("details").firstChild;
		searchbtn = document.getElementById("search");
		ignorecaseBtn = document.getElementById("ignorecase");
		unzoombtn = document.getElementById("unzoom");
		matchedtxt = document.getElementById("matched");
		svg = document.getElementsByTagName("svg")[0];
		searching = 0;
		currentSearchTerm = null;
	}

	window.addEventListener("click", function(e) {
		var target = find_group(e.target);
		if (target) {
			if (target.nodeName == "a") {
				if (e.ctrlKey === false) return;
				e.preventDefault();
			}
			if (target.classList.contains("parent")) unzoom();
			zoom(target);
		}
		else if (e.target.id == "unzoom") unzoom();
		else if (e.target.id == "search") search_prompt();
		else if (e.target.id == "ignorecase") toggle_ignorecase();
	}, false)

	// mouse-over for info
	// show
	window.addEventListener("mouseover", function(e) {
		var target = find_group(e.target);
		if (target) details.nodeValue = "Function: " + g_to_text(target);
	}, false)

	// clear
	window.addEventListener("mouseout", function(e) {
		var target = find_group(e.target);
		if (target) details.nodeValue = ' ';
	}, false)

	// ctrl-F for search
	window.addEventListener("keydown",function (e) {
		if (e.keyCode === 114 || (e.ctrlKey && e.keyCode === 70)) {
			e.preventDefault();
			search_prompt();
		}
	}, false)

	// ctrl-I to toggle case-sensitive search
	window.addEventListener("keydown",function (e) {
		if (e.ctrlKey && e.keyCode === 73) {
			e.preventDefault();
			toggle_ignorecase();
		}
	}, false)

	// functions
	function find_child(node, selector) {
		var children = node.querySelectorAll(selector);
		if (children.length) return children[0];
		return;
	}
	function find_group(node) {
		var parent = node.parentElement;
		if (!parent) return;
		if (parent.id == "frames") return node;
		return find_group(parent);
	}
	function orig_save(e, attr, val) {
		if (e.attributes["_orig_" + attr] != undefined) return;
		if (e.attributes[attr] == undefined) return;
		if (val == undefined) val = e.attributes[attr].value;
		e.setAttribute("_orig_" + attr, val);
	}
	function orig_load(e, attr) {
		if (e.attributes["_orig_"+attr] == undefined) return;
		e.attributes[attr].value = e.attributes["_orig_" + attr].value;
		e.removeAttribute("_orig_"+attr);
	}
	function g_to_text(e) {
		var text = find_child(e, "title").firstChild.nodeValue;
		return (text)
	}
	function g_to_func(e) {
		var func = g_to_text(e);
		// if there's any manipulation we want to do to the function
		// name before it's searched, do it here before returning.
		return (func);
	}
	function update_text(e) {
		var r = find_child(e, "rect");
		var t = find_child(e, "text");
		var w = parseFloat(r.attributes.width.value) -3;
		var txt = find_child(e, "title").textContent.replace(/\([^(]*\)$/,"");
		t.attributes.x.value = parseFloat(r.attributes.x.value) + 3;

		// Smaller than this size won't fit anything
		if (w < 2 * 12 * 0.59) {
			t.textContent = "";
			return;
		}

		t.textContent = txt;
		// Fit in full text width
		if (/^ *$/.test(txt) || t.getSubStringLength(0, txt.length) < w)
			return;

		for (var x = txt.length - 2; x > 0; x--) {
			if (t.getSubStringLength(0, x + 2) <= w) {
				t.textContent = txt.substring(0, x) + "..";
				return;
			}
		}
		t.textContent = "";
	}

	// zoom
	function zoom_reset(e) {
		if (e.attributes != undefined) {
			orig_load(e, "x");
			orig_load(e, "width");
		}
		if (e.childNodes == undefined) return;
		for (var i = 0, c = e.childNodes; i < c.length; i++) {
			zoom_reset(c[i]);
		}
	}
	function zoom_child(e, x, ratio) {
		if (e.attributes != undefined) {
			if (e.attributes.x != undefined) {
				orig_save(e, "x");
				e.attributes.x.value = (parseFloat(e.attributes.x.value) - x - 10) * ratio + 10;
				if (e.tagName == "text")
					e.attributes.x.value = find_child(e.parentNode, "rect[x]").attributes.x.value + 3;
			}
			if (e.attributes.width != undefined) {
				orig_save(e, "width");
				e.attributes.width.value = parseFloat(e.attributes.width.value) * ratio;
			}
		}

		if (e.childNodes == undefined) return;
		for (var i = 0, c = e.childNodes; i < c.length; i++) {
			zoom_child(c[i], x - 10, ratio);
		}
	}
	function zoom_parent(e) {
		if (e.attributes) {
			if (e.attributes.x != undefined) {
				orig_save(e, "x");
				e.attributes.x.value = 10;
			}
			if (e.attributes.width != undefined) {
				orig_save(e, "width");
				e.attributes.width.value = parseInt(svg.width.baseVal.value) - (10 * 2);
			}
		}
		if (e.childNodes == undefined) return;
		for (var i = 0, c = e.childNodes; i < c.length; i++) {
			zoom_parent(c[i]);
		}
	}
	function zoom(node) {
		var attr = find_child(node, "rect").attributes;
		var width = parseFloat(attr.width.value);
		var xmin = parseFloat(attr.x.value);
		var xmax = parseFloat(xmin + width);
		var ymin = parseFloat(attr.y.value);
		var ratio = (svg.width.baseVal.value - 2 * 10) / width;

		// XXX: Workaround for JavaScript float issues (fix me)
		var fudge = 0.0001;

		unzoombtn.classList.remove("hide");

		var el = document.getElementById("frames").children;
		for (var i = 0; i < el.length; i++) {
			var e = el[i];
			var a = find_child(e, "rect").attributes;
			var ex = parseFloat(a.x.value);
			var ew = parseFloat(a.width.value);
			var upstack;
			// Is it an ancestor
			if (0 == 0) {
				upstack = parseFloat(a.y.value) > ymin;
			} else {
				upstack = parseFloat(a.y.value) < ymin;
			}
			if (upstack) {
				// Direct ancestor
				if (ex <= xmin && (ex+ew+fudge) >= xmax) {
					e.classList.add("parent");
					zoom_parent(e);
					update_text(e);
				}
				// not in current path
				else
					e.classList.add("hide");
			}
			// Children maybe
			else {
				// no common path
				if (ex < xmin || ex + fudge >= xmax) {
					e.classList.add("hide");
				}
				else {
					zoom_child(e, xmin, ratio);
					update_text(e);
				}
			}
		}
		search();
	}
	function unzoom() {
		unzoombtn.classList.add("hide");
		var el = document.getElementById("frames").children;
		for(var i = 0; i < el.length; i++) {
			el[i].classList.remove("parent");
			el[i].classList.remove("hide");
			zoom_reset(el[i]);
			update_text(el[i]);
		}
		search();
	}

	// search
	function toggle_ignorecase() {
		ignorecase = !ignorecase;
		if (ignorecase) {
			ignorecaseBtn.classList.add("show");
		} else {
			ignorecaseBtn.classList.remove("show");
		}
		reset_search();
		search();
	}
	function reset_search() {
		var el = document.querySelectorAll("#frames rect");
		for (var i = 0; i < el.length; i++) {
			orig_load(el[i], "fill")
		}
	}
	function search_prompt() {
		if (!searching) {
			var term = prompt("Enter a search term (regexp " +
			    "allowed, eg: ^ext4_)"
			    + (ignorecase ? ", ignoring case" : "")
			    + "\nPress Ctrl-i to toggle case sensitivity", "");
			if (term != null) {
				currentSearchTerm = term;
				search();
			}
		} else {
			reset_search();
			searching = 0;
			currentSearchTerm = null;
			searchbtn.classList.remove("show");
			searchbtn.firstChild.nodeValue = "Search"
			matchedtxt.classList.add("hide");
			matchedtxt.firstChild.nodeValue = ""
		}
	}
	function search(term) {
		if (currentSearchTerm === null) return;
		var term = currentSearchTerm;

		var re = new RegExp(term, ignorecase ? 'i' : '');
		var el = document.getElementById("frames").children;
		var matches = new Object();
		var maxwidth = 0;
		for (var i = 0; i < el.length; i++) {
			var e = el[i];
			var func = g_to_func(e);
			var rect = find_child(e, "rect");
			if (func == null || rect == null)
				continue;

			// Save max width. Only works as we have a root frame
			var w = parseFloat(rect.attributes.width.value);
			if (w > maxwidth)
				maxwidth = w;

			if (func.match(re)) {
				// highlight
				var x = parseFloat(rect.attributes.x.value);
				orig_save(rect, "fill");
				rect.attributes.fill.value = "rgb(230,0,230)";

				// remember matches
				if (matches[x] == undefined) {
					matches[x] = w;
				} else {
					if (w > matches[x]) {
						// overwrite with parent
						matches[x] = w;
					}
				}
				searching = 1;
			}
		}
		if (!searching)
			return;

		searchbtn.classList.add("show");
		searchbtn.firstChild.nodeValue = "Reset Search";

		// calculate percent matched, excluding vertical overlap
		var count = 0;
		var lastx = -1;
		var lastw = 0;
		var keys = Array();
		for (k in matches) {
			if (matches.hasOwnProperty(k))
				keys.push(k);
		}
		// sort the matched frames by their x location
		// ascending, then width descending
		keys.sort(function(a, b){
			return a - b;
		});
		// Step through frames saving only the biggest bottom-up frames
		// thanks to the sort order. This relies on the tree property
		// where children are always smaller than their parents.
		var fudge = 0.0001;	// JavaScript floating point
		for (var k in keys) {
			var x = parseFloat(keys[k]);
			var w = matches[keys[k]];
			if (x >= lastx + lastw - fudge) {
				count += w;
				lastx = x;
				lastw = w;
			}
		}
		// display matched percent
		matchedtxt.classList.remove("hide");
		var pct = 100 * count / maxwidth;
		if (pct != 100) pct = pct.toFixed(1)
		matchedtxt.firstChild.nodeValue = "Matched: " + pct + "%";
	}
]]>
</script>
<rect x="0.0" y="0" width="1200.0" height="662.0" fill="url(#background)"  />
<text id="title" x="600.00" y="24" >Flame Graph</text>
<text id="details" x="10.00" y="645" > </text>
<text id="unzoom" x="10.00" y="24" class="hide">Reset Zoom</text>
<text id="search" x="1090.00" y="24" >Search</text>
<text id="ignorecase" x="1174.00" y="24" >ic</text>
<text id="matched" x="1090.00" y="645" > </text>
<g id="frames">
<g >
<title>NaClForkThreadContextSetup (27 samples, 22.50%)</title><rect x="727.8" y="293" width="265.5" height="15.0" fill="rgb(244,190,49)" rx="2" ry="2" />
<text  x="730.83" y="303.5" >NaClForkThreadContextSetup</text>
</g>
<g >
<title>[unknown] (1 samples, 0.83%)</title><rect x="649.2" y="277" width="9.8" height="15.0" fill="rgb(242,68,9)" rx="2" ry="2" />
<text  x="652.17" y="287.5" ></text>
</g>
<g >
<title>[unknown] (1 samples, 0.83%)</title><rect x="10.0" y="517" width="9.8" height="15.0" fill="rgb(242,5,36)" rx="2" ry="2" />
<text  x="13.00" y="527.5" ></text>
</g>
<g >
<title>[unknown] (1 samples, 0.83%)</title><rect x="983.5" y="261" width="9.8" height="15.0" fill="rgb(239,96,17)" rx="2" ry="2" />
<text  x="986.50" y="271.5" ></text>
</g>
<g >
<title>NaClAppLoadFileFromFilename (3 samples, 2.50%)</title><rect x="698.3" y="293" width="29.5" height="15.0" fill="rgb(224,162,1)" rx="2" ry="2" />
<text  x="701.33" y="303.5" >Na..</text>
</g>
<g >
<title>[unknown] (17 samples, 14.17%)</title><rect x="1022.8" y="581" width="167.2" height="15.0" fill="rgb(218,201,30)" rx="2" ry="2" />
<text  x="1025.83" y="591.5" >[unknown]</text>
</g>
<g >
<title>[unknown] (30 samples, 25.00%)</title><rect x="698.3" y="565" width="295.0" height="15.0" fill="rgb(254,108,13)" rx="2" ry="2" />
<text  x="701.33" y="575.5" >[unknown]</text>
</g>
<g >
<title>[unknown] (62 samples, 51.67%)</title><rect x="39.5" y="229" width="609.7" height="15.0" fill="rgb(228,224,50)" rx="2" ry="2" />
<text  x="42.50" y="239.5" >[unknown]</text>
</g>
<g >
<title>[unknown] (1 samples, 0.83%)</title><rect x="993.3" y="533" width="9.9" height="15.0" fill="rgb(228,171,18)" rx="2" ry="2" />
<text  x="996.33" y="543.5" ></text>
</g>
<g >
<title>[unknown] (6 samples, 5.00%)</title><rect x="1131.0" y="453" width="59.0" height="15.0" fill="rgb(252,224,7)" rx="2" ry="2" />
<text  x="1134.00" y="463.5" >[unkno..</text>
</g>
<g >
<title>sem_post@@GLIBC_2.2.5 (1 samples, 0.83%)</title><rect x="1003.2" y="581" width="9.8" height="15.0" fill="rgb(208,223,52)" rx="2" ry="2" />
<text  x="1006.17" y="591.5" ></text>
</g>
<g >
<title>swapper (17 samples, 14.17%)</title><rect x="1022.8" y="597" width="167.2" height="15.0" fill="rgb(254,92,35)" rx="2" ry="2" />
<text  x="1025.83" y="607.5" >swapper</text>
</g>
<g >
<title>[unknown] (1 samples, 0.83%)</title><rect x="649.2" y="357" width="9.8" height="15.0" fill="rgb(254,78,36)" rx="2" ry="2" />
<text  x="652.17" y="367.5" ></text>
</g>
<g >
<title>[unknown] (1 samples, 0.83%)</title><rect x="993.3" y="373" width="9.9" height="15.0" fill="rgb(238,46,16)" rx="2" ry="2" />
<text  x="996.33" y="383.5" ></text>
</g>
<g >
<title>[unknown] (1 samples, 0.83%)</title><rect x="1003.2" y="485" width="9.8" height="15.0" fill="rgb(227,120,19)" rx="2" ry="2" />
<text  x="1006.17" y="495.5" ></text>
</g>
<g >
<title>main (64 samples, 53.33%)</title><rect x="29.7" y="549" width="629.3" height="15.0" fill="rgb(219,198,24)" rx="2" ry="2" />
<text  x="32.67" y="559.5" >main</text>
</g>
<g >
<title>all (120 samples, 100%)</title><rect x="10.0" y="613" width="1180.0" height="15.0" fill="rgb(233,43,15)" rx="2" ry="2" />
<text  x="13.00" y="623.5" ></text>
</g>
<g >
<title>evlist__enable (63 samples, 52.50%)</title><rect x="29.7" y="501" width="619.5" height="15.0" fill="rgb(244,27,28)" rx="2" ry="2" />
<text  x="32.67" y="511.5" >evlist__enable</text>
</g>
<g >
<title>[unknown]  (30 samples, 25.00%)</title><rect x="698.3" y="517" width="295.0" height="15.0" fill="rgb(226,183,52)" rx="2" ry="2" />
<text  x="701.33" y="527.5" >[unknown] </text>
</g>
<g >
<title>[unknown] (1 samples, 0.83%)</title><rect x="1003.2" y="453" width="9.8" height="15.0" fill="rgb(226,33,26)" rx="2" ry="2" />
<text  x="1006.17" y="463.5" ></text>
</g>
<g >
<title>[unknown]  (27 samples, 22.50%)</title><rect x="727.8" y="405" width="265.5" height="15.0" fill="rgb(210,215,17)" rx="2" ry="2" />
<text  x="730.83" y="415.5" >[unknown] </text>
</g>
<g >
<title>[unknown] (8 samples, 6.67%)</title><rect x="904.8" y="181" width="78.7" height="15.0" fill="rgb(216,217,4)" rx="2" ry="2" />
<text  x="907.83" y="191.5" >[unknown]</text>
</g>
<g >
<title>[unknown] (1 samples, 0.83%)</title><rect x="659.0" y="389" width="9.8" height="15.0" fill="rgb(210,71,20)" rx="2" ry="2" />
<text  x="662.00" y="399.5" ></text>
</g>
<g >
<title>[unknown] (1 samples, 0.83%)</title><rect x="1003.2" y="421" width="9.8" height="15.0" fill="rgb(254,93,33)" rx="2" ry="2" />
<text  x="1006.17" y="431.5" ></text>
</g>
<g >
<title>__memmove_avx_unaligned_erms (1 samples, 0.83%)</title><rect x="983.5" y="277" width="9.8" height="15.0" fill="rgb(225,182,34)" rx="2" ry="2" />
<text  x="986.50" y="287.5" ></text>
</g>
<g >
<title>[unknown] (1 samples, 0.83%)</title><rect x="973.7" y="85" width="9.8" height="15.0" fill="rgb(217,138,16)" rx="2" ry="2" />
<text  x="976.67" y="95.5" ></text>
</g>
<g >
<title>[sel_ldr] (27 samples, 22.50%)</title><rect x="727.8" y="389" width="265.5" height="15.0" fill="rgb(211,59,12)" rx="2" ry="2" />
<text  x="730.83" y="399.5" >[sel_ldr]</text>
</g>
<g >
<title>sel_ldr (35 samples, 29.17%)</title><rect x="668.8" y="597" width="344.2" height="15.0" fill="rgb(211,217,32)" rx="2" ry="2" />
<text  x="671.83" y="607.5" >sel_ldr</text>
</g>
<g >
<title>[unknown] (17 samples, 14.17%)</title><rect x="1022.8" y="565" width="167.2" height="15.0" fill="rgb(221,189,37)" rx="2" ry="2" />
<text  x="1025.83" y="575.5" >[unknown]</text>
</g>
<g >
<title>[unknown] (32 samples, 26.67%)</title><rect x="678.7" y="581" width="314.6" height="15.0" fill="rgb(251,189,45)" rx="2" ry="2" />
<text  x="681.67" y="591.5" >[unknown]</text>
</g>
<g >
<title>run_builtin (64 samples, 53.33%)</title><rect x="29.7" y="533" width="629.3" height="15.0" fill="rgb(227,22,36)" rx="2" ry="2" />
<text  x="32.67" y="543.5" >run_builtin</text>
</g>
<g >
<title>[unknown] (63 samples, 52.50%)</title><rect x="29.7" y="405" width="619.5" height="15.0" fill="rgb(222,106,15)" rx="2" ry="2" />
<text  x="32.67" y="415.5" >[unknown]</text>
</g>
<g >
<title>[unknown] (17 samples, 14.17%)</title><rect x="1022.8" y="469" width="167.2" height="15.0" fill="rgb(243,210,30)" rx="2" ry="2" />
<text  x="1025.83" y="479.5" >[unknown]</text>
</g>
<g >
<title>[unknown] (1 samples, 0.83%)</title><rect x="1003.2" y="517" width="9.8" height="15.0" fill="rgb(208,197,6)" rx="2" ry="2" />
<text  x="1006.17" y="527.5" ></text>
</g>
<g >
<title>[unknown] (62 samples, 51.67%)</title><rect x="39.5" y="197" width="609.7" height="15.0" fill="rgb(228,157,35)" rx="2" ry="2" />
<text  x="42.50" y="207.5" >[unknown]</text>
</g>
<g >
<title>[unknown] (5 samples, 4.17%)</title><rect x="1140.8" y="421" width="49.2" height="15.0" fill="rgb(206,66,13)" rx="2" ry="2" />
<text  x="1143.83" y="431.5" >[unk..</text>
</g>
<g >
<title>[unknown] (63 samples, 52.50%)</title><rect x="29.7" y="341" width="619.5" height="15.0" fill="rgb(244,56,6)" rx="2" ry="2" />
<text  x="32.67" y="351.5" >[unknown]</text>
</g>
<g >
<title>[unknown] (1 samples, 0.83%)</title><rect x="649.2" y="389" width="9.8" height="15.0" fill="rgb(235,152,9)" rx="2" ry="2" />
<text  x="652.17" y="399.5" ></text>
</g>
<g >
<title>[unknown] (7 samples, 5.83%)</title><rect x="914.7" y="117" width="68.8" height="15.0" fill="rgb(223,214,14)" rx="2" ry="2" />
<text  x="917.67" y="127.5" >[unknown]</text>
</g>
<g >
<title>[unknown]  (30 samples, 25.00%)</title><rect x="698.3" y="485" width="295.0" height="15.0" fill="rgb(208,62,41)" rx="2" ry="2" />
<text  x="701.33" y="495.5" >[unknown] </text>
</g>
<g >
<title>[unknown] (1 samples, 0.83%)</title><rect x="659.0" y="357" width="9.8" height="15.0" fill="rgb(232,194,17)" rx="2" ry="2" />
<text  x="662.00" y="367.5" ></text>
</g>
<g >
<title>[unknown] (1 samples, 0.83%)</title><rect x="10.0" y="485" width="9.8" height="15.0" fill="rgb(209,81,53)" rx="2" ry="2" />
<text  x="13.00" y="495.5" ></text>
</g>
<g >
<title>[unknown] (1 samples, 0.83%)</title><rect x="649.2" y="325" width="9.8" height="15.0" fill="rgb(228,0,18)" rx="2" ry="2" />
<text  x="652.17" y="335.5" ></text>
</g>
<g >
<title>[unknown] (63 samples, 52.50%)</title><rect x="29.7" y="437" width="619.5" height="15.0" fill="rgb(217,137,11)" rx="2" ry="2" />
<text  x="32.67" y="447.5" >[unknown]</text>
</g>
<g >
<title>[unknown] (17 samples, 14.17%)</title><rect x="1022.8" y="501" width="167.2" height="15.0" fill="rgb(237,189,11)" rx="2" ry="2" />
<text  x="1025.83" y="511.5" >[unknown]</text>
</g>
<g >
<title>[perf-3558.map] (3 samples, 2.50%)</title><rect x="698.3" y="405" width="29.5" height="15.0" fill="rgb(228,34,26)" rx="2" ry="2" />
<text  x="701.33" y="415.5" >[p..</text>
</g>
<g >
<title>[unknown] (1 samples, 0.83%)</title><rect x="10.0" y="533" width="9.8" height="15.0" fill="rgb(208,219,42)" rx="2" ry="2" />
<text  x="13.00" y="543.5" ></text>
</g>
<g >
<title>perf (66 samples, 55.00%)</title><rect x="19.8" y="597" width="649.0" height="15.0" fill="rgb(254,29,3)" rx="2" ry="2" />
<text  x="22.83" y="607.5" >perf</text>
</g>
<g >
<title>[unknown] (1 samples, 0.83%)</title><rect x="993.3" y="341" width="9.9" height="15.0" fill="rgb(205,221,31)" rx="2" ry="2" />
<text  x="996.33" y="351.5" ></text>
</g>
<g >
<title>[unknown] (1 samples, 0.83%)</title><rect x="1180.2" y="325" width="9.8" height="15.0" fill="rgb(251,187,4)" rx="2" ry="2" />
<text  x="1183.17" y="335.5" ></text>
</g>
<g >
<title>NaClValidateImage (3 samples, 2.50%)</title><rect x="698.3" y="245" width="29.5" height="15.0" fill="rgb(239,181,16)" rx="2" ry="2" />
<text  x="701.33" y="255.5" >Na..</text>
</g>
<g >
<title>[unknown] (3 samples, 2.50%)</title><rect x="1160.5" y="389" width="29.5" height="15.0" fill="rgb(220,65,23)" rx="2" ry="2" />
<text  x="1163.50" y="399.5" >[u..</text>
</g>
<g >
<title>[unknown] (1 samples, 0.83%)</title><rect x="993.3" y="437" width="9.9" height="15.0" fill="rgb(221,120,29)" rx="2" ry="2" />
<text  x="996.33" y="447.5" ></text>
</g>
<g >
<title>record__mmap_read_evlist.constprop.0 (1 samples, 0.83%)</title><rect x="649.2" y="501" width="9.8" height="15.0" fill="rgb(244,89,24)" rx="2" ry="2" />
<text  x="652.17" y="511.5" ></text>
</g>
<g >
<title>[unknown] (8 samples, 6.67%)</title><rect x="904.8" y="213" width="78.7" height="15.0" fill="rgb(229,131,45)" rx="2" ry="2" />
<text  x="907.83" y="223.5" >[unknown]</text>
</g>
<g >
<title>[unknown]  (30 samples, 25.00%)</title><rect x="698.3" y="437" width="295.0" height="15.0" fill="rgb(231,39,5)" rx="2" ry="2" />
<text  x="701.33" y="447.5" >[unknown] </text>
</g>
<g >
<title>[unknown] (63 samples, 52.50%)</title><rect x="29.7" y="469" width="619.5" height="15.0" fill="rgb(229,106,54)" rx="2" ry="2" />
<text  x="32.67" y="479.5" >[unknown]</text>
</g>
<g >
<title>NaClCopyExecutionContext (26 samples, 21.67%)</title><rect x="727.8" y="277" width="255.7" height="15.0" fill="rgb(230,223,10)" rx="2" ry="2" />
<text  x="730.83" y="287.5" >NaClCopyExecutionContext</text>
</g>
<g >
<title>[unknown] (1 samples, 0.83%)</title><rect x="993.3" y="517" width="9.9" height="15.0" fill="rgb(234,127,25)" rx="2" ry="2" />
<text  x="996.33" y="527.5" ></text>
</g>
<g >
<title>[unknown] (63 samples, 52.50%)</title><rect x="29.7" y="293" width="619.5" height="15.0" fill="rgb(254,137,0)" rx="2" ry="2" />
<text  x="32.67" y="303.5" >[unknown]</text>
</g>
<g >
<title>[unknown] (1 samples, 0.83%)</title><rect x="649.2" y="421" width="9.8" height="15.0" fill="rgb(210,163,4)" rx="2" ry="2" />
<text  x="652.17" y="431.5" ></text>
</g>
<g >
<title>main (1 samples, 0.83%)</title><rect x="659.0" y="565" width="9.8" height="15.0" fill="rgb(216,211,42)" rx="2" ry="2" />
<text  x="662.00" y="575.5" ></text>
</g>
<g >
<title>[unknown] (63 samples, 52.50%)</title><rect x="29.7" y="309" width="619.5" height="15.0" fill="rgb(235,58,35)" rx="2" ry="2" />
<text  x="32.67" y="319.5" >[unknown]</text>
</g>
<g >
<title>__libc_fork (1 samples, 0.83%)</title><rect x="1013.0" y="581" width="9.8" height="15.0" fill="rgb(211,60,31)" rx="2" ry="2" />
<text  x="1016.00" y="591.5" ></text>
</g>
<g >
<title>ValidateChunkAMD64 (3 samples, 2.50%)</title><rect x="698.3" y="197" width="29.5" height="15.0" fill="rgb(254,13,45)" rx="2" ry="2" />
<text  x="701.33" y="207.5" >Va..</text>
</g>
<g >
<title>NaClVmmapVisit (26 samples, 21.67%)</title><rect x="727.8" y="245" width="255.7" height="15.0" fill="rgb(220,149,27)" rx="2" ry="2" />
<text  x="730.83" y="255.5" >NaClVmmapVisit</text>
</g>
<g >
<title>[perf-3558.map] (30 samples, 25.00%)</title><rect x="698.3" y="549" width="295.0" height="15.0" fill="rgb(222,191,31)" rx="2" ry="2" />
<text  x="701.33" y="559.5" >[perf-3558.map]</text>
</g>
<g >
<title>[unknown] (1 samples, 0.83%)</title><rect x="659.0" y="453" width="9.8" height="15.0" fill="rgb(246,204,25)" rx="2" ry="2" />
<text  x="662.00" y="463.5" ></text>
</g>
<g >
<title>[unknown] (1 samples, 0.83%)</title><rect x="1003.2" y="389" width="9.8" height="15.0" fill="rgb(252,43,3)" rx="2" ry="2" />
<text  x="1006.17" y="399.5" ></text>
</g>
<g >
<title>[unknown] (1 samples, 0.83%)</title><rect x="993.3" y="405" width="9.9" height="15.0" fill="rgb(232,141,1)" rx="2" ry="2" />
<text  x="996.33" y="415.5" ></text>
</g>
<g >
<title>cmd_record (1 samples, 0.83%)</title><rect x="659.0" y="533" width="9.8" height="15.0" fill="rgb(227,120,6)" rx="2" ry="2" />
<text  x="662.00" y="543.5" ></text>
</g>
<g >
<title>__GI___ioctl (63 samples, 52.50%)</title><rect x="29.7" y="485" width="619.5" height="15.0" fill="rgb(219,119,40)" rx="2" ry="2" />
<text  x="32.67" y="495.5" >__GI___ioctl</text>
</g>
<g >
<title>list_length (1 samples, 0.83%)</title><rect x="10.0" y="581" width="9.8" height="15.0" fill="rgb(205,40,24)" rx="2" ry="2" />
<text  x="13.00" y="591.5" ></text>
</g>
<g >
<title>[unknown] (63 samples, 52.50%)</title><rect x="29.7" y="373" width="619.5" height="15.0" fill="rgb(223,161,0)" rx="2" ry="2" />
<text  x="32.67" y="383.5" >[unknown]</text>
</g>
<g >
<title>[unknown] (1 samples, 0.83%)</title><rect x="659.0" y="421" width="9.8" height="15.0" fill="rgb(205,139,25)" rx="2" ry="2" />
<text  x="662.00" y="431.5" ></text>
</g>
<g >
<title>[sel_ldr] (3 samples, 2.50%)</title><rect x="698.3" y="373" width="29.5" height="15.0" fill="rgb(237,225,24)" rx="2" ry="2" />
<text  x="701.33" y="383.5" >[s..</text>
</g>
<g >
<title>NaClAppLoadFile (3 samples, 2.50%)</title><rect x="698.3" y="277" width="29.5" height="15.0" fill="rgb(219,12,41)" rx="2" ry="2" />
<text  x="701.33" y="287.5" >Na..</text>
</g>
<g >
<title>__libc_start_main (64 samples, 53.33%)</title><rect x="29.7" y="565" width="629.3" height="15.0" fill="rgb(211,165,13)" rx="2" ry="2" />
<text  x="32.67" y="575.5" >__libc_start_main</text>
</g>
<g >
<title>NaClValidateCode (3 samples, 2.50%)</title><rect x="698.3" y="229" width="29.5" height="15.0" fill="rgb(223,205,20)" rx="2" ry="2" />
<text  x="701.33" y="239.5" >Na..</text>
</g>
<g >
<title>[unknown] (1 samples, 0.83%)</title><rect x="973.7" y="53" width="9.8" height="15.0" fill="rgb(213,160,30)" rx="2" ry="2" />
<text  x="976.67" y="63.5" ></text>
</g>
<g >
<title>[unknown] (1 samples, 0.83%)</title><rect x="659.0" y="469" width="9.8" height="15.0" fill="rgb(246,65,36)" rx="2" ry="2" />
<text  x="662.00" y="479.5" ></text>
</g>
<g >
<title>[unknown] (1 samples, 0.83%)</title><rect x="1180.2" y="357" width="9.8" height="15.0" fill="rgb(236,150,26)" rx="2" ry="2" />
<text  x="1183.17" y="367.5" ></text>
</g>
<g >
<title>[unknown] (1 samples, 0.83%)</title><rect x="1003.2" y="533" width="9.8" height="15.0" fill="rgb(227,204,36)" rx="2" ry="2" />
<text  x="1006.17" y="543.5" ></text>
</g>
<g >
<title>NaClSyscallCSegHook (27 samples, 22.50%)</title><rect x="727.8" y="373" width="265.5" height="15.0" fill="rgb(252,37,31)" rx="2" ry="2" />
<text  x="730.83" y="383.5" >NaClSyscallCSegHook</text>
</g>
<g >
<title>[unknown] (63 samples, 52.50%)</title><rect x="29.7" y="261" width="619.5" height="15.0" fill="rgb(207,220,11)" rx="2" ry="2" />
<text  x="32.67" y="271.5" >[unknown]</text>
</g>
<g >
<title>lind (1 samples, 0.83%)</title><rect x="10.0" y="597" width="9.8" height="15.0" fill="rgb(229,88,12)" rx="2" ry="2" />
<text  x="13.00" y="607.5" ></text>
</g>
<g >
<title>NaClVmCopyEntry (6 samples, 5.00%)</title><rect x="727.8" y="229" width="59.0" height="15.0" fill="rgb(206,47,53)" rx="2" ry="2" />
<text  x="730.83" y="239.5" >NaClVm..</text>
</g>
<g >
<title>[unknown] (1 samples, 0.83%)</title><rect x="993.3" y="485" width="9.9" height="15.0" fill="rgb(251,227,15)" rx="2" ry="2" />
<text  x="996.33" y="495.5" ></text>
</g>
<g >
<title>[unknown] (8 samples, 6.67%)</title><rect x="904.8" y="149" width="78.7" height="15.0" fill="rgb(214,136,17)" rx="2" ry="2" />
<text  x="907.83" y="159.5" >[unknown]</text>
</g>
<g >
<title>[perf-3558.map] (3 samples, 2.50%)</title><rect x="698.3" y="389" width="29.5" height="15.0" fill="rgb(251,190,13)" rx="2" ry="2" />
<text  x="701.33" y="399.5" >[p..</text>
</g>
<g >
<title>[unknown] (17 samples, 14.17%)</title><rect x="1022.8" y="549" width="167.2" height="15.0" fill="rgb(222,215,48)" rx="2" ry="2" />
<text  x="1025.83" y="559.5" >[unknown]</text>
</g>
<g >
<title>[unknown] (8 samples, 6.67%)</title><rect x="904.8" y="197" width="78.7" height="15.0" fill="rgb(208,4,14)" rx="2" ry="2" />
<text  x="907.83" y="207.5" >[unknown]</text>
</g>
<g >
<title>[unknown] (1 samples, 0.83%)</title><rect x="993.3" y="549" width="9.9" height="15.0" fill="rgb(230,186,33)" rx="2" ry="2" />
<text  x="996.33" y="559.5" ></text>
</g>
<g >
<title>perf_mmap__push (1 samples, 0.83%)</title><rect x="649.2" y="485" width="9.8" height="15.0" fill="rgb(207,227,47)" rx="2" ry="2" />
<text  x="652.17" y="495.5" ></text>
</g>
<g >
<title>[unknown] (1 samples, 0.83%)</title><rect x="993.3" y="421" width="9.9" height="15.0" fill="rgb(226,226,38)" rx="2" ry="2" />
<text  x="996.33" y="431.5" ></text>
</g>
<g >
<title>[unknown] (63 samples, 52.50%)</title><rect x="29.7" y="325" width="619.5" height="15.0" fill="rgb(252,25,0)" rx="2" ry="2" />
<text  x="32.67" y="335.5" >[unknown]</text>
</g>
<g >
<title>NaClSysFork (27 samples, 22.50%)</title><rect x="727.8" y="341" width="265.5" height="15.0" fill="rgb(238,190,10)" rx="2" ry="2" />
<text  x="730.83" y="351.5" >NaClSysFork</text>
</g>
<g >
<title>[unknown] (1 samples, 0.83%)</title><rect x="649.2" y="437" width="9.8" height="15.0" fill="rgb(205,32,26)" rx="2" ry="2" />
<text  x="652.17" y="447.5" ></text>
</g>
<g >
<title>[unknown] (1 samples, 0.83%)</title><rect x="973.7" y="69" width="9.8" height="15.0" fill="rgb(219,25,47)" rx="2" ry="2" />
<text  x="976.67" y="79.5" ></text>
</g>
<g >
<title>[unknown]  (30 samples, 25.00%)</title><rect x="698.3" y="501" width="295.0" height="15.0" fill="rgb(239,200,9)" rx="2" ry="2" />
<text  x="701.33" y="511.5" >[unknown] </text>
</g>
<g >
<title>[unknown] (17 samples, 14.17%)</title><rect x="1022.8" y="485" width="167.2" height="15.0" fill="rgb(226,29,8)" rx="2" ry="2" />
<text  x="1025.83" y="495.5" >[unknown]</text>
</g>
<g >
<title>[unknown] (1 samples, 0.83%)</title><rect x="649.2" y="341" width="9.8" height="15.0" fill="rgb(229,186,45)" rx="2" ry="2" />
<text  x="652.17" y="351.5" ></text>
</g>
<g >
<title>[unknown] (63 samples, 52.50%)</title><rect x="29.7" y="389" width="619.5" height="15.0" fill="rgb(249,6,24)" rx="2" ry="2" />
<text  x="32.67" y="399.5" >[unknown]</text>
</g>
<g >
<title>[unknown] (1 samples, 0.83%)</title><rect x="649.2" y="405" width="9.8" height="15.0" fill="rgb(233,120,16)" rx="2" ry="2" />
<text  x="652.17" y="415.5" ></text>
</g>
<g >
<title>[unknown] (1 samples, 0.83%)</title><rect x="10.0" y="565" width="9.8" height="15.0" fill="rgb(245,219,17)" rx="2" ry="2" />
<text  x="13.00" y="575.5" ></text>
</g>
<g >
<title>[unknown] (65 samples, 54.17%)</title><rect x="19.8" y="581" width="639.2" height="15.0" fill="rgb(209,216,35)" rx="2" ry="2" />
<text  x="22.83" y="591.5" >[unknown]</text>
</g>
<g >
<title>[unknown] (1 samples, 0.83%)</title><rect x="10.0" y="469" width="9.8" height="15.0" fill="rgb(253,194,5)" rx="2" ry="2" />
<text  x="13.00" y="479.5" ></text>
</g>
<g >
<title>NaClCreateThread (27 samples, 22.50%)</title><rect x="727.8" y="325" width="265.5" height="15.0" fill="rgb(230,1,51)" rx="2" ry="2" />
<text  x="730.83" y="335.5" >NaClCreateThread</text>
</g>
<g >
<title>[unknown] (1 samples, 0.83%)</title><rect x="973.7" y="37" width="9.8" height="15.0" fill="rgb(208,12,16)" rx="2" ry="2" />
<text  x="976.67" y="47.5" ></text>
</g>
<g >
<title>PyFrame_New (1 samples, 0.83%)</title><rect x="678.7" y="565" width="9.8" height="15.0" fill="rgb(218,184,8)" rx="2" ry="2" />
<text  x="681.67" y="575.5" ></text>
</g>
<g >
<title>__libc_write (1 samples, 0.83%)</title><rect x="649.2" y="453" width="9.8" height="15.0" fill="rgb(224,121,23)" rx="2" ry="2" />
<text  x="652.17" y="463.5" ></text>
</g>
<g >
<title>[unknown] (2 samples, 1.67%)</title><rect x="1170.3" y="373" width="19.7" height="15.0" fill="rgb(241,172,36)" rx="2" ry="2" />
<text  x="1173.33" y="383.5" ></text>
</g>
<g >
<title>[unknown]  (30 samples, 25.00%)</title><rect x="698.3" y="421" width="295.0" height="15.0" fill="rgb(211,134,54)" rx="2" ry="2" />
<text  x="701.33" y="431.5" >[unknown] </text>
</g>
<g >
<title>[unknown] (63 samples, 52.50%)</title><rect x="29.7" y="357" width="619.5" height="15.0" fill="rgb(229,191,36)" rx="2" ry="2" />
<text  x="32.67" y="367.5" >[unknown]</text>
</g>
<g >
<title>[unknown] (8 samples, 6.67%)</title><rect x="904.8" y="165" width="78.7" height="15.0" fill="rgb(233,133,31)" rx="2" ry="2" />
<text  x="907.83" y="175.5" >[unknown]</text>
</g>
<g >
<title>[unknown] (1 samples, 0.83%)</title><rect x="659.0" y="437" width="9.8" height="15.0" fill="rgb(245,21,14)" rx="2" ry="2" />
<text  x="662.00" y="447.5" ></text>
</g>
<g >
<title>NaClAppLoadFileAslr (3 samples, 2.50%)</title><rect x="698.3" y="261" width="29.5" height="15.0" fill="rgb(222,182,39)" rx="2" ry="2" />
<text  x="701.33" y="271.5" >Na..</text>
</g>
<g >
<title>[unknown] (63 samples, 52.50%)</title><rect x="29.7" y="245" width="619.5" height="15.0" fill="rgb(252,135,47)" rx="2" ry="2" />
<text  x="32.67" y="255.5" >[unknown]</text>
</g>
<g >
<title>[unknown] (17 samples, 14.17%)</title><rect x="1022.8" y="517" width="167.2" height="15.0" fill="rgb(215,149,26)" rx="2" ry="2" />
<text  x="1025.83" y="527.5" >[unknown]</text>
</g>
<g >
<title>NaClCopyDynamicText (26 samples, 21.67%)</title><rect x="727.8" y="261" width="255.7" height="15.0" fill="rgb(210,79,13)" rx="2" ry="2" />
<text  x="730.83" y="271.5" >NaClCopyDynamicText</text>
</g>
<g >
<title>NaClPatchAddr (6 samples, 5.00%)</title><rect x="727.8" y="213" width="59.0" height="15.0" fill="rgb(211,68,44)" rx="2" ry="2" />
<text  x="730.83" y="223.5" >NaClPa..</text>
</g>
<g >
<title>[unknown] (1 samples, 0.83%)</title><rect x="1003.2" y="469" width="9.8" height="15.0" fill="rgb(253,196,1)" rx="2" ry="2" />
<text  x="1006.17" y="479.5" ></text>
</g>
<g >
<title>[unknown] (1 samples, 0.83%)</title><rect x="1003.2" y="373" width="9.8" height="15.0" fill="rgb(243,20,45)" rx="2" ry="2" />
<text  x="1006.17" y="383.5" ></text>
</g>
<g >
<title>[unknown] (63 samples, 52.50%)</title><rect x="29.7" y="277" width="619.5" height="15.0" fill="rgb(230,57,47)" rx="2" ry="2" />
<text  x="32.67" y="287.5" >[unknown]</text>
</g>
<g >
<title>[unknown] (1 samples, 0.83%)</title><rect x="1003.2" y="565" width="9.8" height="15.0" fill="rgb(228,88,29)" rx="2" ry="2" />
<text  x="1006.17" y="575.5" ></text>
</g>
<g >
<title>[unknown] (1 samples, 0.83%)</title><rect x="659.0" y="405" width="9.8" height="15.0" fill="rgb(235,75,10)" rx="2" ry="2" />
<text  x="662.00" y="415.5" ></text>
</g>
<g >
<title>sh (1 samples, 0.83%)</title><rect x="1013.0" y="597" width="9.8" height="15.0" fill="rgb(205,93,12)" rx="2" ry="2" />
<text  x="1016.00" y="607.5" ></text>
</g>
<g >
<title>[unknown] (1 samples, 0.83%)</title><rect x="993.3" y="501" width="9.9" height="15.0" fill="rgb(240,205,52)" rx="2" ry="2" />
<text  x="996.33" y="511.5" ></text>
</g>
<g >
<title>__GI___execve (1 samples, 0.83%)</title><rect x="659.0" y="501" width="9.8" height="15.0" fill="rgb(240,130,47)" rx="2" ry="2" />
<text  x="662.00" y="511.5" ></text>
</g>
<g >
<title>cmd_record (64 samples, 53.33%)</title><rect x="29.7" y="517" width="629.3" height="15.0" fill="rgb(206,14,16)" rx="2" ry="2" />
<text  x="32.67" y="527.5" >cmd_record</text>
</g>
<g >
<title>[unknown] (1 samples, 0.83%)</title><rect x="993.3" y="453" width="9.9" height="15.0" fill="rgb(252,186,23)" rx="2" ry="2" />
<text  x="996.33" y="463.5" ></text>
</g>
<g >
<title>[unknown] (8 samples, 6.67%)</title><rect x="904.8" y="133" width="78.7" height="15.0" fill="rgb(214,47,46)" rx="2" ry="2" />
<text  x="907.83" y="143.5" >[unknown]</text>
</g>
<g >
<title>__mmap (1 samples, 0.83%)</title><rect x="993.3" y="581" width="9.9" height="15.0" fill="rgb(229,189,39)" rx="2" ry="2" />
<text  x="996.33" y="591.5" ></text>
</g>
<g >
<title>run_builtin (1 samples, 0.83%)</title><rect x="659.0" y="549" width="9.8" height="15.0" fill="rgb(240,104,3)" rx="2" ry="2" />
<text  x="662.00" y="559.5" ></text>
</g>
<g >
<title>[unknown]  (30 samples, 25.00%)</title><rect x="698.3" y="453" width="295.0" height="15.0" fill="rgb(242,74,46)" rx="2" ry="2" />
<text  x="701.33" y="463.5" >[unknown] </text>
</g>
<g >
<title>NaClSysExecveDecoder (3 samples, 2.50%)</title><rect x="698.3" y="341" width="29.5" height="15.0" fill="rgb(236,149,1)" rx="2" ry="2" />
<text  x="701.33" y="351.5" >Na..</text>
</g>
<g >
<title>__memmove_avx_unaligned_erms (20 samples, 16.67%)</title><rect x="786.8" y="229" width="196.7" height="15.0" fill="rgb(210,194,35)" rx="2" ry="2" />
<text  x="789.83" y="239.5" >__memmove_avx_unaligned_e..</text>
</g>
<g >
<title>[unknown] (63 samples, 52.50%)</title><rect x="29.7" y="453" width="619.5" height="15.0" fill="rgb(252,51,21)" rx="2" ry="2" />
<text  x="32.67" y="463.5" >[unknown]</text>
</g>
<g >
<title>NaClSysForkDecoder (27 samples, 22.50%)</title><rect x="727.8" y="357" width="265.5" height="15.0" fill="rgb(212,84,12)" rx="2" ry="2" />
<text  x="730.83" y="367.5" >NaClSysForkDecoder</text>
</g>
<g >
<title>[unknown] (1 samples, 0.83%)</title><rect x="659.0" y="485" width="9.8" height="15.0" fill="rgb(209,149,13)" rx="2" ry="2" />
<text  x="662.00" y="495.5" ></text>
</g>
<g >
<title>NaClChildNapCtor (3 samples, 2.50%)</title><rect x="698.3" y="309" width="29.5" height="15.0" fill="rgb(228,97,28)" rx="2" ry="2" />
<text  x="701.33" y="319.5" >Na..</text>
</g>
<g >
<title>[unknown] (1 samples, 0.83%)</title><rect x="10.0" y="549" width="9.8" height="15.0" fill="rgb(253,34,3)" rx="2" ry="2" />
<text  x="13.00" y="559.5" ></text>
</g>
<g >
<title>[unknown]  (30 samples, 25.00%)</title><rect x="698.3" y="533" width="295.0" height="15.0" fill="rgb(248,31,41)" rx="2" ry="2" />
<text  x="701.33" y="543.5" >[unknown] </text>
</g>
<g >
<title>record__pushfn (1 samples, 0.83%)</title><rect x="649.2" y="469" width="9.8" height="15.0" fill="rgb(225,5,22)" rx="2" ry="2" />
<text  x="652.17" y="479.5" ></text>
</g>
<g >
<title>[unknown] (1 samples, 0.83%)</title><rect x="993.3" y="469" width="9.9" height="15.0" fill="rgb(229,53,8)" rx="2" ry="2" />
<text  x="996.33" y="479.5" ></text>
</g>
<g >
<title>[unknown] (1 samples, 0.83%)</title><rect x="649.2" y="373" width="9.8" height="15.0" fill="rgb(235,39,52)" rx="2" ry="2" />
<text  x="652.17" y="383.5" ></text>
</g>
<g >
<title>PyObject_GetAttr (1 samples, 0.83%)</title><rect x="688.5" y="565" width="9.8" height="15.0" fill="rgb(210,134,34)" rx="2" ry="2" />
<text  x="691.50" y="575.5" ></text>
</g>
<g >
<title>__libc_start_main (1 samples, 0.83%)</title><rect x="659.0" y="581" width="9.8" height="15.0" fill="rgb(223,149,8)" rx="2" ry="2" />
<text  x="662.00" y="591.5" ></text>
</g>
<g >
<title>[unknown] (1 samples, 0.83%)</title><rect x="993.3" y="565" width="9.9" height="15.0" fill="rgb(221,113,27)" rx="2" ry="2" />
<text  x="996.33" y="575.5" ></text>
</g>
<g >
<title>[unknown] (1 samples, 0.83%)</title><rect x="983.5" y="245" width="9.8" height="15.0" fill="rgb(218,220,24)" rx="2" ry="2" />
<text  x="986.50" y="255.5" ></text>
</g>
<g >
<title>[unknown] (1 samples, 0.83%)</title><rect x="1003.2" y="501" width="9.8" height="15.0" fill="rgb(214,102,45)" rx="2" ry="2" />
<text  x="1006.17" y="511.5" ></text>
</g>
<g >
<title>[unknown] (1 samples, 0.83%)</title><rect x="993.3" y="357" width="9.9" height="15.0" fill="rgb(251,224,29)" rx="2" ry="2" />
<text  x="996.33" y="367.5" ></text>
</g>
<g >
<title>[unknown]  (30 samples, 25.00%)</title><rect x="698.3" y="469" width="295.0" height="15.0" fill="rgb(221,104,30)" rx="2" ry="2" />
<text  x="701.33" y="479.5" >[unknown] </text>
</g>
<g >
<title>[unknown] (1 samples, 0.83%)</title><rect x="1003.2" y="549" width="9.8" height="15.0" fill="rgb(227,62,31)" rx="2" ry="2" />
<text  x="1006.17" y="559.5" ></text>
</g>
<g >
<title>NaClAppThreadSpawn (27 samples, 22.50%)</title><rect x="727.8" y="309" width="265.5" height="15.0" fill="rgb(249,174,3)" rx="2" ry="2" />
<text  x="730.83" y="319.5" >NaClAppThreadSpawn</text>
</g>
<g >
<title>[unknown] (62 samples, 51.67%)</title><rect x="39.5" y="213" width="609.7" height="15.0" fill="rgb(215,65,18)" rx="2" ry="2" />
<text  x="42.50" y="223.5" >[unknown]</text>
</g>
<g >
<title>[unknown] (1 samples, 0.83%)</title><rect x="1003.2" y="437" width="9.8" height="15.0" fill="rgb(214,219,50)" rx="2" ry="2" />
<text  x="1006.17" y="447.5" ></text>
</g>
<g >
<title>[unknown] (1 samples, 0.83%)</title><rect x="649.2" y="309" width="9.8" height="15.0" fill="rgb(213,198,47)" rx="2" ry="2" />
<text  x="652.17" y="319.5" ></text>
</g>
<g >
<title>[unknown] (3 samples, 2.50%)</title><rect x="1160.5" y="405" width="29.5" height="15.0" fill="rgb(242,223,51)" rx="2" ry="2" />
<text  x="1163.50" y="415.5" >[u..</text>
</g>
<g >
<title>[unknown] (17 samples, 14.17%)</title><rect x="1022.8" y="533" width="167.2" height="15.0" fill="rgb(242,157,37)" rx="2" ry="2" />
<text  x="1025.83" y="543.5" >[unknown]</text>
</g>
<g >
<title>[unknown] (1 samples, 0.83%)</title><rect x="10.0" y="501" width="9.8" height="15.0" fill="rgb(233,62,12)" rx="2" ry="2" />
<text  x="13.00" y="511.5" ></text>
</g>
<g >
<title>[unknown] (1 samples, 0.83%)</title><rect x="993.3" y="325" width="9.9" height="15.0" fill="rgb(249,100,12)" rx="2" ry="2" />
<text  x="996.33" y="335.5" ></text>
</g>
<g >
<title>NaClSysExecve (3 samples, 2.50%)</title><rect x="698.3" y="325" width="29.5" height="15.0" fill="rgb(238,25,19)" rx="2" ry="2" />
<text  x="701.33" y="335.5" >Na..</text>
</g>
<g >
<title>[unknown] (1 samples, 0.83%)</title><rect x="659.0" y="373" width="9.8" height="15.0" fill="rgb(205,17,31)" rx="2" ry="2" />
<text  x="662.00" y="383.5" ></text>
</g>
<g >
<title>[unknown] (1 samples, 0.83%)</title><rect x="1180.2" y="341" width="9.8" height="15.0" fill="rgb(211,25,13)" rx="2" ry="2" />
<text  x="1183.17" y="351.5" ></text>
</g>
<g >
<title>ApplyDfaValidator_x86_64 (3 samples, 2.50%)</title><rect x="698.3" y="213" width="29.5" height="15.0" fill="rgb(212,12,37)" rx="2" ry="2" />
<text  x="701.33" y="223.5" >Ap..</text>
</g>
<g >
<title>[unknown] (63 samples, 52.50%)</title><rect x="29.7" y="421" width="619.5" height="15.0" fill="rgb(237,111,27)" rx="2" ry="2" />
<text  x="32.67" y="431.5" >[unknown]</text>
</g>
<g >
<title>[unknown] (1 samples, 0.83%)</title><rect x="649.2" y="293" width="9.8" height="15.0" fill="rgb(249,93,9)" rx="2" ry="2" />
<text  x="652.17" y="303.5" ></text>
</g>
<g >
<title>[unknown] (5 samples, 4.17%)</title><rect x="1140.8" y="437" width="49.2" height="15.0" fill="rgb(235,23,1)" rx="2" ry="2" />
<text  x="1143.83" y="447.5" >[unk..</text>
</g>
<g >
<title>PyEval_EvalCodeEx (1 samples, 0.83%)</title><rect x="668.8" y="581" width="9.9" height="15.0" fill="rgb(213,38,19)" rx="2" ry="2" />
<text  x="671.83" y="591.5" ></text>
</g>
<g >
<title>[unknown] (1 samples, 0.83%)</title><rect x="993.3" y="389" width="9.9" height="15.0" fill="rgb(219,147,51)" rx="2" ry="2" />
<text  x="996.33" y="399.5" ></text>
</g>
<g >
<title>[unknown] (4 samples, 3.33%)</title><rect x="944.2" y="101" width="39.3" height="15.0" fill="rgb(228,197,50)" rx="2" ry="2" />
<text  x="947.17" y="111.5" >[un..</text>
</g>
<g >
<title>perf_evlist__prepare_workload (1 samples, 0.83%)</title><rect x="659.0" y="517" width="9.8" height="15.0" fill="rgb(248,145,13)" rx="2" ry="2" />
<text  x="662.00" y="527.5" ></text>
</g>
<g >
<title>[unknown] (1 samples, 0.83%)</title><rect x="1003.2" y="405" width="9.8" height="15.0" fill="rgb(210,136,23)" rx="2" ry="2" />
<text  x="1006.17" y="415.5" ></text>
</g>
<g >
<title>NaClSyscallCSegHook (3 samples, 2.50%)</title><rect x="698.3" y="357" width="29.5" height="15.0" fill="rgb(225,79,15)" rx="2" ry="2" />
<text  x="701.33" y="367.5" >Na..</text>
</g>
</g>
</svg>
