<?xml version="1.0" standalone="no"?>
<!DOCTYPE svg PUBLIC "-//W3C//DTD SVG 1.1//EN" "http://www.w3.org/Graphics/SVG/1.1/DTD/svg11.dtd">
<svg version="1.1" width="1200" height="598" onload="init(evt)" viewBox="0 0 1200 598" xmlns="http://www.w3.org/2000/svg" xmlns:xlink="http://www.w3.org/1999/xlink">
<!-- Flame graph stack visualization. See https://github.com/brendangregg/FlameGraph for latest version, and http://www.brendangregg.com/flamegraphs.html for examples. -->
<!-- NOTES:  -->
<defs>
	<linearGradient id="background" y1="0" y2="1" x1="0" x2="0" >
		<stop stop-color="#eeeeee" offset="5%" />
		<stop stop-color="#eeeeb0" offset="95%" />
	</linearGradient>
</defs>
<style type="text/css">
	text { font-family:Verdana; font-size:12px; fill:rgb(0,0,0); }
	#search, #ignorecase { opacity:0.1; cursor:pointer; }
	#search:hover, #search.show, #ignorecase:hover, #ignorecase.show { opacity:1; }
	#subtitle { text-anchor:middle; font-color:rgb(160,160,160); }
	#title { text-anchor:middle; font-size:17px}
	#unzoom { cursor:pointer; }
	#frames > *:hover { stroke:black; stroke-width:0.5; cursor:pointer; }
	.hide { display:none; }
	.parent { opacity:0.5; }
</style>
<script type="text/ecmascript">
<![CDATA[
	"use strict";
	var details, searchbtn, unzoombtn, matchedtxt, svg, searching, currentSearchTerm, ignorecase, ignorecaseBtn;
	function init(evt) {
		details = document.getElementById("details").firstChild;
		searchbtn = document.getElementById("search");
		ignorecaseBtn = document.getElementById("ignorecase");
		unzoombtn = document.getElementById("unzoom");
		matchedtxt = document.getElementById("matched");
		svg = document.getElementsByTagName("svg")[0];
		searching = 0;
		currentSearchTerm = null;
	}

	window.addEventListener("click", function(e) {
		var target = find_group(e.target);
		if (target) {
			if (target.nodeName == "a") {
				if (e.ctrlKey === false) return;
				e.preventDefault();
			}
			if (target.classList.contains("parent")) unzoom();
			zoom(target);
		}
		else if (e.target.id == "unzoom") unzoom();
		else if (e.target.id == "search") search_prompt();
		else if (e.target.id == "ignorecase") toggle_ignorecase();
	}, false)

	// mouse-over for info
	// show
	window.addEventListener("mouseover", function(e) {
		var target = find_group(e.target);
		if (target) details.nodeValue = "Function: " + g_to_text(target);
	}, false)

	// clear
	window.addEventListener("mouseout", function(e) {
		var target = find_group(e.target);
		if (target) details.nodeValue = ' ';
	}, false)

	// ctrl-F for search
	window.addEventListener("keydown",function (e) {
		if (e.keyCode === 114 || (e.ctrlKey && e.keyCode === 70)) {
			e.preventDefault();
			search_prompt();
		}
	}, false)

	// ctrl-I to toggle case-sensitive search
	window.addEventListener("keydown",function (e) {
		if (e.ctrlKey && e.keyCode === 73) {
			e.preventDefault();
			toggle_ignorecase();
		}
	}, false)

	// functions
	function find_child(node, selector) {
		var children = node.querySelectorAll(selector);
		if (children.length) return children[0];
		return;
	}
	function find_group(node) {
		var parent = node.parentElement;
		if (!parent) return;
		if (parent.id == "frames") return node;
		return find_group(parent);
	}
	function orig_save(e, attr, val) {
		if (e.attributes["_orig_" + attr] != undefined) return;
		if (e.attributes[attr] == undefined) return;
		if (val == undefined) val = e.attributes[attr].value;
		e.setAttribute("_orig_" + attr, val);
	}
	function orig_load(e, attr) {
		if (e.attributes["_orig_"+attr] == undefined) return;
		e.attributes[attr].value = e.attributes["_orig_" + attr].value;
		e.removeAttribute("_orig_"+attr);
	}
	function g_to_text(e) {
		var text = find_child(e, "title").firstChild.nodeValue;
		return (text)
	}
	function g_to_func(e) {
		var func = g_to_text(e);
		// if there's any manipulation we want to do to the function
		// name before it's searched, do it here before returning.
		return (func);
	}
	function update_text(e) {
		var r = find_child(e, "rect");
		var t = find_child(e, "text");
		var w = parseFloat(r.attributes.width.value) -3;
		var txt = find_child(e, "title").textContent.replace(/\([^(]*\)$/,"");
		t.attributes.x.value = parseFloat(r.attributes.x.value) + 3;

		// Smaller than this size won't fit anything
		if (w < 2 * 12 * 0.59) {
			t.textContent = "";
			return;
		}

		t.textContent = txt;
		// Fit in full text width
		if (/^ *$/.test(txt) || t.getSubStringLength(0, txt.length) < w)
			return;

		for (var x = txt.length - 2; x > 0; x--) {
			if (t.getSubStringLength(0, x + 2) <= w) {
				t.textContent = txt.substring(0, x) + "..";
				return;
			}
		}
		t.textContent = "";
	}

	// zoom
	function zoom_reset(e) {
		if (e.attributes != undefined) {
			orig_load(e, "x");
			orig_load(e, "width");
		}
		if (e.childNodes == undefined) return;
		for (var i = 0, c = e.childNodes; i < c.length; i++) {
			zoom_reset(c[i]);
		}
	}
	function zoom_child(e, x, ratio) {
		if (e.attributes != undefined) {
			if (e.attributes.x != undefined) {
				orig_save(e, "x");
				e.attributes.x.value = (parseFloat(e.attributes.x.value) - x - 10) * ratio + 10;
				if (e.tagName == "text")
					e.attributes.x.value = find_child(e.parentNode, "rect[x]").attributes.x.value + 3;
			}
			if (e.attributes.width != undefined) {
				orig_save(e, "width");
				e.attributes.width.value = parseFloat(e.attributes.width.value) * ratio;
			}
		}

		if (e.childNodes == undefined) return;
		for (var i = 0, c = e.childNodes; i < c.length; i++) {
			zoom_child(c[i], x - 10, ratio);
		}
	}
	function zoom_parent(e) {
		if (e.attributes) {
			if (e.attributes.x != undefined) {
				orig_save(e, "x");
				e.attributes.x.value = 10;
			}
			if (e.attributes.width != undefined) {
				orig_save(e, "width");
				e.attributes.width.value = parseInt(svg.width.baseVal.value) - (10 * 2);
			}
		}
		if (e.childNodes == undefined) return;
		for (var i = 0, c = e.childNodes; i < c.length; i++) {
			zoom_parent(c[i]);
		}
	}
	function zoom(node) {
		var attr = find_child(node, "rect").attributes;
		var width = parseFloat(attr.width.value);
		var xmin = parseFloat(attr.x.value);
		var xmax = parseFloat(xmin + width);
		var ymin = parseFloat(attr.y.value);
		var ratio = (svg.width.baseVal.value - 2 * 10) / width;

		// XXX: Workaround for JavaScript float issues (fix me)
		var fudge = 0.0001;

		unzoombtn.classList.remove("hide");

		var el = document.getElementById("frames").children;
		for (var i = 0; i < el.length; i++) {
			var e = el[i];
			var a = find_child(e, "rect").attributes;
			var ex = parseFloat(a.x.value);
			var ew = parseFloat(a.width.value);
			var upstack;
			// Is it an ancestor
			if (0 == 0) {
				upstack = parseFloat(a.y.value) > ymin;
			} else {
				upstack = parseFloat(a.y.value) < ymin;
			}
			if (upstack) {
				// Direct ancestor
				if (ex <= xmin && (ex+ew+fudge) >= xmax) {
					e.classList.add("parent");
					zoom_parent(e);
					update_text(e);
				}
				// not in current path
				else
					e.classList.add("hide");
			}
			// Children maybe
			else {
				// no common path
				if (ex < xmin || ex + fudge >= xmax) {
					e.classList.add("hide");
				}
				else {
					zoom_child(e, xmin, ratio);
					update_text(e);
				}
			}
		}
		search();
	}
	function unzoom() {
		unzoombtn.classList.add("hide");
		var el = document.getElementById("frames").children;
		for(var i = 0; i < el.length; i++) {
			el[i].classList.remove("parent");
			el[i].classList.remove("hide");
			zoom_reset(el[i]);
			update_text(el[i]);
		}
		search();
	}

	// search
	function toggle_ignorecase() {
		ignorecase = !ignorecase;
		if (ignorecase) {
			ignorecaseBtn.classList.add("show");
		} else {
			ignorecaseBtn.classList.remove("show");
		}
		reset_search();
		search();
	}
	function reset_search() {
		var el = document.querySelectorAll("#frames rect");
		for (var i = 0; i < el.length; i++) {
			orig_load(el[i], "fill")
		}
	}
	function search_prompt() {
		if (!searching) {
			var term = prompt("Enter a search term (regexp " +
			    "allowed, eg: ^ext4_)"
			    + (ignorecase ? ", ignoring case" : "")
			    + "\nPress Ctrl-i to toggle case sensitivity", "");
			if (term != null) {
				currentSearchTerm = term;
				search();
			}
		} else {
			reset_search();
			searching = 0;
			currentSearchTerm = null;
			searchbtn.classList.remove("show");
			searchbtn.firstChild.nodeValue = "Search"
			matchedtxt.classList.add("hide");
			matchedtxt.firstChild.nodeValue = ""
		}
	}
	function search(term) {
		if (currentSearchTerm === null) return;
		var term = currentSearchTerm;

		var re = new RegExp(term, ignorecase ? 'i' : '');
		var el = document.getElementById("frames").children;
		var matches = new Object();
		var maxwidth = 0;
		for (var i = 0; i < el.length; i++) {
			var e = el[i];
			var func = g_to_func(e);
			var rect = find_child(e, "rect");
			if (func == null || rect == null)
				continue;

			// Save max width. Only works as we have a root frame
			var w = parseFloat(rect.attributes.width.value);
			if (w > maxwidth)
				maxwidth = w;

			if (func.match(re)) {
				// highlight
				var x = parseFloat(rect.attributes.x.value);
				orig_save(rect, "fill");
				rect.attributes.fill.value = "rgb(230,0,230)";

				// remember matches
				if (matches[x] == undefined) {
					matches[x] = w;
				} else {
					if (w > matches[x]) {
						// overwrite with parent
						matches[x] = w;
					}
				}
				searching = 1;
			}
		}
		if (!searching)
			return;

		searchbtn.classList.add("show");
		searchbtn.firstChild.nodeValue = "Reset Search";

		// calculate percent matched, excluding vertical overlap
		var count = 0;
		var lastx = -1;
		var lastw = 0;
		var keys = Array();
		for (k in matches) {
			if (matches.hasOwnProperty(k))
				keys.push(k);
		}
		// sort the matched frames by their x location
		// ascending, then width descending
		keys.sort(function(a, b){
			return a - b;
		});
		// Step through frames saving only the biggest bottom-up frames
		// thanks to the sort order. This relies on the tree property
		// where children are always smaller than their parents.
		var fudge = 0.0001;	// JavaScript floating point
		for (var k in keys) {
			var x = parseFloat(keys[k]);
			var w = matches[keys[k]];
			if (x >= lastx + lastw - fudge) {
				count += w;
				lastx = x;
				lastw = w;
			}
		}
		// display matched percent
		matchedtxt.classList.remove("hide");
		var pct = 100 * count / maxwidth;
		if (pct != 100) pct = pct.toFixed(1)
		matchedtxt.firstChild.nodeValue = "Matched: " + pct + "%";
	}
]]>
</script>
<rect x="0.0" y="0" width="1200.0" height="598.0" fill="url(#background)"  />
<text id="title" x="600.00" y="24" >Flame Graph</text>
<text id="details" x="10.00" y="581" > </text>
<text id="unzoom" x="10.00" y="24" class="hide">Reset Zoom</text>
<text id="search" x="1090.00" y="24" >Search</text>
<text id="ignorecase" x="1174.00" y="24" >ic</text>
<text id="matched" x="1090.00" y="581" > </text>
<g id="frames">
<g >
<title>call_cpuidle (1 samples, 0.81%)</title><rect x="1180.5" y="405" width="9.5" height="15.0" fill="rgb(227,2,33)" rx="2" ry="2" />
<text  x="1183.48" y="415.5" ></text>
</g>
<g >
<title>remote_function (62 samples, 50.00%)</title><rect x="38.5" y="245" width="590.0" height="15.0" fill="rgb(243,60,17)" rx="2" ry="2" />
<text  x="41.55" y="255.5" >remote_function</text>
</g>
<g >
<title>perf_event_for_each_child (62 samples, 50.00%)</title><rect x="38.5" y="325" width="590.0" height="15.0" fill="rgb(234,177,33)" rx="2" ry="2" />
<text  x="41.55" y="335.5" >perf_event_for_each_child</text>
</g>
<g >
<title>prepare_exec_creds (1 samples, 0.81%)</title><rect x="628.5" y="341" width="9.6" height="15.0" fill="rgb(235,31,28)" rx="2" ry="2" />
<text  x="631.55" y="351.5" ></text>
</g>
<g >
<title>__handle_mm_fault (7 samples, 5.65%)</title><rect x="847.4" y="85" width="66.6" height="15.0" fill="rgb(221,124,11)" rx="2" ry="2" />
<text  x="850.42" y="95.5" >__handl..</text>
</g>
<g >
<title>entry_SYSCALL_64_after_hwframe (62 samples, 50.00%)</title><rect x="38.5" y="405" width="590.0" height="15.0" fill="rgb(235,2,37)" rx="2" ry="2" />
<text  x="41.55" y="415.5" >entry_SYSCALL_64_after_hwframe</text>
</g>
<g >
<title>alloc_pages_vma (3 samples, 2.42%)</title><rect x="856.9" y="69" width="28.6" height="15.0" fill="rgb(243,42,27)" rx="2" ry="2" />
<text  x="859.94" y="79.5" >al..</text>
</g>
<g >
<title>[unknown] (1 samples, 0.81%)</title><rect x="961.6" y="421" width="9.5" height="15.0" fill="rgb(238,60,5)" rx="2" ry="2" />
<text  x="964.61" y="431.5" ></text>
</g>
<g >
<title>[unknown] (2 samples, 1.61%)</title><rect x="952.1" y="485" width="19.0" height="15.0" fill="rgb(241,219,53)" rx="2" ry="2" />
<text  x="955.10" y="495.5" ></text>
</g>
<g >
<title>main (63 samples, 50.81%)</title><rect x="29.0" y="485" width="599.5" height="15.0" fill="rgb(208,140,19)" rx="2" ry="2" />
<text  x="32.03" y="495.5" >main</text>
</g>
<g >
<title>do_syscall_64 (62 samples, 50.00%)</title><rect x="38.5" y="389" width="590.0" height="15.0" fill="rgb(227,161,4)" rx="2" ry="2" />
<text  x="41.55" y="399.5" >do_syscall_64</text>
</g>
<g >
<title>entry_SYSCALL_64_after_hwframe (1 samples, 0.81%)</title><rect x="29.0" y="421" width="9.5" height="15.0" fill="rgb(245,59,0)" rx="2" ry="2" />
<text  x="32.03" y="431.5" ></text>
</g>
<g >
<title>__intel_pmu_enable_all.constprop.23 (61 samples, 49.19%)</title><rect x="48.1" y="149" width="580.4" height="15.0" fill="rgb(226,106,52)" rx="2" ry="2" />
<text  x="51.06" y="159.5" >__intel_pmu_enable_all.constprop.23</text>
</g>
<g >
<title>[unknown]  (27 samples, 21.77%)</title><rect x="657.1" y="405" width="256.9" height="15.0" fill="rgb(224,136,53)" rx="2" ry="2" />
<text  x="660.10" y="415.5" >[unknown] </text>
</g>
<g >
<title>__pollwait (1 samples, 0.81%)</title><rect x="29.0" y="341" width="9.5" height="15.0" fill="rgb(205,3,35)" rx="2" ry="2" />
<text  x="32.03" y="351.5" ></text>
</g>
<g >
<title>cpu_startup_entry (22 samples, 17.74%)</title><rect x="971.1" y="485" width="209.4" height="15.0" fill="rgb(229,40,24)" rx="2" ry="2" />
<text  x="974.13" y="495.5" >cpu_startup_entry</text>
</g>
<g >
<title>[sel_ldr] (27 samples, 21.77%)</title><rect x="657.1" y="325" width="256.9" height="15.0" fill="rgb(244,29,26)" rx="2" ry="2" />
<text  x="660.10" y="335.5" >[sel_ldr]</text>
</g>
<g >
<title>__libc_start_main (1 samples, 0.81%)</title><rect x="628.5" y="517" width="9.6" height="15.0" fill="rgb(248,96,13)" rx="2" ry="2" />
<text  x="631.55" y="527.5" ></text>
</g>
<g >
<title>do_execveat_common.isra.34 (1 samples, 0.81%)</title><rect x="628.5" y="373" width="9.6" height="15.0" fill="rgb(211,118,24)" rx="2" ry="2" />
<text  x="631.55" y="383.5" ></text>
</g>
<g >
<title>[unknown] (2 samples, 1.61%)</title><rect x="952.1" y="469" width="19.0" height="15.0" fill="rgb(250,168,11)" rx="2" ry="2" />
<text  x="955.10" y="479.5" ></text>
</g>
<g >
<title>do_syscall_64 (1 samples, 0.81%)</title><rect x="29.0" y="405" width="9.5" height="15.0" fill="rgb(206,34,6)" rx="2" ry="2" />
<text  x="32.03" y="415.5" ></text>
</g>
<g >
<title>page_fault (8 samples, 6.45%)</title><rect x="837.9" y="149" width="76.1" height="15.0" fill="rgb(236,30,16)" rx="2" ry="2" />
<text  x="840.90" y="159.5" >page_fault</text>
</g>
<g >
<title>run_builtin (1 samples, 0.81%)</title><rect x="628.5" y="485" width="9.6" height="15.0" fill="rgb(212,35,20)" rx="2" ry="2" />
<text  x="631.55" y="495.5" ></text>
</g>
<g >
<title>sys_poll (1 samples, 0.81%)</title><rect x="29.0" y="389" width="9.5" height="15.0" fill="rgb(209,229,9)" rx="2" ry="2" />
<text  x="32.03" y="399.5" ></text>
</g>
<g >
<title>_raw_spin_unlock_irqrestore (1 samples, 0.81%)</title><rect x="29.0" y="309" width="9.5" height="15.0" fill="rgb(205,212,9)" rx="2" ry="2" />
<text  x="32.03" y="319.5" ></text>
</g>
<g >
<title>all (124 samples, 100%)</title><rect x="10.0" y="549" width="1180.0" height="15.0" fill="rgb(234,177,21)" rx="2" ry="2" />
<text  x="13.00" y="559.5" ></text>
</g>
<g >
<title>NaClSysFork (27 samples, 21.77%)</title><rect x="657.1" y="277" width="256.9" height="15.0" fill="rgb(247,4,26)" rx="2" ry="2" />
<text  x="660.10" y="287.5" >NaClSysFork</text>
</g>
<g >
<title>[unknown]  (27 samples, 21.77%)</title><rect x="657.1" y="469" width="256.9" height="15.0" fill="rgb(237,229,47)" rx="2" ry="2" />
<text  x="660.10" y="479.5" >[unknown] </text>
</g>
<g >
<title>do_syscall_64 (1 samples, 0.81%)</title><rect x="628.5" y="405" width="9.6" height="15.0" fill="rgb(239,172,51)" rx="2" ry="2" />
<text  x="631.55" y="415.5" ></text>
</g>
<g >
<title>swapper (25 samples, 20.16%)</title><rect x="952.1" y="533" width="237.9" height="15.0" fill="rgb(216,156,16)" rx="2" ry="2" />
<text  x="955.10" y="543.5" >swapper</text>
</g>
<g >
<title>cmd_record (1 samples, 0.81%)</title><rect x="628.5" y="469" width="9.6" height="15.0" fill="rgb(243,4,3)" rx="2" ry="2" />
<text  x="631.55" y="479.5" ></text>
</g>
<g >
<title>[unknown] (1 samples, 0.81%)</title><rect x="961.6" y="405" width="9.5" height="15.0" fill="rgb(247,64,37)" rx="2" ry="2" />
<text  x="964.61" y="415.5" ></text>
</g>
<g >
<title>perf_ioctl (62 samples, 50.00%)</title><rect x="38.5" y="341" width="590.0" height="15.0" fill="rgb(217,75,17)" rx="2" ry="2" />
<text  x="41.55" y="351.5" >perf_ioctl</text>
</g>
<g >
<title>native_write_msr (46 samples, 37.10%)</title><rect x="57.6" y="133" width="437.7" height="15.0" fill="rgb(225,6,13)" rx="2" ry="2" />
<text  x="60.58" y="143.5" >native_write_msr</text>
</g>
<g >
<title>add_wait_queue (1 samples, 0.81%)</title><rect x="29.0" y="325" width="9.5" height="15.0" fill="rgb(207,115,41)" rx="2" ry="2" />
<text  x="32.03" y="335.5" ></text>
</g>
<g >
<title>calc_load_nohz_stop (1 samples, 0.81%)</title><rect x="1171.0" y="437" width="9.5" height="15.0" fill="rgb(241,135,26)" rx="2" ry="2" />
<text  x="1173.97" y="447.5" ></text>
</g>
<g >
<title>ctx_resched (62 samples, 50.00%)</title><rect x="38.5" y="197" width="590.0" height="15.0" fill="rgb(233,207,53)" rx="2" ry="2" />
<text  x="41.55" y="207.5" >ctx_resched</text>
</g>
<g >
<title>perf_poll (1 samples, 0.81%)</title><rect x="29.0" y="357" width="9.5" height="15.0" fill="rgb(223,222,29)" rx="2" ry="2" />
<text  x="32.03" y="367.5" ></text>
</g>
<g >
<title>intel_idle (1 samples, 0.81%)</title><rect x="1180.5" y="357" width="9.5" height="15.0" fill="rgb(210,198,43)" rx="2" ry="2" />
<text  x="1183.48" y="367.5" ></text>
</g>
<g >
<title>do_page_fault (1 samples, 0.81%)</title><rect x="942.6" y="485" width="9.5" height="15.0" fill="rgb(221,210,12)" rx="2" ry="2" />
<text  x="945.58" y="495.5" ></text>
</g>
<g >
<title>do_vfs_ioctl (62 samples, 50.00%)</title><rect x="38.5" y="357" width="590.0" height="15.0" fill="rgb(246,209,36)" rx="2" ry="2" />
<text  x="41.55" y="367.5" >do_vfs_ioctl</text>
</g>
<g >
<title>rest_init (1 samples, 0.81%)</title><rect x="1180.5" y="453" width="9.5" height="15.0" fill="rgb(220,201,53)" rx="2" ry="2" />
<text  x="1183.48" y="463.5" ></text>
</g>
<g >
<title>PyFrame_New (1 samples, 0.81%)</title><rect x="638.1" y="501" width="9.5" height="15.0" fill="rgb(234,96,18)" rx="2" ry="2" />
<text  x="641.06" y="511.5" ></text>
</g>
<g >
<title>NaClDyncodeVisit (1 samples, 0.81%)</title><rect x="657.1" y="181" width="9.5" height="15.0" fill="rgb(212,196,13)" rx="2" ry="2" />
<text  x="660.10" y="191.5" ></text>
</g>
<g >
<title>[unknown] (27 samples, 21.77%)</title><rect x="657.1" y="501" width="256.9" height="15.0" fill="rgb(249,159,1)" rx="2" ry="2" />
<text  x="660.10" y="511.5" >[unknown]</text>
</g>
<g >
<title>start_kernel (1 samples, 0.81%)</title><rect x="1180.5" y="469" width="9.5" height="15.0" fill="rgb(228,114,14)" rx="2" ry="2" />
<text  x="1183.48" y="479.5" ></text>
</g>
<g >
<title>tick_nohz_idle_exit (1 samples, 0.81%)</title><rect x="1171.0" y="453" width="9.5" height="15.0" fill="rgb(254,105,36)" rx="2" ry="2" />
<text  x="1173.97" y="463.5" ></text>
</g>
<g >
<title>cpu_startup_entry (1 samples, 0.81%)</title><rect x="1180.5" y="437" width="9.5" height="15.0" fill="rgb(215,115,0)" rx="2" ry="2" />
<text  x="1183.48" y="447.5" ></text>
</g>
<g >
<title>x86_pmu_enable (61 samples, 49.19%)</title><rect x="48.1" y="181" width="580.4" height="15.0" fill="rgb(238,49,35)" rx="2" ry="2" />
<text  x="51.06" y="191.5" >x86_pmu_enable</text>
</g>
<g >
<title>cpuidle_enter (21 samples, 16.94%)</title><rect x="971.1" y="437" width="199.9" height="15.0" fill="rgb(251,151,0)" rx="2" ry="2" />
<text  x="974.13" y="447.5" >cpuidle_enter</text>
</g>
<g >
<title>x86_64_start_kernel (1 samples, 0.81%)</title><rect x="1180.5" y="501" width="9.5" height="15.0" fill="rgb(209,134,47)" rx="2" ry="2" />
<text  x="1183.48" y="511.5" ></text>
</g>
<g >
<title>generic_exec_single (62 samples, 50.00%)</title><rect x="38.5" y="261" width="590.0" height="15.0" fill="rgb(210,105,54)" rx="2" ry="2" />
<text  x="41.55" y="271.5" >generic_exec_single</text>
</g>
<g >
<title>nmi_restore (14 samples, 11.29%)</title><rect x="495.3" y="133" width="133.2" height="15.0" fill="rgb(248,148,27)" rx="2" ry="2" />
<text  x="498.32" y="143.5" >nmi_restore</text>
</g>
<g >
<title>native_irq_return_iret (1 samples, 0.81%)</title><rect x="828.4" y="149" width="9.5" height="15.0" fill="rgb(246,214,16)" rx="2" ry="2" />
<text  x="831.39" y="159.5" ></text>
</g>
<g >
<title>[unknown]  (27 samples, 21.77%)</title><rect x="657.1" y="341" width="256.9" height="15.0" fill="rgb(242,44,25)" rx="2" ry="2" />
<text  x="660.10" y="351.5" >[unknown] </text>
</g>
<g >
<title>NaClSysForkDecoder (27 samples, 21.77%)</title><rect x="657.1" y="293" width="256.9" height="15.0" fill="rgb(213,82,17)" rx="2" ry="2" />
<text  x="660.10" y="303.5" >NaClSysForkDecoder</text>
</g>
<g >
<title>sys_execve (1 samples, 0.81%)</title><rect x="628.5" y="389" width="9.6" height="15.0" fill="rgb(222,61,29)" rx="2" ry="2" />
<text  x="631.55" y="399.5" ></text>
</g>
<g >
<title>[_collections.so] (1 samples, 0.81%)</title><rect x="647.6" y="501" width="9.5" height="15.0" fill="rgb(243,156,7)" rx="2" ry="2" />
<text  x="650.58" y="511.5" ></text>
</g>
<g >
<title>run_builtin (63 samples, 50.81%)</title><rect x="29.0" y="469" width="599.5" height="15.0" fill="rgb(236,15,15)" rx="2" ry="2" />
<text  x="32.03" y="479.5" >run_builtin</text>
</g>
<g >
<title>NaClForkThreadContextSetup (27 samples, 21.77%)</title><rect x="657.1" y="229" width="256.9" height="15.0" fill="rgb(247,38,13)" rx="2" ry="2" />
<text  x="660.10" y="239.5" >NaClForkThreadContextSetup</text>
</g>
<g >
<title>do_idle (22 samples, 17.74%)</title><rect x="971.1" y="469" width="209.4" height="15.0" fill="rgb(231,69,52)" rx="2" ry="2" />
<text  x="974.13" y="479.5" >do_idle</text>
</g>
<g >
<title>__handle_mm_fault (1 samples, 0.81%)</title><rect x="942.6" y="437" width="9.5" height="15.0" fill="rgb(222,97,27)" rx="2" ry="2" />
<text  x="945.58" y="447.5" ></text>
</g>
<g >
<title>__alloc_pages_nodemask (3 samples, 2.42%)</title><rect x="856.9" y="53" width="28.6" height="15.0" fill="rgb(229,52,40)" rx="2" ry="2" />
<text  x="859.94" y="63.5" >__..</text>
</g>
<g >
<title>prepare_bprm_creds (1 samples, 0.81%)</title><rect x="628.5" y="357" width="9.6" height="15.0" fill="rgb(253,19,16)" rx="2" ry="2" />
<text  x="631.55" y="367.5" ></text>
</g>
<g >
<title>irq_exit (1 samples, 0.81%)</title><rect x="971.1" y="373" width="9.5" height="15.0" fill="rgb(242,125,52)" rx="2" ry="2" />
<text  x="974.13" y="383.5" ></text>
</g>
<g >
<title>perf_evlist__prepare_workload (1 samples, 0.81%)</title><rect x="628.5" y="453" width="9.6" height="15.0" fill="rgb(244,87,4)" rx="2" ry="2" />
<text  x="631.55" y="463.5" ></text>
</g>
<g >
<title>cmd_record (63 samples, 50.81%)</title><rect x="29.0" y="453" width="599.5" height="15.0" fill="rgb(229,104,12)" rx="2" ry="2" />
<text  x="32.03" y="463.5" >cmd_record</text>
</g>
<g >
<title>get_page_from_freelist (1 samples, 0.81%)</title><rect x="876.0" y="37" width="9.5" height="15.0" fill="rgb(241,133,35)" rx="2" ry="2" />
<text  x="878.97" y="47.5" ></text>
</g>
<g >
<title>prepare_creds (1 samples, 0.81%)</title><rect x="628.5" y="325" width="9.6" height="15.0" fill="rgb(209,60,46)" rx="2" ry="2" />
<text  x="631.55" y="335.5" ></text>
</g>
<g >
<title>NaClVmmapVisit (26 samples, 20.97%)</title><rect x="666.6" y="181" width="247.4" height="15.0" fill="rgb(219,78,47)" rx="2" ry="2" />
<text  x="669.61" y="191.5" >NaClVmmapVisit</text>
</g>
<g >
<title>[unknown] (1 samples, 0.81%)</title><rect x="961.6" y="389" width="9.5" height="15.0" fill="rgb(239,93,49)" rx="2" ry="2" />
<text  x="964.61" y="399.5" ></text>
</g>
<g >
<title>__libc_start_main (63 samples, 50.81%)</title><rect x="29.0" y="501" width="599.5" height="15.0" fill="rgb(205,68,33)" rx="2" ry="2" />
<text  x="32.03" y="511.5" >__libc_start_main</text>
</g>
<g >
<title>__memmove_avx_unaligned_erms (1 samples, 0.81%)</title><rect x="923.5" y="501" width="9.6" height="15.0" fill="rgb(205,216,44)" rx="2" ry="2" />
<text  x="926.55" y="511.5" ></text>
</g>
<g >
<title>handle_mm_fault (1 samples, 0.81%)</title><rect x="942.6" y="453" width="9.5" height="15.0" fill="rgb(249,189,46)" rx="2" ry="2" />
<text  x="945.58" y="463.5" ></text>
</g>
<g >
<title>__GI___execve (1 samples, 0.81%)</title><rect x="628.5" y="437" width="9.6" height="15.0" fill="rgb(220,209,51)" rx="2" ry="2" />
<text  x="631.55" y="447.5" ></text>
</g>
<g >
<title>perf (66 samples, 53.23%)</title><rect x="10.0" y="533" width="628.1" height="15.0" fill="rgb(254,107,41)" rx="2" ry="2" />
<text  x="13.00" y="543.5" >perf</text>
</g>
<g >
<title>intel_pmu_enable_all (61 samples, 49.19%)</title><rect x="48.1" y="165" width="580.4" height="15.0" fill="rgb(248,129,17)" rx="2" ry="2" />
<text  x="51.06" y="175.5" >intel_pmu_enable_all</text>
</g>
<g >
<title>[unknown] (1 samples, 0.81%)</title><rect x="961.6" y="453" width="9.5" height="15.0" fill="rgb(216,151,48)" rx="2" ry="2" />
<text  x="964.61" y="463.5" ></text>
</g>
<g >
<title>event_function (62 samples, 50.00%)</title><rect x="38.5" y="229" width="590.0" height="15.0" fill="rgb(229,127,30)" rx="2" ry="2" />
<text  x="41.55" y="239.5" >event_function</text>
</g>
<g >
<title>NaClCreateThread (27 samples, 21.77%)</title><rect x="657.1" y="261" width="256.9" height="15.0" fill="rgb(236,169,21)" rx="2" ry="2" />
<text  x="660.10" y="271.5" >NaClCreateThread</text>
</g>
<g >
<title>smp_call_function_single (62 samples, 50.00%)</title><rect x="38.5" y="277" width="590.0" height="15.0" fill="rgb(254,79,35)" rx="2" ry="2" />
<text  x="41.55" y="287.5" >smp_call_function_single</text>
</g>
<g >
<title>entry_SYSCALL_64_after_hwframe (1 samples, 0.81%)</title><rect x="628.5" y="421" width="9.6" height="15.0" fill="rgb(237,109,11)" rx="2" ry="2" />
<text  x="631.55" y="431.5" ></text>
</g>
<g >
<title>cpuidle_enter_state (21 samples, 16.94%)</title><rect x="971.1" y="421" width="199.9" height="15.0" fill="rgb(253,200,18)" rx="2" ry="2" />
<text  x="974.13" y="431.5" >cpuidle_enter_state</text>
</g>
<g >
<title>sys_ioctl (62 samples, 50.00%)</title><rect x="38.5" y="373" width="590.0" height="15.0" fill="rgb(226,44,8)" rx="2" ry="2" />
<text  x="41.55" y="383.5" >sys_ioctl</text>
</g>
<g >
<title>apic_timer_interrupt (1 samples, 0.81%)</title><rect x="971.1" y="405" width="9.5" height="15.0" fill="rgb(205,219,43)" rx="2" ry="2" />
<text  x="974.13" y="415.5" ></text>
</g>
<g >
<title>cpuidle_enter (1 samples, 0.81%)</title><rect x="1180.5" y="389" width="9.5" height="15.0" fill="rgb(224,67,6)" rx="2" ry="2" />
<text  x="1183.48" y="399.5" ></text>
</g>
<g >
<title>rcu_process_callbacks (1 samples, 0.81%)</title><rect x="971.1" y="341" width="9.5" height="15.0" fill="rgb(212,169,27)" rx="2" ry="2" />
<text  x="974.13" y="351.5" ></text>
</g>
<g >
<title>event_function_call (62 samples, 50.00%)</title><rect x="38.5" y="293" width="590.0" height="15.0" fill="rgb(248,59,51)" rx="2" ry="2" />
<text  x="41.55" y="303.5" >event_function_call</text>
</g>
<g >
<title>NaClAppThreadSpawn (27 samples, 21.77%)</title><rect x="657.1" y="245" width="256.9" height="15.0" fill="rgb(209,27,30)" rx="2" ry="2" />
<text  x="660.10" y="255.5" >NaClAppThreadSpawn</text>
</g>
<g >
<title>[unknown] (2 samples, 1.61%)</title><rect x="952.1" y="501" width="19.0" height="15.0" fill="rgb(254,194,25)" rx="2" ry="2" />
<text  x="955.10" y="511.5" ></text>
</g>
<g >
<title>call_cpuidle (21 samples, 16.94%)</title><rect x="971.1" y="453" width="199.9" height="15.0" fill="rgb(249,217,16)" rx="2" ry="2" />
<text  x="974.13" y="463.5" >call_cpuidle</text>
</g>
<g >
<title>do_idle (1 samples, 0.81%)</title><rect x="1180.5" y="421" width="9.5" height="15.0" fill="rgb(254,114,14)" rx="2" ry="2" />
<text  x="1183.48" y="431.5" ></text>
</g>
<g >
<title>do_page_fault (8 samples, 6.45%)</title><rect x="837.9" y="133" width="76.1" height="15.0" fill="rgb(230,28,24)" rx="2" ry="2" />
<text  x="840.90" y="143.5" >do_page_..</text>
</g>
<g >
<title>[unknown]  (27 samples, 21.77%)</title><rect x="657.1" y="357" width="256.9" height="15.0" fill="rgb(209,175,17)" rx="2" ry="2" />
<text  x="660.10" y="367.5" >[unknown] </text>
</g>
<g >
<title>filemap_map_pages (1 samples, 0.81%)</title><rect x="942.6" y="421" width="9.5" height="15.0" fill="rgb(210,223,20)" rx="2" ry="2" />
<text  x="945.58" y="431.5" ></text>
</g>
<g >
<title>shmem_fault (1 samples, 0.81%)</title><rect x="847.4" y="53" width="9.5" height="15.0" fill="rgb(226,138,45)" rx="2" ry="2" />
<text  x="850.42" y="63.5" ></text>
</g>
<g >
<title>clear_page_erms (1 samples, 0.81%)</title><rect x="866.5" y="37" width="9.5" height="15.0" fill="rgb(241,32,11)" rx="2" ry="2" />
<text  x="869.45" y="47.5" ></text>
</g>
<g >
<title>[unknown]  (27 samples, 21.77%)</title><rect x="657.1" y="373" width="256.9" height="15.0" fill="rgb(216,92,16)" rx="2" ry="2" />
<text  x="660.10" y="383.5" >[unknown] </text>
</g>
<g >
<title>default_do_nmi (1 samples, 0.81%)</title><rect x="48.1" y="133" width="9.5" height="15.0" fill="rgb(240,200,43)" rx="2" ry="2" />
<text  x="51.06" y="143.5" ></text>
</g>
<g >
<title>main (1 samples, 0.81%)</title><rect x="628.5" y="501" width="9.6" height="15.0" fill="rgb(233,94,2)" rx="2" ry="2" />
<text  x="631.55" y="511.5" ></text>
</g>
<g >
<title>start_secondary (22 samples, 17.74%)</title><rect x="971.1" y="501" width="209.4" height="15.0" fill="rgb(246,8,45)" rx="2" ry="2" />
<text  x="974.13" y="511.5" >start_secondary</text>
</g>
<g >
<title>NaClCopyExecutionContext (27 samples, 21.77%)</title><rect x="657.1" y="213" width="256.9" height="15.0" fill="rgb(247,160,18)" rx="2" ry="2" />
<text  x="660.10" y="223.5" >NaClCopyExecutionContext</text>
</g>
<g >
<title>unlock_page (1 samples, 0.81%)</title><rect x="895.0" y="53" width="9.5" height="15.0" fill="rgb(230,169,24)" rx="2" ry="2" />
<text  x="898.00" y="63.5" ></text>
</g>
<g >
<title>__poll (1 samples, 0.81%)</title><rect x="29.0" y="437" width="9.5" height="15.0" fill="rgb(244,194,45)" rx="2" ry="2" />
<text  x="32.03" y="447.5" ></text>
</g>
<g >
<title>[unknown]  (27 samples, 21.77%)</title><rect x="657.1" y="389" width="256.9" height="15.0" fill="rgb(239,62,28)" rx="2" ry="2" />
<text  x="660.10" y="399.5" >[unknown] </text>
</g>
<g >
<title>handle_mm_fault (7 samples, 5.65%)</title><rect x="847.4" y="101" width="66.6" height="15.0" fill="rgb(235,221,13)" rx="2" ry="2" />
<text  x="850.42" y="111.5" >handle_..</text>
</g>
<g >
<title>__run_fork_handlers (1 samples, 0.81%)</title><rect x="942.6" y="517" width="9.5" height="15.0" fill="rgb(250,36,25)" rx="2" ry="2" />
<text  x="945.58" y="527.5" ></text>
</g>
<g >
<title>__softirqentry_text_start (1 samples, 0.81%)</title><rect x="971.1" y="357" width="9.5" height="15.0" fill="rgb(248,96,45)" rx="2" ry="2" />
<text  x="974.13" y="367.5" ></text>
</g>
<g >
<title>intel_idle (20 samples, 16.13%)</title><rect x="980.6" y="405" width="190.4" height="15.0" fill="rgb(219,119,14)" rx="2" ry="2" />
<text  x="983.65" y="415.5" >intel_idle</text>
</g>
<g >
<title>[unknown]  (27 samples, 21.77%)</title><rect x="657.1" y="421" width="256.9" height="15.0" fill="rgb(231,210,24)" rx="2" ry="2" />
<text  x="660.10" y="431.5" >[unknown] </text>
</g>
<g >
<title>__memmove_avx_unaligned_erms (1 samples, 0.81%)</title><rect x="657.1" y="165" width="9.5" height="15.0" fill="rgb(228,108,24)" rx="2" ry="2" />
<text  x="660.10" y="175.5" ></text>
</g>
<g >
<title>clear_page_erms (1 samples, 0.81%)</title><rect x="847.4" y="37" width="9.5" height="15.0" fill="rgb(241,95,46)" rx="2" ry="2" />
<text  x="850.42" y="47.5" ></text>
</g>
<g >
<title>filemap_map_pages (2 samples, 1.61%)</title><rect x="885.5" y="69" width="19.0" height="15.0" fill="rgb(211,14,33)" rx="2" ry="2" />
<text  x="888.48" y="79.5" ></text>
</g>
<g >
<title>__do_page_fault (8 samples, 6.45%)</title><rect x="837.9" y="117" width="76.1" height="15.0" fill="rgb(251,143,15)" rx="2" ry="2" />
<text  x="840.90" y="127.5" >__do_pag..</text>
</g>
<g >
<title>__do_fault (1 samples, 0.81%)</title><rect x="847.4" y="69" width="9.5" height="15.0" fill="rgb(248,32,39)" rx="2" ry="2" />
<text  x="850.42" y="79.5" ></text>
</g>
<g >
<title>page_fault (1 samples, 0.81%)</title><rect x="942.6" y="501" width="9.5" height="15.0" fill="rgb(233,77,30)" rx="2" ry="2" />
<text  x="945.58" y="511.5" ></text>
</g>
<g >
<title>_perf_event_enable (62 samples, 50.00%)</title><rect x="38.5" y="309" width="590.0" height="15.0" fill="rgb(236,149,32)" rx="2" ry="2" />
<text  x="41.55" y="319.5" >_perf_event_enable</text>
</g>
<g >
<title>NaClVmCopyEntry (7 samples, 5.65%)</title><rect x="666.6" y="165" width="66.6" height="15.0" fill="rgb(226,66,20)" rx="2" ry="2" />
<text  x="669.61" y="175.5" >NaClVmC..</text>
</g>
<g >
<title>[unknown]  (27 samples, 21.77%)</title><rect x="657.1" y="437" width="256.9" height="15.0" fill="rgb(224,11,54)" rx="2" ry="2" />
<text  x="660.10" y="447.5" >[unknown] </text>
</g>
<g >
<title>evlist__enable (62 samples, 50.00%)</title><rect x="38.5" y="437" width="590.0" height="15.0" fill="rgb(237,57,50)" rx="2" ry="2" />
<text  x="41.55" y="447.5" >evlist__enable</text>
</g>
<g >
<title>__do_page_fault (1 samples, 0.81%)</title><rect x="942.6" y="469" width="9.5" height="15.0" fill="rgb(252,184,17)" rx="2" ry="2" />
<text  x="945.58" y="479.5" ></text>
</g>
<g >
<title>page_add_new_anon_rmap (1 samples, 0.81%)</title><rect x="904.5" y="69" width="9.5" height="15.0" fill="rgb(236,110,2)" rx="2" ry="2" />
<text  x="907.52" y="79.5" ></text>
</g>
<g >
<title>intel_pmu_enable_all (1 samples, 0.81%)</title><rect x="38.5" y="181" width="9.6" height="15.0" fill="rgb(215,219,33)" rx="2" ry="2" />
<text  x="41.55" y="191.5" ></text>
</g>
<g >
<title>[unknown] (32 samples, 25.81%)</title><rect x="638.1" y="517" width="304.5" height="15.0" fill="rgb(227,79,43)" rx="2" ry="2" />
<text  x="641.06" y="527.5" >[unknown]</text>
</g>
<g >
<title>__GI___ioctl (62 samples, 50.00%)</title><rect x="38.5" y="421" width="590.0" height="15.0" fill="rgb(251,20,29)" rx="2" ry="2" />
<text  x="41.55" y="431.5" >__GI___ioctl</text>
</g>
<g >
<title>sel_ldr (33 samples, 26.61%)</title><rect x="638.1" y="533" width="314.0" height="15.0" fill="rgb(222,203,6)" rx="2" ry="2" />
<text  x="641.06" y="543.5" >sel_ldr</text>
</g>
<g >
<title>[unknown]  (27 samples, 21.77%)</title><rect x="657.1" y="453" width="256.9" height="15.0" fill="rgb(250,8,12)" rx="2" ry="2" />
<text  x="660.10" y="463.5" >[unknown] </text>
</g>
<g >
<title>[unknown] (1 samples, 0.81%)</title><rect x="961.6" y="437" width="9.5" height="15.0" fill="rgb(211,117,46)" rx="2" ry="2" />
<text  x="964.61" y="447.5" ></text>
</g>
<g >
<title>NaClPatchAddr (7 samples, 5.65%)</title><rect x="666.6" y="149" width="66.6" height="15.0" fill="rgb(207,172,23)" rx="2" ry="2" />
<text  x="669.61" y="159.5" >NaClPat..</text>
</g>
<g >
<title>__perf_event_enable (62 samples, 50.00%)</title><rect x="38.5" y="213" width="590.0" height="15.0" fill="rgb(222,77,48)" rx="2" ry="2" />
<text  x="41.55" y="223.5" >__perf_event_enable</text>
</g>
<g >
<title>__memmove_avx_unaligned_erms (19 samples, 15.32%)</title><rect x="733.2" y="165" width="180.8" height="15.0" fill="rgb(241,1,30)" rx="2" ry="2" />
<text  x="736.23" y="175.5" >__memmove_avx_unaligned..</text>
</g>
<g >
<title>unlock_page (1 samples, 0.81%)</title><rect x="942.6" y="405" width="9.5" height="15.0" fill="rgb(250,130,22)" rx="2" ry="2" />
<text  x="945.58" y="415.5" ></text>
</g>
<g >
<title>x86_64_start_reservations (1 samples, 0.81%)</title><rect x="1180.5" y="485" width="9.5" height="15.0" fill="rgb(246,49,46)" rx="2" ry="2" />
<text  x="1183.48" y="495.5" ></text>
</g>
<g >
<title>string_item.lto_priv.0 (1 samples, 0.81%)</title><rect x="933.1" y="501" width="9.5" height="15.0" fill="rgb(217,135,42)" rx="2" ry="2" />
<text  x="936.06" y="511.5" ></text>
</g>
<g >
<title>[unknown] (2 samples, 1.61%)</title><rect x="952.1" y="517" width="19.0" height="15.0" fill="rgb(223,58,42)" rx="2" ry="2" />
<text  x="955.10" y="527.5" ></text>
</g>
<g >
<title>smp_apic_timer_interrupt (1 samples, 0.81%)</title><rect x="971.1" y="389" width="9.5" height="15.0" fill="rgb(251,99,54)" rx="2" ry="2" />
<text  x="974.13" y="399.5" ></text>
</g>
<g >
<title>NaClSyscallCSegHook (27 samples, 21.77%)</title><rect x="657.1" y="309" width="256.9" height="15.0" fill="rgb(245,219,43)" rx="2" ry="2" />
<text  x="660.10" y="319.5" >NaClSyscallCSegHook</text>
</g>
<g >
<title>NaClCopyDynamicText (27 samples, 21.77%)</title><rect x="657.1" y="197" width="256.9" height="15.0" fill="rgb(236,210,52)" rx="2" ry="2" />
<text  x="660.10" y="207.5" >NaClCopyDynamicText</text>
</g>
<g >
<title>cpuidle_enter_state (1 samples, 0.81%)</title><rect x="1180.5" y="373" width="9.5" height="15.0" fill="rgb(235,31,31)" rx="2" ry="2" />
<text  x="1183.48" y="383.5" ></text>
</g>
<g >
<title>_PyType_Lookup (1 samples, 0.81%)</title><rect x="914.0" y="501" width="9.5" height="15.0" fill="rgb(214,95,5)" rx="2" ry="2" />
<text  x="917.03" y="511.5" ></text>
</g>
<g >
<title>secondary_startup_64 (23 samples, 18.55%)</title><rect x="971.1" y="517" width="218.9" height="15.0" fill="rgb(238,222,47)" rx="2" ry="2" />
<text  x="974.13" y="527.5" >secondary_startup_64</text>
</g>
<g >
<title>[perf-556.map] (27 samples, 21.77%)</title><rect x="657.1" y="485" width="256.9" height="15.0" fill="rgb(236,195,15)" rx="2" ry="2" />
<text  x="660.10" y="495.5" >[perf-556.map]</text>
</g>
<g >
<title>[unknown] (65 samples, 52.42%)</title><rect x="10.0" y="517" width="618.5" height="15.0" fill="rgb(207,195,54)" rx="2" ry="2" />
<text  x="13.00" y="527.5" >[unknown]</text>
</g>
<g >
<title>do_sys_poll (1 samples, 0.81%)</title><rect x="29.0" y="373" width="9.5" height="15.0" fill="rgb(216,111,15)" rx="2" ry="2" />
<text  x="32.03" y="383.5" ></text>
</g>
</g>
</svg>
