<?xml version="1.0" standalone="no"?>
<!DOCTYPE svg PUBLIC "-//W3C//DTD SVG 1.1//EN" "http://www.w3.org/Graphics/SVG/1.1/DTD/svg11.dtd">
<svg version="1.1" width="1200" height="438" onload="init(evt)" viewBox="0 0 1200 438" xmlns="http://www.w3.org/2000/svg" xmlns:xlink="http://www.w3.org/1999/xlink">
<!-- Flame graph stack visualization. See https://github.com/brendangregg/FlameGraph for latest version, and http://www.brendangregg.com/flamegraphs.html for examples. -->
<!-- NOTES:  -->
<defs>
	<linearGradient id="background" y1="0" y2="1" x1="0" x2="0" >
		<stop stop-color="#eeeeee" offset="5%" />
		<stop stop-color="#eeeeb0" offset="95%" />
	</linearGradient>
</defs>
<style type="text/css">
	text { font-family:Verdana; font-size:12px; fill:rgb(0,0,0); }
	#search, #ignorecase { opacity:0.1; cursor:pointer; }
	#search:hover, #search.show, #ignorecase:hover, #ignorecase.show { opacity:1; }
	#subtitle { text-anchor:middle; font-color:rgb(160,160,160); }
	#title { text-anchor:middle; font-size:17px}
	#unzoom { cursor:pointer; }
	#frames > *:hover { stroke:black; stroke-width:0.5; cursor:pointer; }
	.hide { display:none; }
	.parent { opacity:0.5; }
</style>
<script type="text/ecmascript">
<![CDATA[
	"use strict";
	var details, searchbtn, unzoombtn, matchedtxt, svg, searching, currentSearchTerm, ignorecase, ignorecaseBtn;
	function init(evt) {
		details = document.getElementById("details").firstChild;
		searchbtn = document.getElementById("search");
		ignorecaseBtn = document.getElementById("ignorecase");
		unzoombtn = document.getElementById("unzoom");
		matchedtxt = document.getElementById("matched");
		svg = document.getElementsByTagName("svg")[0];
		searching = 0;
		currentSearchTerm = null;

		// use GET parameters to restore a flamegraphs state.
		var params = get_params();
		if (params.x && params.y)
			zoom(find_group(document.querySelector('[x="' + params.x + '"][y="' + params.y + '"]')));
                if (params.s) search(params.s);
	}

	// event listeners
	window.addEventListener("click", function(e) {
		var target = find_group(e.target);
		if (target) {
			if (target.nodeName == "a") {
				if (e.ctrlKey === false) return;
				e.preventDefault();
			}
			if (target.classList.contains("parent")) unzoom();
			zoom(target);
			if (!document.querySelector('.parent')) {
				clearzoom();
				return;
			}

			// set parameters for zoom state
			var el = target.querySelector("rect");
			if (el && el.attributes && el.attributes.y && el.attributes._orig_x) {
				var params = get_params()
				params.x = el.attributes._orig_x.value;
				params.y = el.attributes.y.value;
				history.replaceState(null, null, parse_params(params));
			}
		}
		else if (e.target.id == "unzoom") clearzoom();
		else if (e.target.id == "search") search_prompt();
		else if (e.target.id == "ignorecase") toggle_ignorecase();
	}, false)

	// mouse-over for info
	// show
	window.addEventListener("mouseover", function(e) {
		var target = find_group(e.target);
		if (target) details.nodeValue = "Function: " + g_to_text(target);
	}, false)

	// clear
	window.addEventListener("mouseout", function(e) {
		var target = find_group(e.target);
		if (target) details.nodeValue = ' ';
	}, false)

	// ctrl-F for search
	// ctrl-I to toggle case-sensitive search
	window.addEventListener("keydown",function (e) {
		if (e.keyCode === 114 || (e.ctrlKey && e.keyCode === 70)) {
			e.preventDefault();
			search_prompt();
		}
		else if (e.ctrlKey && e.keyCode === 73) {
			e.preventDefault();
			toggle_ignorecase();
		}
	}, false)

	// functions
	function get_params() {
		var params = {};
		var paramsarr = window.location.search.substr(1).split('&');
		for (var i = 0; i < paramsarr.length; ++i) {
			var tmp = paramsarr[i].split("=");
			if (!tmp[0] || !tmp[1]) continue;
			params[tmp[0]]  = decodeURIComponent(tmp[1]);
		}
		return params;
	}
	function parse_params(params) {
		var uri = "?";
		for (var key in params) {
			uri += key + '=' + encodeURIComponent(params[key]) + '&';
		}
		if (uri.slice(-1) == "&")
			uri = uri.substring(0, uri.length - 1);
		if (uri == '?')
			uri = window.location.href.split('?')[0];
		return uri;
	}
	function find_child(node, selector) {
		var children = node.querySelectorAll(selector);
		if (children.length) return children[0];
	}
	function find_group(node) {
		var parent = node.parentElement;
		if (!parent) return;
		if (parent.id == "frames") return node;
		return find_group(parent);
	}
	function orig_save(e, attr, val) {
		if (e.attributes["_orig_" + attr] != undefined) return;
		if (e.attributes[attr] == undefined) return;
		if (val == undefined) val = e.attributes[attr].value;
		e.setAttribute("_orig_" + attr, val);
	}
	function orig_load(e, attr) {
		if (e.attributes["_orig_"+attr] == undefined) return;
		e.attributes[attr].value = e.attributes["_orig_" + attr].value;
		e.removeAttribute("_orig_"+attr);
	}
	function g_to_text(e) {
		var text = find_child(e, "title").firstChild.nodeValue;
		return (text)
	}
	function g_to_func(e) {
		var func = g_to_text(e);
		// if there's any manipulation we want to do to the function
		// name before it's searched, do it here before returning.
		return (func);
	}
	function update_text(e) {
		var r = find_child(e, "rect");
		var t = find_child(e, "text");
		var w = parseFloat(r.attributes.width.value) -3;
		var txt = find_child(e, "title").textContent.replace(/\([^(]*\)$/,"");
		t.attributes.x.value = parseFloat(r.attributes.x.value) + 3;

		// Smaller than this size won't fit anything
		if (w < 2 * 12 * 0.59) {
			t.textContent = "";
			return;
		}

		t.textContent = txt;
		// Fit in full text width
		if (/^ *$/.test(txt) || t.getSubStringLength(0, txt.length) < w)
			return;

		for (var x = txt.length - 2; x > 0; x--) {
			if (t.getSubStringLength(0, x + 2) <= w) {
				t.textContent = txt.substring(0, x) + "..";
				return;
			}
		}
		t.textContent = "";
	}

	// zoom
	function zoom_reset(e) {
		if (e.attributes != undefined) {
			orig_load(e, "x");
			orig_load(e, "width");
		}
		if (e.childNodes == undefined) return;
		for (var i = 0, c = e.childNodes; i < c.length; i++) {
			zoom_reset(c[i]);
		}
	}
	function zoom_child(e, x, ratio) {
		if (e.attributes != undefined) {
			if (e.attributes.x != undefined) {
				orig_save(e, "x");
				e.attributes.x.value = (parseFloat(e.attributes.x.value) - x - 10) * ratio + 10;
				if (e.tagName == "text")
					e.attributes.x.value = find_child(e.parentNode, "rect[x]").attributes.x.value + 3;
			}
			if (e.attributes.width != undefined) {
				orig_save(e, "width");
				e.attributes.width.value = parseFloat(e.attributes.width.value) * ratio;
			}
		}

		if (e.childNodes == undefined) return;
		for (var i = 0, c = e.childNodes; i < c.length; i++) {
			zoom_child(c[i], x - 10, ratio);
		}
	}
	function zoom_parent(e) {
		if (e.attributes) {
			if (e.attributes.x != undefined) {
				orig_save(e, "x");
				e.attributes.x.value = 10;
			}
			if (e.attributes.width != undefined) {
				orig_save(e, "width");
				e.attributes.width.value = parseInt(svg.width.baseVal.value) - (10 * 2);
			}
		}
		if (e.childNodes == undefined) return;
		for (var i = 0, c = e.childNodes; i < c.length; i++) {
			zoom_parent(c[i]);
		}
	}
	function zoom(node) {
		var attr = find_child(node, "rect").attributes;
		var width = parseFloat(attr.width.value);
		var xmin = parseFloat(attr.x.value);
		var xmax = parseFloat(xmin + width);
		var ymin = parseFloat(attr.y.value);
		var ratio = (svg.width.baseVal.value - 2 * 10) / width;

		// XXX: Workaround for JavaScript float issues (fix me)
		var fudge = 0.0001;

		unzoombtn.classList.remove("hide");

		var el = document.getElementById("frames").children;
		for (var i = 0; i < el.length; i++) {
			var e = el[i];
			var a = find_child(e, "rect").attributes;
			var ex = parseFloat(a.x.value);
			var ew = parseFloat(a.width.value);
			var upstack;
			// Is it an ancestor
			if (0 == 0) {
				upstack = parseFloat(a.y.value) > ymin;
			} else {
				upstack = parseFloat(a.y.value) < ymin;
			}
			if (upstack) {
				// Direct ancestor
				if (ex <= xmin && (ex+ew+fudge) >= xmax) {
					e.classList.add("parent");
					zoom_parent(e);
					update_text(e);
				}
				// not in current path
				else
					e.classList.add("hide");
			}
			// Children maybe
			else {
				// no common path
				if (ex < xmin || ex + fudge >= xmax) {
					e.classList.add("hide");
				}
				else {
					zoom_child(e, xmin, ratio);
					update_text(e);
				}
			}
		}
		search();
	}
	function unzoom() {
		unzoombtn.classList.add("hide");
		var el = document.getElementById("frames").children;
		for(var i = 0; i < el.length; i++) {
			el[i].classList.remove("parent");
			el[i].classList.remove("hide");
			zoom_reset(el[i]);
			update_text(el[i]);
		}
		search();
	}
	function clearzoom() {
		unzoom();

		// remove zoom state
		var params = get_params();
		if (params.x) delete params.x;
		if (params.y) delete params.y;
		history.replaceState(null, null, parse_params(params));
	}

	// search
	function toggle_ignorecase() {
		ignorecase = !ignorecase;
		if (ignorecase) {
			ignorecaseBtn.classList.add("show");
		} else {
			ignorecaseBtn.classList.remove("show");
		}
		reset_search();
		search();
	}
	function reset_search() {
		var el = document.querySelectorAll("#frames rect");
		for (var i = 0; i < el.length; i++) {
			orig_load(el[i], "fill")
		}
		var params = get_params();
		delete params.s;
		history.replaceState(null, null, parse_params(params));
	}
	function search_prompt() {
		if (!searching) {
			var term = prompt("Enter a search term (regexp " +
			    "allowed, eg: ^ext4_)"
			    + (ignorecase ? ", ignoring case" : "")
			    + "\nPress Ctrl-i to toggle case sensitivity", "");
			if (term != null) search(term);
		} else {
			reset_search();
			searching = 0;
			currentSearchTerm = null;
			searchbtn.classList.remove("show");
			searchbtn.firstChild.nodeValue = "Search"
			matchedtxt.classList.add("hide");
			matchedtxt.firstChild.nodeValue = ""
		}
	}
	function search(term) {
		if (term) currentSearchTerm = term;

		var re = new RegExp(currentSearchTerm, ignorecase ? 'i' : '');
		var el = document.getElementById("frames").children;
		var matches = new Object();
		var maxwidth = 0;
		for (var i = 0; i < el.length; i++) {
			var e = el[i];
			var func = g_to_func(e);
			var rect = find_child(e, "rect");
			if (func == null || rect == null)
				continue;

			// Save max width. Only works as we have a root frame
			var w = parseFloat(rect.attributes.width.value);
			if (w > maxwidth)
				maxwidth = w;

			if (func.match(re)) {
				// highlight
				var x = parseFloat(rect.attributes.x.value);
				orig_save(rect, "fill");
				rect.attributes.fill.value = "rgb(230,0,230)";

				// remember matches
				if (matches[x] == undefined) {
					matches[x] = w;
				} else {
					if (w > matches[x]) {
						// overwrite with parent
						matches[x] = w;
					}
				}
				searching = 1;
			}
		}
		if (!searching)
			return;
		var params = get_params();
		params.s = currentSearchTerm;
		history.replaceState(null, null, parse_params(params));

		searchbtn.classList.add("show");
		searchbtn.firstChild.nodeValue = "Reset Search";

		// calculate percent matched, excluding vertical overlap
		var count = 0;
		var lastx = -1;
		var lastw = 0;
		var keys = Array();
		for (k in matches) {
			if (matches.hasOwnProperty(k))
				keys.push(k);
		}
		// sort the matched frames by their x location
		// ascending, then width descending
		keys.sort(function(a, b){
			return a - b;
		});
		// Step through frames saving only the biggest bottom-up frames
		// thanks to the sort order. This relies on the tree property
		// where children are always smaller than their parents.
		var fudge = 0.0001;	// JavaScript floating point
		for (var k in keys) {
			var x = parseFloat(keys[k]);
			var w = matches[keys[k]];
			if (x >= lastx + lastw - fudge) {
				count += w;
				lastx = x;
				lastw = w;
			}
		}
		// display matched percent
		matchedtxt.classList.remove("hide");
		var pct = 100 * count / maxwidth;
		if (pct != 100) pct = pct.toFixed(1)
		matchedtxt.firstChild.nodeValue = "Matched: " + pct + "%";
	}
]]>
</script>
<rect x="0.0" y="0" width="1200.0" height="438.0" fill="url(#background)"  />
<text id="title" x="600.00" y="24" >Flame Graph</text>
<text id="details" x="10.00" y="421" > </text>
<text id="unzoom" x="10.00" y="24" class="hide">Reset Zoom</text>
<text id="search" x="1090.00" y="24" >Search</text>
<text id="ignorecase" x="1174.00" y="24" >ic</text>
<text id="matched" x="1090.00" y="421" > </text>
<g id="frames">
<g >
<title>[unknown] (1 samples, 0.49%)</title><rect x="84.5" y="309" width="5.7" height="15.0" fill="rgb(231,228,19)" rx="2" ry="2" />
<text  x="87.47" y="319.5" ></text>
</g>
<g >
<title>rustposix::safeposix::syscalls::fs_calls::&lt;impl rustposix::safeposix::cage::Cage&gt;::read_syscall (12 samples, 5.83%)</title><rect x="514.1" y="229" width="68.7" height="15.0" fill="rgb(220,141,20)" rx="2" ry="2" />
<text  x="517.08" y="239.5" >rustpos..</text>
</g>
<g >
<title>ringbuf::producer::Producer&lt;T&gt;::push_slice (1 samples, 0.49%)</title><rect x="869.2" y="341" width="5.8" height="15.0" fill="rgb(232,208,54)" rx="2" ry="2" />
<text  x="872.22" y="351.5" ></text>
</g>
<g >
<title>[unknown] (8 samples, 3.88%)</title><rect x="800.5" y="245" width="45.8" height="15.0" fill="rgb(217,144,53)" rx="2" ry="2" />
<text  x="803.49" y="255.5" >[unk..</text>
</g>
<g >
<title>[unknown] (1 samples, 0.49%)</title><rect x="84.5" y="165" width="5.7" height="15.0" fill="rgb(231,68,18)" rx="2" ry="2" />
<text  x="87.47" y="175.5" ></text>
</g>
<g >
<title>NaClDescIoDescWrite (26 samples, 12.62%)</title><rect x="582.8" y="293" width="148.9" height="15.0" fill="rgb(246,204,45)" rx="2" ry="2" />
<text  x="585.82" y="303.5" >NaClDescIoDescWrite</text>
</g>
<g >
<title>NaClSysDyncodeCreateDecoder (3 samples, 1.46%)</title><rect x="496.9" y="325" width="17.2" height="15.0" fill="rgb(242,23,35)" rx="2" ry="2" />
<text  x="499.89" y="335.5" ></text>
</g>
<g >
<title>[unknown] (6 samples, 2.91%)</title><rect x="1155.6" y="229" width="34.4" height="15.0" fill="rgb(220,51,23)" rx="2" ry="2" />
<text  x="1158.63" y="239.5" >[u..</text>
</g>
<g >
<title>[unknown] (2 samples, 0.97%)</title><rect x="846.3" y="325" width="11.5" height="15.0" fill="rgb(231,64,54)" rx="2" ry="2" />
<text  x="849.31" y="335.5" ></text>
</g>
<g >
<title>[unknown] (13 samples, 6.31%)</title><rect x="10.0" y="277" width="74.5" height="15.0" fill="rgb(238,38,19)" rx="2" ry="2" />
<text  x="13.00" y="287.5" >[unknown]</text>
</g>
<g >
<title>[unknown] (64 samples, 31.07%)</title><rect x="90.2" y="213" width="366.6" height="15.0" fill="rgb(234,129,9)" rx="2" ry="2" />
<text  x="93.19" y="223.5" >[unknown]</text>
</g>
<g >
<title>dispatcher (12 samples, 5.83%)</title><rect x="514.1" y="245" width="68.7" height="15.0" fill="rgb(254,35,2)" rx="2" ry="2" />
<text  x="517.08" y="255.5" >dispatc..</text>
</g>
<g >
<title>[unknown] (2 samples, 0.97%)</title><rect x="846.3" y="261" width="11.5" height="15.0" fill="rgb(254,83,35)" rx="2" ry="2" />
<text  x="849.31" y="271.5" ></text>
</g>
<g >
<title>__memmove_avx_unaligned_erms (8 samples, 3.88%)</title><rect x="537.0" y="181" width="45.8" height="15.0" fill="rgb(214,10,12)" rx="2" ry="2" />
<text  x="539.99" y="191.5" >__me..</text>
</g>
<g >
<title>NaClSysWriteDecoder (26 samples, 12.62%)</title><rect x="582.8" y="325" width="148.9" height="15.0" fill="rgb(223,19,53)" rx="2" ry="2" />
<text  x="585.82" y="335.5" >NaClSysWriteDecoder</text>
</g>
<g >
<title>[unknown] (1 samples, 0.49%)</title><rect x="1184.3" y="53" width="5.7" height="15.0" fill="rgb(236,187,30)" rx="2" ry="2" />
<text  x="1187.27" y="63.5" ></text>
</g>
<g >
<title>dispatcher (26 samples, 12.62%)</title><rect x="582.8" y="245" width="148.9" height="15.0" fill="rgb(206,10,41)" rx="2" ry="2" />
<text  x="585.82" y="255.5" >dispatcher</text>
</g>
<g >
<title>[unknown] (64 samples, 31.07%)</title><rect x="90.2" y="197" width="366.6" height="15.0" fill="rgb(206,174,8)" rx="2" ry="2" />
<text  x="93.19" y="207.5" >[unknown]</text>
</g>
<g >
<title>NaClTextDyncodeCreate (3 samples, 1.46%)</title><rect x="496.9" y="293" width="17.2" height="15.0" fill="rgb(207,5,44)" rx="2" ry="2" />
<text  x="499.89" y="303.5" ></text>
</g>
<g >
<title>[unknown] (64 samples, 31.07%)</title><rect x="90.2" y="69" width="366.6" height="15.0" fill="rgb(207,68,50)" rx="2" ry="2" />
<text  x="93.19" y="79.5" >[unknown]</text>
</g>
<g >
<title>[unknown] (1 samples, 0.49%)</title><rect x="78.7" y="229" width="5.8" height="15.0" fill="rgb(231,207,6)" rx="2" ry="2" />
<text  x="81.74" y="239.5" ></text>
</g>
<g >
<title>[unknown] (52 samples, 25.24%)</title><rect x="892.1" y="261" width="297.9" height="15.0" fill="rgb(249,127,29)" rx="2" ry="2" />
<text  x="895.14" y="271.5" >[unknown]</text>
</g>
<g >
<title>[unknown] (52 samples, 25.24%)</title><rect x="892.1" y="325" width="297.9" height="15.0" fill="rgb(217,23,29)" rx="2" ry="2" />
<text  x="895.14" y="335.5" >[unknown]</text>
</g>
<g >
<title>[unknown] (13 samples, 6.31%)</title><rect x="10.0" y="309" width="74.5" height="15.0" fill="rgb(232,70,5)" rx="2" ry="2" />
<text  x="13.00" y="319.5" >[unknown]</text>
</g>
<g >
<title>NaClSyscallCSegHook (41 samples, 19.90%)</title><rect x="496.9" y="341" width="234.8" height="15.0" fill="rgb(233,205,27)" rx="2" ry="2" />
<text  x="499.89" y="351.5" >NaClSyscallCSegHook</text>
</g>
<g >
<title>[unknown] (64 samples, 31.07%)</title><rect x="90.2" y="261" width="366.6" height="15.0" fill="rgb(211,119,17)" rx="2" ry="2" />
<text  x="93.19" y="271.5" >[unknown]</text>
</g>
<g >
<title>[unknown] (1 samples, 0.49%)</title><rect x="84.5" y="277" width="5.7" height="15.0" fill="rgb(247,72,9)" rx="2" ry="2" />
<text  x="87.47" y="287.5" ></text>
</g>
<g >
<title>[unknown] (4 samples, 1.94%)</title><rect x="1167.1" y="165" width="22.9" height="15.0" fill="rgb(253,186,35)" rx="2" ry="2" />
<text  x="1170.09" y="175.5" >[..</text>
</g>
<g >
<title>[unknown] (1 samples, 0.49%)</title><rect x="84.5" y="229" width="5.7" height="15.0" fill="rgb(240,222,41)" rx="2" ry="2" />
<text  x="87.47" y="239.5" ></text>
</g>
<g >
<title>NaClSysReadDecoder (12 samples, 5.83%)</title><rect x="514.1" y="325" width="68.7" height="15.0" fill="rgb(209,156,15)" rx="2" ry="2" />
<text  x="517.08" y="335.5" >NaClSys..</text>
</g>
<g >
<title>[unknown] (1 samples, 0.49%)</title><rect x="852.0" y="197" width="5.8" height="15.0" fill="rgb(238,82,44)" rx="2" ry="2" />
<text  x="855.04" y="207.5" ></text>
</g>
<g >
<title>perf_evsel__run_ioctl (64 samples, 31.07%)</title><rect x="90.2" y="341" width="366.6" height="15.0" fill="rgb(218,9,41)" rx="2" ry="2" />
<text  x="93.19" y="351.5" >perf_evsel__run_ioctl</text>
</g>
<g >
<title>perf_evsel__enable_cpu (64 samples, 31.07%)</title><rect x="90.2" y="357" width="366.6" height="15.0" fill="rgb(215,48,37)" rx="2" ry="2" />
<text  x="93.19" y="367.5" >perf_evsel__enable_cpu</text>
</g>
<g >
<title>evlist__start_workload (1 samples, 0.49%)</title><rect x="84.5" y="357" width="5.7" height="15.0" fill="rgb(216,68,15)" rx="2" ry="2" />
<text  x="87.47" y="367.5" ></text>
</g>
<g >
<title>[unknown] (1 samples, 0.49%)</title><rect x="1184.3" y="133" width="5.7" height="15.0" fill="rgb(209,136,23)" rx="2" ry="2" />
<text  x="1187.27" y="143.5" ></text>
</g>
<g >
<title>[unknown] (1 samples, 0.49%)</title><rect x="84.5" y="325" width="5.7" height="15.0" fill="rgb(249,160,35)" rx="2" ry="2" />
<text  x="87.47" y="335.5" ></text>
</g>
<g >
<title>[unknown] (64 samples, 31.07%)</title><rect x="90.2" y="117" width="366.6" height="15.0" fill="rgb(241,128,11)" rx="2" ry="2" />
<text  x="93.19" y="127.5" >[unknown]</text>
</g>
<g >
<title>[unknown] (1 samples, 0.49%)</title><rect x="84.5" y="261" width="5.7" height="15.0" fill="rgb(239,102,13)" rx="2" ry="2" />
<text  x="87.47" y="271.5" ></text>
</g>
<g >
<title>[unknown] (64 samples, 31.07%)</title><rect x="90.2" y="277" width="366.6" height="15.0" fill="rgb(210,168,19)" rx="2" ry="2" />
<text  x="93.19" y="287.5" >[unknown]</text>
</g>
<g >
<title>NaClHostDescWrite (26 samples, 12.62%)</title><rect x="582.8" y="277" width="148.9" height="15.0" fill="rgb(235,43,7)" rx="2" ry="2" />
<text  x="585.82" y="287.5" >NaClHostDescWrite</text>
</g>
<g >
<title>NaClSysRead (12 samples, 5.83%)</title><rect x="514.1" y="309" width="68.7" height="15.0" fill="rgb(251,8,27)" rx="2" ry="2" />
<text  x="517.08" y="319.5" >NaClSys..</text>
</g>
<g >
<title>[unknown] (2 samples, 0.97%)</title><rect x="846.3" y="309" width="11.5" height="15.0" fill="rgb(229,200,20)" rx="2" ry="2" />
<text  x="849.31" y="319.5" ></text>
</g>
<g >
<title>CopyCodeSafelyInitial (1 samples, 0.49%)</title><rect x="496.9" y="277" width="5.7" height="15.0" fill="rgb(236,135,45)" rx="2" ry="2" />
<text  x="499.89" y="287.5" ></text>
</g>
<g >
<title>[unknown] (52 samples, 25.24%)</title><rect x="892.1" y="277" width="297.9" height="15.0" fill="rgb(233,112,44)" rx="2" ry="2" />
<text  x="895.14" y="287.5" >[unknown]</text>
</g>
<g >
<title>[anon] (4 samples, 1.94%)</title><rect x="474.0" y="357" width="22.9" height="15.0" fill="rgb(212,48,29)" rx="2" ry="2" />
<text  x="476.98" y="367.5" >[..</text>
</g>
<g >
<title>[unknown] (64 samples, 31.07%)</title><rect x="90.2" y="149" width="366.6" height="15.0" fill="rgb(228,152,1)" rx="2" ry="2" />
<text  x="93.19" y="159.5" >[unknown]</text>
</g>
<g >
<title>ringbuf::consumer::Consumer&lt;T&gt;::pop_slice (9 samples, 4.37%)</title><rect x="531.3" y="197" width="51.5" height="15.0" fill="rgb(214,228,17)" rx="2" ry="2" />
<text  x="534.26" y="207.5" >ringb..</text>
</g>
<g >
<title>[unknown] (4 samples, 1.94%)</title><rect x="1167.1" y="181" width="22.9" height="15.0" fill="rgb(233,102,27)" rx="2" ry="2" />
<text  x="1170.09" y="191.5" >[..</text>
</g>
<g >
<title>[unknown] (64 samples, 31.07%)</title><rect x="90.2" y="101" width="366.6" height="15.0" fill="rgb(250,203,44)" rx="2" ry="2" />
<text  x="93.19" y="111.5" >[unknown]</text>
</g>
<g >
<title>[unknown] (64 samples, 31.07%)</title><rect x="90.2" y="85" width="366.6" height="15.0" fill="rgb(237,223,38)" rx="2" ry="2" />
<text  x="93.19" y="95.5" >[unknown]</text>
</g>
<g >
<title>[unknown] (1 samples, 0.49%)</title><rect x="840.6" y="213" width="5.7" height="15.0" fill="rgb(226,18,32)" rx="2" ry="2" />
<text  x="843.58" y="223.5" ></text>
</g>
<g >
<title>[unknown] (14 samples, 6.80%)</title><rect x="766.1" y="293" width="80.2" height="15.0" fill="rgb(232,183,44)" rx="2" ry="2" />
<text  x="769.12" y="303.5" >[unknown]</text>
</g>
<g >
<title>[unknown] (13 samples, 6.31%)</title><rect x="10.0" y="261" width="74.5" height="15.0" fill="rgb(237,30,52)" rx="2" ry="2" />
<text  x="13.00" y="271.5" >[unknown]</text>
</g>
<g >
<title>[unknown] (2 samples, 0.97%)</title><rect x="846.3" y="277" width="11.5" height="15.0" fill="rgb(213,181,19)" rx="2" ry="2" />
<text  x="849.31" y="287.5" ></text>
</g>
<g >
<title>all (206 samples, 100%)</title><rect x="10.0" y="389" width="1180.0" height="15.0" fill="rgb(224,206,44)" rx="2" ry="2" />
<text  x="13.00" y="399.5" ></text>
</g>
<g >
<title>[unknown] (13 samples, 6.31%)</title><rect x="10.0" y="325" width="74.5" height="15.0" fill="rgb(210,194,16)" rx="2" ry="2" />
<text  x="13.00" y="335.5" >[unknown]</text>
</g>
<g >
<title>[unknown] (52 samples, 25.24%)</title><rect x="892.1" y="309" width="297.9" height="15.0" fill="rgb(254,21,17)" rx="2" ry="2" />
<text  x="895.14" y="319.5" >[unknown]</text>
</g>
<g >
<title>rustposix::interface::pipe::EmulatedPipe::read_from_pipe (12 samples, 5.83%)</title><rect x="514.1" y="213" width="68.7" height="15.0" fill="rgb(232,192,35)" rx="2" ry="2" />
<text  x="517.08" y="223.5" >rustpos..</text>
</g>
<g >
<title>[unknown] (1 samples, 0.49%)</title><rect x="84.5" y="133" width="5.7" height="15.0" fill="rgb(233,123,16)" rx="2" ry="2" />
<text  x="87.47" y="143.5" ></text>
</g>
<g >
<title>[unknown] (19 samples, 9.22%)</title><rect x="737.5" y="341" width="108.8" height="15.0" fill="rgb(237,166,11)" rx="2" ry="2" />
<text  x="740.48" y="351.5" >[unknown]</text>
</g>
<g >
<title>[unknown] (2 samples, 0.97%)</title><rect x="846.3" y="213" width="11.5" height="15.0" fill="rgb(210,96,11)" rx="2" ry="2" />
<text  x="849.31" y="223.5" ></text>
</g>
<g >
<title>NaClSysWrite (26 samples, 12.62%)</title><rect x="582.8" y="309" width="148.9" height="15.0" fill="rgb(224,45,29)" rx="2" ry="2" />
<text  x="585.82" y="319.5" >NaClSysWrite</text>
</g>
<g >
<title>[unknown] (64 samples, 31.07%)</title><rect x="90.2" y="309" width="366.6" height="15.0" fill="rgb(222,200,12)" rx="2" ry="2" />
<text  x="93.19" y="319.5" >[unknown]</text>
</g>
<g >
<title>[unknown] (1 samples, 0.49%)</title><rect x="84.5" y="181" width="5.7" height="15.0" fill="rgb(238,160,30)" rx="2" ry="2" />
<text  x="87.47" y="191.5" ></text>
</g>
<g >
<title>[unknown] (52 samples, 25.24%)</title><rect x="892.1" y="245" width="297.9" height="15.0" fill="rgb(224,52,35)" rx="2" ry="2" />
<text  x="895.14" y="255.5" >[unknown]</text>
</g>
<g >
<title>lind_read (12 samples, 5.83%)</title><rect x="514.1" y="261" width="68.7" height="15.0" fill="rgb(234,10,1)" rx="2" ry="2" />
<text  x="517.08" y="271.5" >lind_read</text>
</g>
<g >
<title>swapper (55 samples, 26.70%)</title><rect x="875.0" y="373" width="315.0" height="15.0" fill="rgb(245,153,2)" rx="2" ry="2" />
<text  x="877.95" y="383.5" >swapper</text>
</g>
<g >
<title>[unknown]  (20 samples, 9.71%)</title><rect x="731.7" y="357" width="114.6" height="15.0" fill="rgb(219,149,27)" rx="2" ry="2" />
<text  x="734.75" y="367.5" >[unknown] </text>
</g>
<g >
<title>ringbuf::producer::Producer&lt;T&gt;::push_slice (9 samples, 4.37%)</title><rect x="680.2" y="197" width="51.5" height="15.0" fill="rgb(240,57,33)" rx="2" ry="2" />
<text  x="683.19" y="207.5" >ringb..</text>
</g>
<g >
<title>[unknown] (1 samples, 0.49%)</title><rect x="84.5" y="293" width="5.7" height="15.0" fill="rgb(249,86,43)" rx="2" ry="2" />
<text  x="87.47" y="303.5" ></text>
</g>
<g >
<title>[unknown] (1 samples, 0.49%)</title><rect x="84.5" y="197" width="5.7" height="15.0" fill="rgb(214,212,54)" rx="2" ry="2" />
<text  x="87.47" y="207.5" ></text>
</g>
<g >
<title>rustposix::safeposix::syscalls::fs_calls::&lt;impl rustposix::safeposix::cage::Cage&gt;::write_syscall (26 samples, 12.62%)</title><rect x="582.8" y="229" width="148.9" height="15.0" fill="rgb(241,25,49)" rx="2" ry="2" />
<text  x="585.82" y="239.5" >rustposix::safeposi..</text>
</g>
<g >
<title>[unknown] (1 samples, 0.49%)</title><rect x="78.7" y="197" width="5.8" height="15.0" fill="rgb(214,204,19)" rx="2" ry="2" />
<text  x="81.74" y="207.5" ></text>
</g>
<g >
<title>ValidateChunkAMD64 (2 samples, 0.97%)</title><rect x="502.6" y="245" width="11.5" height="15.0" fill="rgb(229,54,25)" rx="2" ry="2" />
<text  x="505.62" y="255.5" ></text>
</g>
<g >
<title>[unknown] (5 samples, 2.43%)</title><rect x="1161.4" y="213" width="28.6" height="15.0" fill="rgb(219,54,52)" rx="2" ry="2" />
<text  x="1164.36" y="223.5" >[u..</text>
</g>
<g >
<title>[unknown] (64 samples, 31.07%)</title><rect x="90.2" y="37" width="366.6" height="15.0" fill="rgb(248,30,42)" rx="2" ry="2" />
<text  x="93.19" y="47.5" >[unknown]</text>
</g>
<g >
<title>[unknown] (64 samples, 31.07%)</title><rect x="90.2" y="229" width="366.6" height="15.0" fill="rgb(212,202,36)" rx="2" ry="2" />
<text  x="93.19" y="239.5" >[unknown]</text>
</g>
<g >
<title>[unknown] (64 samples, 31.07%)</title><rect x="90.2" y="245" width="366.6" height="15.0" fill="rgb(234,57,30)" rx="2" ry="2" />
<text  x="93.19" y="255.5" >[unknown]</text>
</g>
<g >
<title>[unknown] (16 samples, 7.77%)</title><rect x="754.7" y="325" width="91.6" height="15.0" fill="rgb(246,107,4)" rx="2" ry="2" />
<text  x="757.66" y="335.5" >[unknown]</text>
</g>
<g >
<title>[unknown] (13 samples, 6.31%)</title><rect x="10.0" y="293" width="74.5" height="15.0" fill="rgb(230,102,14)" rx="2" ry="2" />
<text  x="13.00" y="303.5" >[unknown]</text>
</g>
<g >
<title>[unknown] (12 samples, 5.83%)</title><rect x="777.6" y="261" width="68.7" height="15.0" fill="rgb(240,170,49)" rx="2" ry="2" />
<text  x="780.57" y="271.5" >[unknown]</text>
</g>
<g >
<title>[unknown] (1 samples, 0.49%)</title><rect x="78.7" y="213" width="5.8" height="15.0" fill="rgb(250,129,35)" rx="2" ry="2" />
<text  x="81.74" y="223.5" ></text>
</g>
<g >
<title>[unknown] (1 samples, 0.49%)</title><rect x="1184.3" y="69" width="5.7" height="15.0" fill="rgb(213,4,2)" rx="2" ry="2" />
<text  x="1187.27" y="79.5" ></text>
</g>
<g >
<title>lind_write (26 samples, 12.62%)</title><rect x="582.8" y="261" width="148.9" height="15.0" fill="rgb(245,100,25)" rx="2" ry="2" />
<text  x="585.82" y="271.5" >lind_write</text>
</g>
<g >
<title>[unknown] (5 samples, 2.43%)</title><rect x="1161.4" y="197" width="28.6" height="15.0" fill="rgb(210,17,0)" rx="2" ry="2" />
<text  x="1164.36" y="207.5" >[u..</text>
</g>
<g >
<title>__memmove_avx_unaligned_erms (2 samples, 0.97%)</title><rect x="857.8" y="341" width="11.4" height="15.0" fill="rgb(235,223,29)" rx="2" ry="2" />
<text  x="860.77" y="351.5" ></text>
</g>
<g >
<title>[unknown] (64 samples, 31.07%)</title><rect x="90.2" y="53" width="366.6" height="15.0" fill="rgb(214,139,48)" rx="2" ry="2" />
<text  x="93.19" y="63.5" >[unknown]</text>
</g>
<g >
<title>perf (65 samples, 31.55%)</title><rect x="84.5" y="373" width="372.3" height="15.0" fill="rgb(239,28,45)" rx="2" ry="2" />
<text  x="87.47" y="383.5" >perf</text>
</g>
<g >
<title>[unknown] (1 samples, 0.49%)</title><rect x="84.5" y="213" width="5.7" height="15.0" fill="rgb(207,188,34)" rx="2" ry="2" />
<text  x="87.47" y="223.5" ></text>
</g>
<g >
<title>[unknown] (13 samples, 6.31%)</title><rect x="10.0" y="357" width="74.5" height="15.0" fill="rgb(224,130,9)" rx="2" ry="2" />
<text  x="13.00" y="367.5" >[unknown]</text>
</g>
<g >
<title>[unknown] (1 samples, 0.49%)</title><rect x="852.0" y="181" width="5.8" height="15.0" fill="rgb(225,109,7)" rx="2" ry="2" />
<text  x="855.04" y="191.5" ></text>
</g>
<g >
<title>[unknown] (2 samples, 0.97%)</title><rect x="846.3" y="245" width="11.5" height="15.0" fill="rgb(235,202,4)" rx="2" ry="2" />
<text  x="849.31" y="255.5" ></text>
</g>
<g >
<title>[unknown] (64 samples, 31.07%)</title><rect x="90.2" y="165" width="366.6" height="15.0" fill="rgb(231,224,40)" rx="2" ry="2" />
<text  x="93.19" y="175.5" >[unknown]</text>
</g>
<g >
<title>[unknown] (13 samples, 6.31%)</title><rect x="10.0" y="341" width="74.5" height="15.0" fill="rgb(234,129,34)" rx="2" ry="2" />
<text  x="13.00" y="351.5" >[unknown]</text>
</g>
<g >
<title>[unknown] (2 samples, 0.97%)</title><rect x="846.3" y="341" width="11.5" height="15.0" fill="rgb(219,78,41)" rx="2" ry="2" />
<text  x="849.31" y="351.5" ></text>
</g>
<g >
<title>ringbuf::producer::Producer&lt;T&gt;::push_slice (4 samples, 1.94%)</title><rect x="474.0" y="341" width="22.9" height="15.0" fill="rgb(250,171,48)" rx="2" ry="2" />
<text  x="476.98" y="351.5" >r..</text>
</g>
<g >
<title>[unknown] (1 samples, 0.49%)</title><rect x="1184.3" y="117" width="5.7" height="15.0" fill="rgb(221,2,17)" rx="2" ry="2" />
<text  x="1187.27" y="127.5" ></text>
</g>
<g >
<title>NaClDescIoDescRead (12 samples, 5.83%)</title><rect x="514.1" y="293" width="68.7" height="15.0" fill="rgb(218,181,2)" rx="2" ry="2" />
<text  x="517.08" y="303.5" >NaClDes..</text>
</g>
<g >
<title>[unknown] (64 samples, 31.07%)</title><rect x="90.2" y="133" width="366.6" height="15.0" fill="rgb(219,224,44)" rx="2" ry="2" />
<text  x="93.19" y="143.5" >[unknown]</text>
</g>
<g >
<title>[unknown] (13 samples, 6.31%)</title><rect x="10.0" y="245" width="74.5" height="15.0" fill="rgb(211,190,28)" rx="2" ry="2" />
<text  x="13.00" y="255.5" >[unknown]</text>
</g>
<g >
<title>StreamT~_#59866 (13 samples, 6.31%)</title><rect x="10.0" y="373" width="74.5" height="15.0" fill="rgb(208,133,14)" rx="2" ry="2" />
<text  x="13.00" y="383.5" >StreamT~..</text>
</g>
<g >
<title>[unknown] (1 samples, 0.49%)</title><rect x="1184.3" y="85" width="5.7" height="15.0" fill="rgb(233,190,9)" rx="2" ry="2" />
<text  x="1187.27" y="95.5" ></text>
</g>
<g >
<title>rustposix::interface::pipe::EmulatedPipe::write_to_pipe (26 samples, 12.62%)</title><rect x="582.8" y="213" width="148.9" height="15.0" fill="rgb(234,25,45)" rx="2" ry="2" />
<text  x="585.82" y="223.5" >rustposix::interfac..</text>
</g>
<g >
<title>[unknown] (1 samples, 0.49%)</title><rect x="1184.3" y="101" width="5.7" height="15.0" fill="rgb(240,78,0)" rx="2" ry="2" />
<text  x="1187.27" y="111.5" ></text>
</g>
<g >
<title>[unknown] (64 samples, 31.07%)</title><rect x="90.2" y="181" width="366.6" height="15.0" fill="rgb(241,90,0)" rx="2" ry="2" />
<text  x="93.19" y="191.5" >[unknown]</text>
</g>
<g >
<title>[unknown] (3 samples, 1.46%)</title><rect x="1172.8" y="149" width="17.2" height="15.0" fill="rgb(232,77,14)" rx="2" ry="2" />
<text  x="1175.82" y="159.5" ></text>
</g>
<g >
<title>__ioctl (64 samples, 31.07%)</title><rect x="90.2" y="325" width="366.6" height="15.0" fill="rgb(226,42,29)" rx="2" ry="2" />
<text  x="93.19" y="335.5" >__ioctl</text>
</g>
<g >
<title>[unknown] (1 samples, 0.49%)</title><rect x="852.0" y="165" width="5.8" height="15.0" fill="rgb(250,101,44)" rx="2" ry="2" />
<text  x="855.04" y="175.5" ></text>
</g>
<g >
<title>[unknown] (5 samples, 2.43%)</title><rect x="846.3" y="357" width="28.7" height="15.0" fill="rgb(237,218,35)" rx="2" ry="2" />
<text  x="849.31" y="367.5" >[u..</text>
</g>
<g >
<title>[unknown] (2 samples, 0.97%)</title><rect x="846.3" y="293" width="11.5" height="15.0" fill="rgb(209,100,19)" rx="2" ry="2" />
<text  x="849.31" y="303.5" ></text>
</g>
<g >
<title>[unknown] (14 samples, 6.80%)</title><rect x="766.1" y="277" width="80.2" height="15.0" fill="rgb(215,182,46)" rx="2" ry="2" />
<text  x="769.12" y="287.5" >[unknown]</text>
</g>
<g >
<title>ApplyDfaValidator_x86_64 (2 samples, 0.97%)</title><rect x="502.6" y="261" width="11.5" height="15.0" fill="rgb(233,170,49)" rx="2" ry="2" />
<text  x="505.62" y="271.5" ></text>
</g>
<g >
<title>NaClHostDescRead (12 samples, 5.83%)</title><rect x="514.1" y="277" width="68.7" height="15.0" fill="rgb(229,74,25)" rx="2" ry="2" />
<text  x="517.08" y="287.5" >NaClHos..</text>
</g>
<g >
<title>NaClValidateCode (2 samples, 0.97%)</title><rect x="502.6" y="277" width="11.5" height="15.0" fill="rgb(217,127,7)" rx="2" ry="2" />
<text  x="505.62" y="287.5" ></text>
</g>
<g >
<title>[unknown] (1 samples, 0.49%)</title><rect x="84.5" y="245" width="5.7" height="15.0" fill="rgb(244,94,32)" rx="2" ry="2" />
<text  x="87.47" y="255.5" ></text>
</g>
<g >
<title>__libc_write (1 samples, 0.49%)</title><rect x="84.5" y="341" width="5.7" height="15.0" fill="rgb(239,140,51)" rx="2" ry="2" />
<text  x="87.47" y="351.5" ></text>
</g>
<g >
<title>[unknown] (14 samples, 6.80%)</title><rect x="766.1" y="309" width="80.2" height="15.0" fill="rgb(249,179,32)" rx="2" ry="2" />
<text  x="769.12" y="319.5" >[unknown]</text>
</g>
<g >
<title>sel_ldr (73 samples, 35.44%)</title><rect x="456.8" y="373" width="418.2" height="15.0" fill="rgb(251,46,21)" rx="2" ry="2" />
<text  x="459.80" y="383.5" >sel_ldr</text>
</g>
<g >
<title>[unknown] (6 samples, 2.91%)</title><rect x="811.9" y="229" width="34.4" height="15.0" fill="rgb(251,46,18)" rx="2" ry="2" />
<text  x="814.94" y="239.5" >[u..</text>
</g>
<g >
<title>__memmove_avx_unaligned_erms (3 samples, 1.46%)</title><rect x="714.6" y="181" width="17.1" height="15.0" fill="rgb(216,125,24)" rx="2" ry="2" />
<text  x="717.56" y="191.5" ></text>
</g>
<g >
<title>[unknown] (52 samples, 25.24%)</title><rect x="892.1" y="293" width="297.9" height="15.0" fill="rgb(240,91,44)" rx="2" ry="2" />
<text  x="895.14" y="303.5" >[unknown]</text>
</g>
<g >
<title>NaClSysDyncodeCreate (3 samples, 1.46%)</title><rect x="496.9" y="309" width="17.2" height="15.0" fill="rgb(206,213,30)" rx="2" ry="2" />
<text  x="499.89" y="319.5" ></text>
</g>
<g >
<title>[unknown] (1 samples, 0.49%)</title><rect x="84.5" y="149" width="5.7" height="15.0" fill="rgb(218,77,29)" rx="2" ry="2" />
<text  x="87.47" y="159.5" ></text>
</g>
<g >
<title>[unknown] (64 samples, 31.07%)</title><rect x="90.2" y="293" width="366.6" height="15.0" fill="rgb(212,137,49)" rx="2" ry="2" />
<text  x="93.19" y="303.5" >[unknown]</text>
</g>
<g >
<title>[unknown] (52 samples, 25.24%)</title><rect x="892.1" y="341" width="297.9" height="15.0" fill="rgb(216,72,37)" rx="2" ry="2" />
<text  x="895.14" y="351.5" >[unknown]</text>
</g>
<g >
<title>[unknown] (2 samples, 0.97%)</title><rect x="846.3" y="229" width="11.5" height="15.0" fill="rgb(213,45,24)" rx="2" ry="2" />
<text  x="849.31" y="239.5" ></text>
</g>
<g >
<title>CopyBundleTails (1 samples, 0.49%)</title><rect x="496.9" y="261" width="5.7" height="15.0" fill="rgb(223,200,26)" rx="2" ry="2" />
<text  x="499.89" y="271.5" ></text>
</g>
<g >
<title>[sel_ldr] (41 samples, 19.90%)</title><rect x="496.9" y="357" width="234.8" height="15.0" fill="rgb(233,41,12)" rx="2" ry="2" />
<text  x="499.89" y="367.5" >[sel_ldr]</text>
</g>
<g >
<title>[unknown] (52 samples, 25.24%)</title><rect x="892.1" y="357" width="297.9" height="15.0" fill="rgb(240,12,18)" rx="2" ry="2" />
<text  x="895.14" y="367.5" >[unknown]</text>
</g>
</g>
</svg>
