<?xml version="1.0" standalone="no"?>
<!DOCTYPE svg PUBLIC "-//W3C//DTD SVG 1.1//EN" "http://www.w3.org/Graphics/SVG/1.1/DTD/svg11.dtd">
<svg version="1.1" width="1200" height="854" onload="init(evt)" viewBox="0 0 1200 854" xmlns="http://www.w3.org/2000/svg" xmlns:xlink="http://www.w3.org/1999/xlink">
<!-- Flame graph stack visualization. See https://github.com/brendangregg/FlameGraph for latest version, and http://www.brendangregg.com/flamegraphs.html for examples. -->
<!-- NOTES:  -->
<defs>
	<linearGradient id="background" y1="0" y2="1" x1="0" x2="0" >
		<stop stop-color="#eeeeee" offset="5%" />
		<stop stop-color="#eeeeb0" offset="95%" />
	</linearGradient>
</defs>
<style type="text/css">
	text { font-family:Verdana; font-size:12px; fill:rgb(0,0,0); }
	#search, #ignorecase { opacity:0.1; cursor:pointer; }
	#search:hover, #search.show, #ignorecase:hover, #ignorecase.show { opacity:1; }
	#subtitle { text-anchor:middle; font-color:rgb(160,160,160); }
	#title { text-anchor:middle; font-size:17px}
	#unzoom { cursor:pointer; }
	#frames > *:hover { stroke:black; stroke-width:0.5; cursor:pointer; }
	.hide { display:none; }
	.parent { opacity:0.5; }
</style>
<script type="text/ecmascript">
<![CDATA[
	"use strict";
	var details, searchbtn, unzoombtn, matchedtxt, svg, searching, currentSearchTerm, ignorecase, ignorecaseBtn;
	function init(evt) {
		details = document.getElementById("details").firstChild;
		searchbtn = document.getElementById("search");
		ignorecaseBtn = document.getElementById("ignorecase");
		unzoombtn = document.getElementById("unzoom");
		matchedtxt = document.getElementById("matched");
		svg = document.getElementsByTagName("svg")[0];
		searching = 0;
		currentSearchTerm = null;

		// use GET parameters to restore a flamegraphs state.
		var params = get_params();
		if (params.x && params.y)
			zoom(find_group(document.querySelector('[x="' + params.x + '"][y="' + params.y + '"]')));
                if (params.s) search(params.s);
	}

	// event listeners
	window.addEventListener("click", function(e) {
		var target = find_group(e.target);
		if (target) {
			if (target.nodeName == "a") {
				if (e.ctrlKey === false) return;
				e.preventDefault();
			}
			if (target.classList.contains("parent")) unzoom(true);
			zoom(target);
			if (!document.querySelector('.parent')) {
				// we have basically done a clearzoom so clear the url
				var params = get_params();
				if (params.x) delete params.x;
				if (params.y) delete params.y;
				history.replaceState(null, null, parse_params(params));
				unzoombtn.classList.add("hide");
				return;
			}

			// set parameters for zoom state
			var el = target.querySelector("rect");
			if (el && el.attributes && el.attributes.y && el.attributes._orig_x) {
				var params = get_params()
				params.x = el.attributes._orig_x.value;
				params.y = el.attributes.y.value;
				history.replaceState(null, null, parse_params(params));
			}
		}
		else if (e.target.id == "unzoom") clearzoom();
		else if (e.target.id == "search") search_prompt();
		else if (e.target.id == "ignorecase") toggle_ignorecase();
	}, false)

	// mouse-over for info
	// show
	window.addEventListener("mouseover", function(e) {
		var target = find_group(e.target);
		if (target) details.nodeValue = "Function: " + g_to_text(target);
	}, false)

	// clear
	window.addEventListener("mouseout", function(e) {
		var target = find_group(e.target);
		if (target) details.nodeValue = ' ';
	}, false)

	// ctrl-F for search
	// ctrl-I to toggle case-sensitive search
	window.addEventListener("keydown",function (e) {
		if (e.keyCode === 114 || (e.ctrlKey && e.keyCode === 70)) {
			e.preventDefault();
			search_prompt();
		}
		else if (e.ctrlKey && e.keyCode === 73) {
			e.preventDefault();
			toggle_ignorecase();
		}
	}, false)

	// functions
	function get_params() {
		var params = {};
		var paramsarr = window.location.search.substr(1).split('&');
		for (var i = 0; i < paramsarr.length; ++i) {
			var tmp = paramsarr[i].split("=");
			if (!tmp[0] || !tmp[1]) continue;
			params[tmp[0]]  = decodeURIComponent(tmp[1]);
		}
		return params;
	}
	function parse_params(params) {
		var uri = "?";
		for (var key in params) {
			uri += key + '=' + encodeURIComponent(params[key]) + '&';
		}
		if (uri.slice(-1) == "&")
			uri = uri.substring(0, uri.length - 1);
		if (uri == '?')
			uri = window.location.href.split('?')[0];
		return uri;
	}
	function find_child(node, selector) {
		var children = node.querySelectorAll(selector);
		if (children.length) return children[0];
	}
	function find_group(node) {
		var parent = node.parentElement;
		if (!parent) return;
		if (parent.id == "frames") return node;
		return find_group(parent);
	}
	function orig_save(e, attr, val) {
		if (e.attributes["_orig_" + attr] != undefined) return;
		if (e.attributes[attr] == undefined) return;
		if (val == undefined) val = e.attributes[attr].value;
		e.setAttribute("_orig_" + attr, val);
	}
	function orig_load(e, attr) {
		if (e.attributes["_orig_"+attr] == undefined) return;
		e.attributes[attr].value = e.attributes["_orig_" + attr].value;
		e.removeAttribute("_orig_"+attr);
	}
	function g_to_text(e) {
		var text = find_child(e, "title").firstChild.nodeValue;
		return (text)
	}
	function g_to_func(e) {
		var func = g_to_text(e);
		// if there's any manipulation we want to do to the function
		// name before it's searched, do it here before returning.
		return (func);
	}
	function update_text(e) {
		var r = find_child(e, "rect");
		var t = find_child(e, "text");
		var w = parseFloat(r.attributes.width.value) -3;
		var txt = find_child(e, "title").textContent.replace(/\([^(]*\)$/,"");
		t.attributes.x.value = parseFloat(r.attributes.x.value) + 3;

		// Smaller than this size won't fit anything
		if (w < 2 * 12 * 0.59) {
			t.textContent = "";
			return;
		}

		t.textContent = txt;
		var sl = t.getSubStringLength(0, txt.length);
		// check if only whitespace or if we can fit the entire string into width w
		if (/^ *$/.test(txt) || sl < w)
			return;

		// this isn't perfect, but gives a good starting point
		// and avoids calling getSubStringLength too often
		var start = Math.floor((w/sl) * txt.length);
		for (var x = start; x > 0; x = x-2) {
			if (t.getSubStringLength(0, x + 2) <= w) {
				t.textContent = txt.substring(0, x) + "..";
				return;
			}
		}
		t.textContent = "";
	}

	// zoom
	function zoom_reset(e) {
		if (e.attributes != undefined) {
			orig_load(e, "x");
			orig_load(e, "width");
		}
		if (e.childNodes == undefined) return;
		for (var i = 0, c = e.childNodes; i < c.length; i++) {
			zoom_reset(c[i]);
		}
	}
	function zoom_child(e, x, ratio) {
		if (e.attributes != undefined) {
			if (e.attributes.x != undefined) {
				orig_save(e, "x");
				e.attributes.x.value = (parseFloat(e.attributes.x.value) - x - 10) * ratio + 10;
				if (e.tagName == "text")
					e.attributes.x.value = find_child(e.parentNode, "rect[x]").attributes.x.value + 3;
			}
			if (e.attributes.width != undefined) {
				orig_save(e, "width");
				e.attributes.width.value = parseFloat(e.attributes.width.value) * ratio;
			}
		}

		if (e.childNodes == undefined) return;
		for (var i = 0, c = e.childNodes; i < c.length; i++) {
			zoom_child(c[i], x - 10, ratio);
		}
	}
	function zoom_parent(e) {
		if (e.attributes) {
			if (e.attributes.x != undefined) {
				orig_save(e, "x");
				e.attributes.x.value = 10;
			}
			if (e.attributes.width != undefined) {
				orig_save(e, "width");
				e.attributes.width.value = parseInt(svg.width.baseVal.value) - (10 * 2);
			}
		}
		if (e.childNodes == undefined) return;
		for (var i = 0, c = e.childNodes; i < c.length; i++) {
			zoom_parent(c[i]);
		}
	}
	function zoom(node) {
		var attr = find_child(node, "rect").attributes;
		var width = parseFloat(attr.width.value);
		var xmin = parseFloat(attr.x.value);
		var xmax = parseFloat(xmin + width);
		var ymin = parseFloat(attr.y.value);
		var ratio = (svg.width.baseVal.value - 2 * 10) / width;

		// XXX: Workaround for JavaScript float issues (fix me)
		var fudge = 0.0001;

		unzoombtn.classList.remove("hide");

		var el = document.getElementById("frames").children;
		for (var i = 0; i < el.length; i++) {
			var e = el[i];
			var a = find_child(e, "rect").attributes;
			var ex = parseFloat(a.x.value);
			var ew = parseFloat(a.width.value);
			var upstack;
			// Is it an ancestor
			if (0 == 0) {
				upstack = parseFloat(a.y.value) > ymin;
			} else {
				upstack = parseFloat(a.y.value) < ymin;
			}
			if (upstack) {
				// Direct ancestor
				if (ex <= xmin && (ex+ew+fudge) >= xmax) {
					e.classList.add("parent");
					zoom_parent(e);
					update_text(e);
				}
				// not in current path
				else
					e.classList.add("hide");
			}
			// Children maybe
			else {
				// no common path
				if (ex < xmin || ex + fudge >= xmax) {
					e.classList.add("hide");
				}
				else {
					zoom_child(e, xmin, ratio);
					update_text(e);
				}
			}
		}
		search();
	}
	function unzoom(dont_update_text) {
		unzoombtn.classList.add("hide");
		var el = document.getElementById("frames").children;
		for(var i = 0; i < el.length; i++) {
			el[i].classList.remove("parent");
			el[i].classList.remove("hide");
			zoom_reset(el[i]);
			if(!dont_update_text) update_text(el[i]);
		}
		search();
	}
	function clearzoom() {
		unzoom();

		// remove zoom state
		var params = get_params();
		if (params.x) delete params.x;
		if (params.y) delete params.y;
		history.replaceState(null, null, parse_params(params));
	}

	// search
	function toggle_ignorecase() {
		ignorecase = !ignorecase;
		if (ignorecase) {
			ignorecaseBtn.classList.add("show");
		} else {
			ignorecaseBtn.classList.remove("show");
		}
		reset_search();
		search();
	}
	function reset_search() {
		var el = document.querySelectorAll("#frames rect");
		for (var i = 0; i < el.length; i++) {
			orig_load(el[i], "fill")
		}
		var params = get_params();
		delete params.s;
		history.replaceState(null, null, parse_params(params));
	}
	function search_prompt() {
		if (!searching) {
			var term = prompt("Enter a search term (regexp " +
			    "allowed, eg: ^ext4_)"
			    + (ignorecase ? ", ignoring case" : "")
			    + "\nPress Ctrl-i to toggle case sensitivity", "");
			if (term != null) search(term);
		} else {
			reset_search();
			searching = 0;
			currentSearchTerm = null;
			searchbtn.classList.remove("show");
			searchbtn.firstChild.nodeValue = "Search"
			matchedtxt.classList.add("hide");
			matchedtxt.firstChild.nodeValue = ""
		}
	}
	function search(term) {
		if (term) currentSearchTerm = term;

		var re = new RegExp(currentSearchTerm, ignorecase ? 'i' : '');
		var el = document.getElementById("frames").children;
		var matches = new Object();
		var maxwidth = 0;
		for (var i = 0; i < el.length; i++) {
			var e = el[i];
			var func = g_to_func(e);
			var rect = find_child(e, "rect");
			if (func == null || rect == null)
				continue;

			// Save max width. Only works as we have a root frame
			var w = parseFloat(rect.attributes.width.value);
			if (w > maxwidth)
				maxwidth = w;

			if (func.match(re)) {
				// highlight
				var x = parseFloat(rect.attributes.x.value);
				orig_save(rect, "fill");
				rect.attributes.fill.value = "rgb(230,0,230)";

				// remember matches
				if (matches[x] == undefined) {
					matches[x] = w;
				} else {
					if (w > matches[x]) {
						// overwrite with parent
						matches[x] = w;
					}
				}
				searching = 1;
			}
		}
		if (!searching)
			return;
		var params = get_params();
		params.s = currentSearchTerm;
		history.replaceState(null, null, parse_params(params));

		searchbtn.classList.add("show");
		searchbtn.firstChild.nodeValue = "Reset Search";

		// calculate percent matched, excluding vertical overlap
		var count = 0;
		var lastx = -1;
		var lastw = 0;
		var keys = Array();
		for (k in matches) {
			if (matches.hasOwnProperty(k))
				keys.push(k);
		}
		// sort the matched frames by their x location
		// ascending, then width descending
		keys.sort(function(a, b){
			return a - b;
		});
		// Step through frames saving only the biggest bottom-up frames
		// thanks to the sort order. This relies on the tree property
		// where children are always smaller than their parents.
		var fudge = 0.0001;	// JavaScript floating point
		for (var k in keys) {
			var x = parseFloat(keys[k]);
			var w = matches[keys[k]];
			if (x >= lastx + lastw - fudge) {
				count += w;
				lastx = x;
				lastw = w;
			}
		}
		// display matched percent
		matchedtxt.classList.remove("hide");
		var pct = 100 * count / maxwidth;
		if (pct != 100) pct = pct.toFixed(1)
		matchedtxt.firstChild.nodeValue = "Matched: " + pct + "%";
	}
]]>
</script>
<rect x="0.0" y="0" width="1200.0" height="854.0" fill="url(#background)"  />
<text id="title" x="600.00" y="24" >Flame Graph</text>
<text id="details" x="10.00" y="837" > </text>
<text id="unzoom" x="10.00" y="24" class="hide">Reset Zoom</text>
<text id="search" x="1090.00" y="24" >Search</text>
<text id="ignorecase" x="1174.00" y="24" >ic</text>
<text id="matched" x="1090.00" y="837" > </text>
<g id="frames">
<g >
<title>hrtimer_interrupt (269,009,368 samples, 3.92%)</title><rect x="878.1" y="613" width="46.2" height="15.0" fill="rgb(228,109,26)" rx="2" ry="2" />
<text  x="881.09" y="623.5" >hrti..</text>
</g>
<g >
<title>ip_local_deliver (619,387,969 samples, 9.02%)</title><rect x="198.7" y="181" width="106.4" height="15.0" fill="rgb(230,116,27)" rx="2" ry="2" />
<text  x="201.66" y="191.5" >ip_local_deli..</text>
</g>
<g >
<title>step_into (397,977,414 samples, 5.79%)</title><rect x="10.0" y="453" width="68.4" height="15.0" fill="rgb(226,98,23)" rx="2" ry="2" />
<text  x="13.00" y="463.5" >step_into</text>
</g>
<g >
<title>[unknown] (397,977,414 samples, 5.79%)</title><rect x="10.0" y="773" width="68.4" height="15.0" fill="rgb(210,24,5)" rx="2" ry="2" />
<text  x="13.00" y="783.5" >[unknown]</text>
</g>
<g >
<title>napi_complete_done (170,690,771 samples, 2.49%)</title><rect x="848.8" y="533" width="29.3" height="15.0" fill="rgb(234,137,32)" rx="2" ry="2" />
<text  x="851.77" y="543.5" >na..</text>
</g>
<g >
<title>cpu_startup_entry (2,896,614,843 samples, 42.17%)</title><rect x="692.4" y="741" width="497.6" height="15.0" fill="rgb(252,220,52)" rx="2" ry="2" />
<text  x="695.38" y="751.5" >cpu_startup_entry</text>
</g>
<g >
<title>ip_local_deliver_finish (619,387,969 samples, 9.02%)</title><rect x="198.7" y="165" width="106.4" height="15.0" fill="rgb(225,95,22)" rx="2" ry="2" />
<text  x="201.66" y="175.5" >ip_local_deli..</text>
</g>
<g >
<title>do_futex (700,206,466 samples, 10.19%)</title><rect x="78.4" y="629" width="120.3" height="15.0" fill="rgb(245,184,44)" rx="2" ry="2" />
<text  x="81.37" y="639.5" >do_futex</text>
</g>
<g >
<title>mwait_idle_with_hints.constprop.0 (599,631,516 samples, 8.73%)</title><rect x="924.3" y="661" width="103.0" height="15.0" fill="rgb(235,140,33)" rx="2" ry="2" />
<text  x="927.31" y="671.5" >mwait_idle_w..</text>
</g>
<g >
<title>do_open_execat (397,977,414 samples, 5.79%)</title><rect x="10.0" y="533" width="68.4" height="15.0" fill="rgb(223,87,20)" rx="2" ry="2" />
<text  x="13.00" y="543.5" >do_open..</text>
</g>
<g >
<title>__close (619,387,969 samples, 9.02%)</title><rect x="198.7" y="725" width="106.4" height="15.0" fill="rgb(236,145,34)" rx="2" ry="2" />
<text  x="201.66" y="735.5" >__close</text>
</g>
<g >
<title>entry_SYSCALL_64_after_hwframe (397,977,414 samples, 5.79%)</title><rect x="10.0" y="693" width="68.4" height="15.0" fill="rgb(218,63,15)" rx="2" ry="2" />
<text  x="13.00" y="703.5" >entry_S..</text>
</g>
<g >
<title>arch_cpu_idle_enter (408,690,465 samples, 5.95%)</title><rect x="692.4" y="709" width="70.2" height="15.0" fill="rgb(253,223,53)" rx="2" ry="2" />
<text  x="695.38" y="719.5" >arch_cp..</text>
</g>
<g >
<title>do_idle (2,400,957,931 samples, 34.96%)</title><rect x="692.4" y="725" width="412.4" height="15.0" fill="rgb(212,34,8)" rx="2" ry="2" />
<text  x="695.38" y="735.5" >do_idle</text>
</g>
<g >
<title>[libc.so.6] (397,977,414 samples, 5.79%)</title><rect x="10.0" y="725" width="68.4" height="15.0" fill="rgb(223,84,20)" rx="2" ry="2" />
<text  x="13.00" y="735.5" >[libc.s..</text>
</g>
<g >
<title>common_interrupt (170,690,771 samples, 2.49%)</title><rect x="848.8" y="645" width="29.3" height="15.0" fill="rgb(215,46,11)" rx="2" ry="2" />
<text  x="851.77" y="655.5" >co..</text>
</g>
<g >
<title>igc_poll (170,690,771 samples, 2.49%)</title><rect x="848.8" y="549" width="29.3" height="15.0" fill="rgb(230,118,28)" rx="2" ry="2" />
<text  x="851.77" y="559.5" >ig..</text>
</g>
<g >
<title>do_exit (700,206,466 samples, 10.19%)</title><rect x="78.4" y="693" width="120.3" height="15.0" fill="rgb(231,122,29)" rx="2" ry="2" />
<text  x="81.37" y="703.5" >do_exit</text>
</g>
<g >
<title>path_openat (397,977,414 samples, 5.79%)</title><rect x="10.0" y="501" width="68.4" height="15.0" fill="rgb(249,202,48)" rx="2" ry="2" />
<text  x="13.00" y="511.5" >path_op..</text>
</g>
<g >
<title>__cmd_record (397,977,414 samples, 5.79%)</title><rect x="10.0" y="757" width="68.4" height="15.0" fill="rgb(254,229,54)" rx="2" ry="2" />
<text  x="13.00" y="767.5" >__cmd_r..</text>
</g>
<g >
<title>search_binary_handler (397,977,414 samples, 5.79%)</title><rect x="10.0" y="581" width="68.4" height="15.0" fill="rgb(208,14,3)" rx="2" ry="2" />
<text  x="13.00" y="591.5" >search_..</text>
</g>
<g >
<title>tick_check_broadcast_expired (495,656,912 samples, 7.22%)</title><rect x="1104.8" y="725" width="85.2" height="15.0" fill="rgb(237,150,36)" rx="2" ry="2" />
<text  x="1107.85" y="735.5" >tick_check..</text>
</g>
<g >
<title>all (6,868,685,988 samples, 100%)</title><rect x="10.0" y="805" width="1180.0" height="15.0" fill="rgb(213,39,9)" rx="2" ry="2" />
<text  x="13.00" y="815.5" ></text>
</g>
<g >
<title>update_process_times (269,009,368 samples, 3.92%)</title><rect x="878.1" y="549" width="46.2" height="15.0" fill="rgb(250,209,50)" rx="2" ry="2" />
<text  x="881.09" y="559.5" >upda..</text>
</g>
<g >
<title>entry_SYSCALL_64_after_hwframe (700,206,466 samples, 10.19%)</title><rect x="78.4" y="741" width="120.3" height="15.0" fill="rgb(218,63,15)" rx="2" ry="2" />
<text  x="81.37" y="751.5" >entry_SYSCALL_..</text>
</g>
<g >
<title>ip_protocol_deliver_rcu (619,387,969 samples, 9.02%)</title><rect x="198.7" y="149" width="106.4" height="15.0" fill="rgb(215,49,11)" rx="2" ry="2" />
<text  x="201.66" y="159.5" >ip_protocol_d..</text>
</g>
<g >
<title>server (619,387,969 samples, 9.02%)</title><rect x="198.7" y="741" width="106.4" height="15.0" fill="rgb(230,117,28)" rx="2" ry="2" />
<text  x="201.66" y="751.5" >server</text>
</g>
<g >
<title>sock_close (619,387,969 samples, 9.02%)</title><rect x="198.7" y="581" width="106.4" height="15.0" fill="rgb(209,21,5)" rx="2" ry="2" />
<text  x="201.66" y="591.5" >sock_close</text>
</g>
<g >
<title>do_syscall_64 (397,977,414 samples, 5.79%)</title><rect x="10.0" y="677" width="68.4" height="15.0" fill="rgb(209,20,4)" rx="2" ry="2" />
<text  x="13.00" y="687.5" >do_sysc..</text>
</g>
<g >
<title>open_exec (397,977,414 samples, 5.79%)</title><rect x="10.0" y="549" width="68.4" height="15.0" fill="rgb(226,99,23)" rx="2" ry="2" />
<text  x="13.00" y="559.5" >open_exec</text>
</g>
<g >
<title>tcp_close (619,387,969 samples, 9.02%)</title><rect x="198.7" y="533" width="106.4" height="15.0" fill="rgb(237,151,36)" rx="2" ry="2" />
<text  x="201.66" y="543.5" >tcp_close</text>
</g>
<g >
<title>__tcp_transmit_skb (619,387,969 samples, 9.02%)</title><rect x="198.7" y="453" width="106.4" height="15.0" fill="rgb(231,122,29)" rx="2" ry="2" />
<text  x="201.66" y="463.5" >__tcp_transmi..</text>
</g>
<g >
<title>exit_mm (700,206,466 samples, 10.19%)</title><rect x="78.4" y="677" width="120.3" height="15.0" fill="rgb(236,144,34)" rx="2" ry="2" />
<text  x="81.37" y="687.5" >exit_mm</text>
</g>
<g >
<title>ip_local_out (619,387,969 samples, 9.02%)</title><rect x="198.7" y="405" width="106.4" height="15.0" fill="rgb(233,131,31)" rx="2" ry="2" />
<text  x="201.66" y="415.5" >ip_local_out</text>
</g>
<g >
<title>get_futex_key (700,206,466 samples, 10.19%)</title><rect x="78.4" y="597" width="120.3" height="15.0" fill="rgb(252,216,51)" rx="2" ry="2" />
<text  x="81.37" y="607.5" >get_futex_key</text>
</g>
<g >
<title>__tcp_push_pending_frames (619,387,969 samples, 9.02%)</title><rect x="198.7" y="485" width="106.4" height="15.0" fill="rgb(230,117,28)" rx="2" ry="2" />
<text  x="201.66" y="495.5" >__tcp_push_pe..</text>
</g>
<g >
<title>tcp_write_xmit (619,387,969 samples, 9.02%)</title><rect x="198.7" y="469" width="106.4" height="15.0" fill="rgb(231,122,29)" rx="2" ry="2" />
<text  x="201.66" y="479.5" >tcp_write_xmit</text>
</g>
<g >
<title>task_tick_idle (269,009,368 samples, 3.92%)</title><rect x="878.1" y="533" width="46.2" height="15.0" fill="rgb(243,176,42)" rx="2" ry="2" />
<text  x="881.09" y="543.5" >task..</text>
</g>
<g >
<title>asm_common_interrupt (170,690,771 samples, 2.49%)</title><rect x="848.8" y="661" width="29.3" height="15.0" fill="rgb(227,105,25)" rx="2" ry="2" />
<text  x="851.77" y="671.5" >as..</text>
</g>
<g >
<title>execve (397,977,414 samples, 5.79%)</title><rect x="10.0" y="709" width="68.4" height="15.0" fill="rgb(229,111,26)" rx="2" ry="2" />
<text  x="13.00" y="719.5" >execve</text>
</g>
<g >
<title>__clone (1,319,594,435 samples, 19.21%)</title><rect x="78.4" y="773" width="226.7" height="15.0" fill="rgb(218,63,15)" rx="2" ry="2" />
<text  x="81.37" y="783.5" >__clone</text>
</g>
<g >
<title>exec_binprm (397,977,414 samples, 5.79%)</title><rect x="10.0" y="597" width="68.4" height="15.0" fill="rgb(244,180,43)" rx="2" ry="2" />
<text  x="13.00" y="607.5" >exec_bi..</text>
</g>
<g >
<title>do_syscall_64 (619,387,969 samples, 9.02%)</title><rect x="198.7" y="693" width="106.4" height="15.0" fill="rgb(209,20,4)" rx="2" ry="2" />
<text  x="201.66" y="703.5" >do_syscall_64</text>
</g>
<g >
<title>__hrtimer_run_queues (269,009,368 samples, 3.92%)</title><rect x="878.1" y="597" width="46.2" height="15.0" fill="rgb(237,150,35)" rx="2" ry="2" />
<text  x="881.09" y="607.5" >__hr..</text>
</g>
<g >
<title>load_elf_binary (397,977,414 samples, 5.79%)</title><rect x="10.0" y="565" width="68.4" height="15.0" fill="rgb(223,83,20)" rx="2" ry="2" />
<text  x="13.00" y="575.5" >load_el..</text>
</g>
<g >
<title>inet_twsk_hashdance (619,387,969 samples, 9.02%)</title><rect x="198.7" y="37" width="106.4" height="15.0" fill="rgb(205,0,0)" rx="2" ry="2" />
<text  x="201.66" y="47.5" >inet_twsk_has..</text>
</g>
<g >
<title>ip_finish_output2 (619,387,969 samples, 9.02%)</title><rect x="198.7" y="341" width="106.4" height="15.0" fill="rgb(219,67,16)" rx="2" ry="2" />
<text  x="201.66" y="351.5" >ip_finish_out..</text>
</g>
<g >
<title>perf-exec (397,977,414 samples, 5.79%)</title><rect x="10.0" y="789" width="68.4" height="15.0" fill="rgb(231,123,29)" rx="2" ry="2" />
<text  x="13.00" y="799.5" >perf-exec</text>
</g>
<g >
<title>evlist__prepare_workload (397,977,414 samples, 5.79%)</title><rect x="10.0" y="741" width="68.4" height="15.0" fill="rgb(237,149,35)" rx="2" ry="2" />
<text  x="13.00" y="751.5" >evlist_..</text>
</g>
<g >
<title>__local_bh_enable_ip (619,387,969 samples, 9.02%)</title><rect x="198.7" y="325" width="106.4" height="15.0" fill="rgb(237,147,35)" rx="2" ry="2" />
<text  x="201.66" y="335.5" >__local_bh_en..</text>
</g>
<g >
<title>____fput (619,387,969 samples, 9.02%)</title><rect x="198.7" y="613" width="106.4" height="15.0" fill="rgb(221,74,17)" rx="2" ry="2" />
<text  x="201.66" y="623.5" >____fput</text>
</g>
<g >
<title>bprm_execve.part.0 (397,977,414 samples, 5.79%)</title><rect x="10.0" y="613" width="68.4" height="15.0" fill="rgb(228,106,25)" rx="2" ry="2" />
<text  x="13.00" y="623.5" >bprm_ex..</text>
</g>
<g >
<title>swapper (5,151,114,123 samples, 74.99%)</title><rect x="305.1" y="789" width="884.9" height="15.0" fill="rgb(239,158,37)" rx="2" ry="2" />
<text  x="308.07" y="799.5" >swapper</text>
</g>
<g >
<title>__napi_poll (170,690,771 samples, 2.49%)</title><rect x="848.8" y="565" width="29.3" height="15.0" fill="rgb(247,195,46)" rx="2" ry="2" />
<text  x="851.77" y="575.5" >__..</text>
</g>
<g >
<title>tcp_v4_rcv (619,387,969 samples, 9.02%)</title><rect x="198.7" y="133" width="106.4" height="15.0" fill="rgb(237,148,35)" rx="2" ry="2" />
<text  x="201.66" y="143.5" >tcp_v4_rcv</text>
</g>
<g >
<title>mm_release (700,206,466 samples, 10.19%)</title><rect x="78.4" y="645" width="120.3" height="15.0" fill="rgb(230,118,28)" rx="2" ry="2" />
<text  x="81.37" y="655.5" >mm_release</text>
</g>
<g >
<title>check_tsc_unstable (408,690,465 samples, 5.95%)</title><rect x="692.4" y="693" width="70.2" height="15.0" fill="rgb(241,167,40)" rx="2" ry="2" />
<text  x="695.38" y="703.5" >check_t..</text>
</g>
<g >
<title>futex_wake (700,206,466 samples, 10.19%)</title><rect x="78.4" y="613" width="120.3" height="15.0" fill="rgb(219,65,15)" rx="2" ry="2" />
<text  x="81.37" y="623.5" >futex_wake</text>
</g>
<g >
<title>[libc.so.6] (1,319,594,435 samples, 19.21%)</title><rect x="78.4" y="757" width="226.7" height="15.0" fill="rgb(223,84,20)" rx="2" ry="2" />
<text  x="81.37" y="767.5" >[libc.so.6]</text>
</g>
<g >
<title>simple_get_link (397,977,414 samples, 5.79%)</title><rect x="10.0" y="405" width="68.4" height="15.0" fill="rgb(242,171,41)" rx="2" ry="2" />
<text  x="13.00" y="415.5" >simple_..</text>
</g>
<g >
<title>__do_softirq (170,690,771 samples, 2.49%)</title><rect x="848.8" y="597" width="29.3" height="15.0" fill="rgb(246,191,45)" rx="2" ry="2" />
<text  x="851.77" y="607.5" >__..</text>
</g>
<g >
<title>internal_get_user_pages_fast (700,206,466 samples, 10.19%)</title><rect x="78.4" y="581" width="120.3" height="15.0" fill="rgb(253,223,53)" rx="2" ry="2" />
<text  x="81.37" y="591.5" >internal_get_u..</text>
</g>
<g >
<title>__x64_sys_execve (397,977,414 samples, 5.79%)</title><rect x="10.0" y="661" width="68.4" height="15.0" fill="rgb(247,193,46)" rx="2" ry="2" />
<text  x="13.00" y="671.5" >__x64_s..</text>
</g>
<g >
<title>bprm_execve (397,977,414 samples, 5.79%)</title><rect x="10.0" y="629" width="68.4" height="15.0" fill="rgb(218,61,14)" rx="2" ry="2" />
<text  x="13.00" y="639.5" >bprm_ex..</text>
</g>
<g >
<title>do_syscall_64 (700,206,466 samples, 10.19%)</title><rect x="78.4" y="725" width="120.3" height="15.0" fill="rgb(209,20,4)" rx="2" ry="2" />
<text  x="81.37" y="735.5" >do_syscall_64</text>
</g>
<g >
<title>exit_to_user_mode_prepare (619,387,969 samples, 9.02%)</title><rect x="198.7" y="661" width="106.4" height="15.0" fill="rgb(228,108,25)" rx="2" ry="2" />
<text  x="201.66" y="671.5" >exit_to_user_..</text>
</g>
<g >
<title>__do_softirq (619,387,969 samples, 9.02%)</title><rect x="198.7" y="293" width="106.4" height="15.0" fill="rgb(246,191,45)" rx="2" ry="2" />
<text  x="201.66" y="303.5" >__do_softirq</text>
</g>
<g >
<title>task_work_run (619,387,969 samples, 9.02%)</title><rect x="198.7" y="629" width="106.4" height="15.0" fill="rgb(209,22,5)" rx="2" ry="2" />
<text  x="201.66" y="639.5" >task_work_run</text>
</g>
<g >
<title>__netif_receive_skb_one_core (619,387,969 samples, 9.02%)</title><rect x="198.7" y="213" width="106.4" height="15.0" fill="rgb(215,47,11)" rx="2" ry="2" />
<text  x="201.66" y="223.5" >__netif_recei..</text>
</g>
<g >
<title>__tcp_close (619,387,969 samples, 9.02%)</title><rect x="198.7" y="517" width="106.4" height="15.0" fill="rgb(210,25,6)" rx="2" ry="2" />
<text  x="201.66" y="527.5" >__tcp_close</text>
</g>
<g >
<title>__x64_sys_exit (700,206,466 samples, 10.19%)</title><rect x="78.4" y="709" width="120.3" height="15.0" fill="rgb(226,97,23)" rx="2" ry="2" />
<text  x="81.37" y="719.5" >__x64_sys_exit</text>
</g>
<g >
<title>do_filp_open (397,977,414 samples, 5.79%)</title><rect x="10.0" y="517" width="68.4" height="15.0" fill="rgb(211,28,6)" rx="2" ry="2" />
<text  x="13.00" y="527.5" >do_filp..</text>
</g>
<g >
<title>tcp_send_fin (619,387,969 samples, 9.02%)</title><rect x="198.7" y="501" width="106.4" height="15.0" fill="rgb(224,87,20)" rx="2" ry="2" />
<text  x="201.66" y="511.5" >tcp_send_fin</text>
</g>
<g >
<title>tcp_data_queue (619,387,969 samples, 9.02%)</title><rect x="198.7" y="85" width="106.4" height="15.0" fill="rgb(228,109,26)" rx="2" ry="2" />
<text  x="201.66" y="95.5" >tcp_data_queue</text>
</g>
<g >
<title>inet_release (619,387,969 samples, 9.02%)</title><rect x="198.7" y="549" width="106.4" height="15.0" fill="rgb(248,198,47)" rx="2" ry="2" />
<text  x="201.66" y="559.5" >inet_release</text>
</g>
<g >
<title>ip_output (619,387,969 samples, 9.02%)</title><rect x="198.7" y="389" width="106.4" height="15.0" fill="rgb(247,194,46)" rx="2" ry="2" />
<text  x="201.66" y="399.5" >ip_output</text>
</g>
<g >
<title>tcp_rcv_state_process (619,387,969 samples, 9.02%)</title><rect x="198.7" y="101" width="106.4" height="15.0" fill="rgb(246,190,45)" rx="2" ry="2" />
<text  x="201.66" y="111.5" >tcp_rcv_state..</text>
</g>
<g >
<title>__irq_exit_rcu (170,690,771 samples, 2.49%)</title><rect x="848.8" y="613" width="29.3" height="15.0" fill="rgb(227,101,24)" rx="2" ry="2" />
<text  x="851.77" y="623.5" >__..</text>
</g>
<g >
<title>tcp_v4_do_rcv (619,387,969 samples, 9.02%)</title><rect x="198.7" y="117" width="106.4" height="15.0" fill="rgb(210,26,6)" rx="2" ry="2" />
<text  x="201.66" y="127.5" >tcp_v4_do_rcv</text>
</g>
<g >
<title>secondary_startup_64_no_verify (2,896,614,843 samples, 42.17%)</title><rect x="692.4" y="773" width="497.6" height="15.0" fill="rgb(239,157,37)" rx="2" ry="2" />
<text  x="695.38" y="783.5" >secondary_startup_64_no_verify</text>
</g>
<g >
<title>entry_SYSCALL_64_after_hwframe (619,387,969 samples, 9.02%)</title><rect x="198.7" y="709" width="106.4" height="15.0" fill="rgb(218,63,15)" rx="2" ry="2" />
<text  x="201.66" y="719.5" >entry_SYSCALL..</text>
</g>
<g >
<title>tick_sched_handle (269,009,368 samples, 3.92%)</title><rect x="878.1" y="565" width="46.2" height="15.0" fill="rgb(219,68,16)" rx="2" ry="2" />
<text  x="881.09" y="575.5" >tick..</text>
</g>
<g >
<title>net_rx_action (619,387,969 samples, 9.02%)</title><rect x="198.7" y="277" width="106.4" height="15.0" fill="rgb(240,164,39)" rx="2" ry="2" />
<text  x="201.66" y="287.5" >net_rx_action</text>
</g>
<g >
<title>ss (1,319,594,435 samples, 19.21%)</title><rect x="78.4" y="789" width="226.7" height="15.0" fill="rgb(227,104,25)" rx="2" ry="2" />
<text  x="81.37" y="799.5" >ss</text>
</g>
<g >
<title>__napi_poll (619,387,969 samples, 9.02%)</title><rect x="198.7" y="261" width="106.4" height="15.0" fill="rgb(247,195,46)" rx="2" ry="2" />
<text  x="201.66" y="271.5" >__napi_poll</text>
</g>
<g >
<title>syscall_exit_to_user_mode (619,387,969 samples, 9.02%)</title><rect x="198.7" y="677" width="106.4" height="15.0" fill="rgb(251,211,50)" rx="2" ry="2" />
<text  x="201.66" y="687.5" >syscall_exit_..</text>
</g>
<g >
<title>process_backlog (619,387,969 samples, 9.02%)</title><rect x="198.7" y="245" width="106.4" height="15.0" fill="rgb(224,90,21)" rx="2" ry="2" />
<text  x="201.66" y="255.5" >process_backlog</text>
</g>
<g >
<title>sysvec_apic_timer_interrupt (269,009,368 samples, 3.92%)</title><rect x="878.1" y="645" width="46.2" height="15.0" fill="rgb(220,69,16)" rx="2" ry="2" />
<text  x="881.09" y="655.5" >sysv..</text>
</g>
<g >
<title>walk_component (397,977,414 samples, 5.79%)</title><rect x="10.0" y="469" width="68.4" height="15.0" fill="rgb(241,167,40)" rx="2" ry="2" />
<text  x="13.00" y="479.5" >walk_co..</text>
</g>
<g >
<title>cpuidle_idle_call (1,540,979,367 samples, 22.43%)</title><rect x="762.6" y="709" width="264.7" height="15.0" fill="rgb(207,9,2)" rx="2" ry="2" />
<text  x="765.59" y="719.5" >cpuidle_idle_call</text>
</g>
<g >
<title>pick_link (397,977,414 samples, 5.79%)</title><rect x="10.0" y="437" width="68.4" height="15.0" fill="rgb(239,159,38)" rx="2" ry="2" />
<text  x="13.00" y="447.5" >pick_link</text>
</g>
<g >
<title>__netif_receive_skb (619,387,969 samples, 9.02%)</title><rect x="198.7" y="229" width="106.4" height="15.0" fill="rgb(218,60,14)" rx="2" ry="2" />
<text  x="201.66" y="239.5" >__netif_recei..</text>
</g>
<g >
<title>exit_mm_release (700,206,466 samples, 10.19%)</title><rect x="78.4" y="661" width="120.3" height="15.0" fill="rgb(211,30,7)" rx="2" ry="2" />
<text  x="81.37" y="671.5" >exit_mm_release</text>
</g>
<g >
<title>__sysvec_apic_timer_interrupt (269,009,368 samples, 3.92%)</title><rect x="878.1" y="629" width="46.2" height="15.0" fill="rgb(242,173,41)" rx="2" ry="2" />
<text  x="881.09" y="639.5" >__sy..</text>
</g>
<g >
<title>tcp_time_wait (619,387,969 samples, 9.02%)</title><rect x="198.7" y="53" width="106.4" height="15.0" fill="rgb(216,53,12)" rx="2" ry="2" />
<text  x="201.66" y="63.5" >tcp_time_wait</text>
</g>
<g >
<title>cpuidle_enter_state (1,540,979,367 samples, 22.43%)</title><rect x="762.6" y="677" width="264.7" height="15.0" fill="rgb(221,73,17)" rx="2" ry="2" />
<text  x="765.59" y="687.5" >cpuidle_enter_state</text>
</g>
<g >
<title>do_execveat_common.isra.0 (397,977,414 samples, 5.79%)</title><rect x="10.0" y="645" width="68.4" height="15.0" fill="rgb(231,123,29)" rx="2" ry="2" />
<text  x="13.00" y="655.5" >do_exec..</text>
</g>
<g >
<title>do_softirq.part.0 (619,387,969 samples, 9.02%)</title><rect x="198.7" y="309" width="106.4" height="15.0" fill="rgb(233,131,31)" rx="2" ry="2" />
<text  x="201.66" y="319.5" >do_softirq.pa..</text>
</g>
<g >
<title>tcp_fin (619,387,969 samples, 9.02%)</title><rect x="198.7" y="69" width="106.4" height="15.0" fill="rgb(239,159,38)" rx="2" ry="2" />
<text  x="201.66" y="79.5" >tcp_fin</text>
</g>
<g >
<title>__ip_finish_output (619,387,969 samples, 9.02%)</title><rect x="198.7" y="357" width="106.4" height="15.0" fill="rgb(215,47,11)" rx="2" ry="2" />
<text  x="201.66" y="367.5" >__ip_finish_o..</text>
</g>
<g >
<title>cpuidle_reflect (451,288,099 samples, 6.57%)</title><rect x="1027.3" y="709" width="77.5" height="15.0" fill="rgb(219,68,16)" rx="2" ry="2" />
<text  x="1030.32" y="719.5" >cpuidle_..</text>
</g>
<g >
<title>tick_sched_timer (269,009,368 samples, 3.92%)</title><rect x="878.1" y="581" width="46.2" height="15.0" fill="rgb(254,227,54)" rx="2" ry="2" />
<text  x="881.09" y="591.5" >tick..</text>
</g>
<g >
<title>__ip_queue_xmit (619,387,969 samples, 9.02%)</title><rect x="198.7" y="421" width="106.4" height="15.0" fill="rgb(253,223,53)" rx="2" ry="2" />
<text  x="201.66" y="431.5" >__ip_queue_xmit</text>
</g>
<g >
<title>ip_finish_output (619,387,969 samples, 9.02%)</title><rect x="198.7" y="373" width="106.4" height="15.0" fill="rgb(242,173,41)" rx="2" ry="2" />
<text  x="201.66" y="383.5" >ip_finish_out..</text>
</g>
<g >
<title>net_rx_action (170,690,771 samples, 2.49%)</title><rect x="848.8" y="581" width="29.3" height="15.0" fill="rgb(240,164,39)" rx="2" ry="2" />
<text  x="851.77" y="591.5" >ne..</text>
</g>
<g >
<title>__fput (619,387,969 samples, 9.02%)</title><rect x="198.7" y="597" width="106.4" height="15.0" fill="rgb(248,200,47)" rx="2" ry="2" />
<text  x="201.66" y="607.5" >__fput</text>
</g>
<g >
<title>cpuidle_enter (1,540,979,367 samples, 22.43%)</title><rect x="762.6" y="693" width="264.7" height="15.0" fill="rgb(205,1,0)" rx="2" ry="2" />
<text  x="765.59" y="703.5" >cpuidle_enter</text>
</g>
<g >
<title>__sock_release (619,387,969 samples, 9.02%)</title><rect x="198.7" y="565" width="106.4" height="15.0" fill="rgb(220,72,17)" rx="2" ry="2" />
<text  x="201.66" y="575.5" >__sock_release</text>
</g>
<g >
<title>ip_rcv (619,387,969 samples, 9.02%)</title><rect x="198.7" y="197" width="106.4" height="15.0" fill="rgb(209,22,5)" rx="2" ry="2" />
<text  x="201.66" y="207.5" >ip_rcv</text>
</g>
<g >
<title>irq_exit_rcu (170,690,771 samples, 2.49%)</title><rect x="848.8" y="629" width="29.3" height="15.0" fill="rgb(254,227,54)" rx="2" ry="2" />
<text  x="851.77" y="639.5" >ir..</text>
</g>
<g >
<title>ovl_get_link (397,977,414 samples, 5.79%)</title><rect x="10.0" y="421" width="68.4" height="15.0" fill="rgb(214,42,10)" rx="2" ry="2" />
<text  x="13.00" y="431.5" >ovl_get..</text>
</g>
<g >
<title>start_secondary (2,896,614,843 samples, 42.17%)</title><rect x="692.4" y="757" width="497.6" height="15.0" fill="rgb(242,170,40)" rx="2" ry="2" />
<text  x="695.38" y="767.5" >start_secondary</text>
</g>
<g >
<title>ip_queue_xmit (619,387,969 samples, 9.02%)</title><rect x="198.7" y="437" width="106.4" height="15.0" fill="rgb(230,119,28)" rx="2" ry="2" />
<text  x="201.66" y="447.5" >ip_queue_xmit</text>
</g>
<g >
<title>link_path_walk.part.0.constprop.0 (397,977,414 samples, 5.79%)</title><rect x="10.0" y="485" width="68.4" height="15.0" fill="rgb(248,199,47)" rx="2" ry="2" />
<text  x="13.00" y="495.5" >link_pa..</text>
</g>
<g >
<title>asm_sysvec_apic_timer_interrupt (269,009,368 samples, 3.92%)</title><rect x="878.1" y="661" width="46.2" height="15.0" fill="rgb(232,127,30)" rx="2" ry="2" />
<text  x="881.09" y="671.5" >asm_..</text>
</g>
<g >
<title>exit_to_user_mode_loop (619,387,969 samples, 9.02%)</title><rect x="198.7" y="645" width="106.4" height="15.0" fill="rgb(224,90,21)" rx="2" ry="2" />
<text  x="201.66" y="655.5" >exit_to_user_..</text>
</g>
</g>
</svg>
